{
.appVersion = "1352";
DisplayStrings = (

glyphs = (
{
glyphname = uni25CC;
lastChange = "2020-07-15 14:37:54 +0000";
layers = (
{
hints = (
{
horizontal = 1;
place = "{237, 127}";
type = Stem;
},
{
horizontal = 1;
place = "{462, 128}";
type = Stem;
},
{
place = "{241, 130}";
type = Stem;
},
{
horizontal = 1;
place = "{391, 127}";
type = Stem;
},
{
place = "{90, 130}";
type = Stem;
},
{
place = "{30, 130}";
type = Stem;
},
{
place = "{392, 130}";
type = Stem;
},
{
place = "{452, 130}";
type = Stem;
},
{
horizontal = 1;
place = "{11, 128}";
type = Stem;
},
{
horizontal = 1;
place = "{83, 127}";
type = Stem;
}
);
layerId = "555B79C6-6D98-46E7-9307-77C37975E414";
paths = (
{
closed = 1;
nodes = (
"241 506.67 OFFCURVE",
"247.33 491.17 OFFCURVE",
"260 479.5 CURVE SMOOTH",
"272.67 467.83 OFFCURVE",
"288 462 OFFCURVE",
"306 462 CURVE SMOOTH",
"324.67 462 OFFCURVE",
"340.17 467.83 OFFCURVE",
"352.5 479.5 CURVE SMOOTH",
"364.83 491.17 OFFCURVE",
"371 506.67 OFFCURVE",
"371 526 CURVE SMOOTH",
"371 544.67 OFFCURVE",
"364.83 560 OFFCURVE",
"352.5 572 CURVE SMOOTH",
"340.17 584 OFFCURVE",
"324.67 590 OFFCURVE",
"306 590 CURVE SMOOTH",
"288 590 OFFCURVE",
"272.67 584 OFFCURVE",
"260 572 CURVE SMOOTH",
"247.33 560 OFFCURVE",
"241 544.67 OFFCURVE",
"241 526 CURVE SMOOTH"
);
},
{
closed = 1;
nodes = (
"220 472.67 OFFCURVE",
"213.5 488 OFFCURVE",
"200.5 500 CURVE SMOOTH",
"187.5 512 OFFCURVE",
"172.33 518 OFFCURVE",
"155 518 CURVE SMOOTH",
"136.33 518 OFFCURVE",
"120.83 512 OFFCURVE",
"108.5 500 CURVE SMOOTH",
"96.17 488 OFFCURVE",
"90 472.67 OFFCURVE",
"90 454 CURVE SMOOTH",
"90 435.33 OFFCURVE",
"96.17 420.17 OFFCURVE",
"108.5 408.5 CURVE SMOOTH",
"120.83 396.83 OFFCURVE",
"136.33 391 OFFCURVE",
"155 391 CURVE SMOOTH",
"172.33 391 OFFCURVE",
"187.5 396.83 OFFCURVE",
"200.5 408.5 CURVE SMOOTH",
"213.5 420.17 OFFCURVE",
"220 435.33 OFFCURVE",
"220 454 CURVE SMOOTH"
);
},
{
closed = 1;
nodes = (
"160 319.33 OFFCURVE",
"153.67 334.83 OFFCURVE",
"141 346.5 CURVE SMOOTH",
"128.33 358.17 OFFCURVE",
"113 364 OFFCURVE",
"95 364 CURVE SMOOTH",
"76.33 364 OFFCURVE",
"60.83 358.17 OFFCURVE",
"48.5 346.5 CURVE SMOOTH",
"36.17 334.83 OFFCURVE",
"30 319.33 OFFCURVE",
"30 300 CURVE SMOOTH",
"30 280.67 OFFCURVE",
"36.17 265.33 OFFCURVE",
"48.5 254 CURVE SMOOTH",
"60.83 242.67 OFFCURVE",
"76.33 237 OFFCURVE",
"95 237 CURVE SMOOTH",
"113 237 OFFCURVE",
"128.33 242.67 OFFCURVE",
"141 254 CURVE SMOOTH",
"153.67 265.33 OFFCURVE",
"160 280.67 OFFCURVE",
"160 300 CURVE SMOOTH"
);
},
{
closed = 1;
nodes = (
"392 435.33 OFFCURVE",
"398.5 420.17 OFFCURVE",
"411.5 408.5 CURVE SMOOTH",
"424.5 396.83 OFFCURVE",
"439.67 391 OFFCURVE",
"457 391 CURVE SMOOTH",
"475.67 391 OFFCURVE",
"491.17 396.83 OFFCURVE",
"503.5 408.5 CURVE SMOOTH",
"515.83 420.17 OFFCURVE",
"522 435.33 OFFCURVE",
"522 454 CURVE SMOOTH",
"522 472.67 OFFCURVE",
"515.83 488 OFFCURVE",
"503.5 500 CURVE SMOOTH",
"491.17 512 OFFCURVE",
"475.67 518 OFFCURVE",
"457 518 CURVE SMOOTH",
"439.67 518 OFFCURVE",
"424.5 512 OFFCURVE",
"411.5 500 CURVE SMOOTH",
"398.5 488 OFFCURVE",
"392 472.67 OFFCURVE",
"392 454 CURVE SMOOTH"
);
},
{
closed = 1;
nodes = (
"452 280.67 OFFCURVE",
"458.33 265.33 OFFCURVE",
"471 254 CURVE SMOOTH",
"483.67 242.67 OFFCURVE",
"499 237 OFFCURVE",
"517 237 CURVE SMOOTH",
"535.67 237 OFFCURVE",
"551.17 242.67 OFFCURVE",
"563.5 254 CURVE SMOOTH",
"575.83 265.33 OFFCURVE",
"582 280.67 OFFCURVE",
"582 300 CURVE SMOOTH",
"582 319.33 OFFCURVE",
"575.83 334.83 OFFCURVE",
"563.5 346.5 CURVE SMOOTH",
"551.17 358.17 OFFCURVE",
"535.67 364 OFFCURVE",
"517 364 CURVE SMOOTH",
"499 364 OFFCURVE",
"483.67 358.17 OFFCURVE",
"471 346.5 CURVE SMOOTH",
"458.33 334.83 OFFCURVE",
"452 319.33 OFFCURVE",
"452 300 CURVE SMOOTH"
);
},
{
closed = 1;
nodes = (
"241 56.33 OFFCURVE",
"247.33 41 OFFCURVE",
"260 29 CURVE SMOOTH",
"272.67 17 OFFCURVE",
"288 11 OFFCURVE",
"306 11 CURVE SMOOTH",
"324.67 11 OFFCURVE",
"340.17 17 OFFCURVE",
"352.5 29 CURVE SMOOTH",
"364.83 41 OFFCURVE",
"371 56.33 OFFCURVE",
"371 75 CURVE SMOOTH",
"371 94.33 OFFCURVE",
"364.83 109.83 OFFCURVE",
"352.5 121.5 CURVE SMOOTH",
"340.17 133.17 OFFCURVE",
"324.67 139 OFFCURVE",
"306 139 CURVE SMOOTH",
"288 139 OFFCURVE",
"272.67 133.17 OFFCURVE",
"260 121.5 CURVE SMOOTH",
"247.33 109.83 OFFCURVE",
"241 94.33 OFFCURVE",
"241 75 CURVE SMOOTH"
);
},
{
closed = 1;
nodes = (
"220 165.67 OFFCURVE",
"213.5 180.83 OFFCURVE",
"200.5 192.5 CURVE SMOOTH",
"187.5 204.17 OFFCURVE",
"172.33 210 OFFCURVE",
"155 210 CURVE SMOOTH",
"136.33 210 OFFCURVE",
"120.83 204.17 OFFCURVE",
"108.5 192.5 CURVE SMOOTH",
"96.17 180.83 OFFCURVE",
"90 165.67 OFFCURVE",
"90 147 CURVE SMOOTH",
"90 127.67 OFFCURVE",
"96.17 112.17 OFFCURVE",
"108.5 100.5 CURVE SMOOTH",
"120.83 88.83 OFFCURVE",
"136.33 83 OFFCURVE",
"155 83 CURVE SMOOTH",
"172.33 83 OFFCURVE",
"187.5 88.83 OFFCURVE",
"200.5 100.5 CURVE SMOOTH",
"213.5 112.17 OFFCURVE",
"220 127.67 OFFCURVE",
"220 147 CURVE SMOOTH"
);
},
{
closed = 1;
nodes = (
"392 127.67 OFFCURVE",
"398.5 112.17 OFFCURVE",
"411.5 100.5 CURVE SMOOTH",
"424.5 88.83 OFFCURVE",
"439.67 83 OFFCURVE",
"457 83 CURVE SMOOTH",
"475.67 83 OFFCURVE",
"491.17 88.83 OFFCURVE",
"503.5 100.5 CURVE SMOOTH",
"515.83 112.17 OFFCURVE",
"522 127.67 OFFCURVE",
"522 147 CURVE SMOOTH",
"522 165.67 OFFCURVE",
"515.83 180.83 OFFCURVE",
"503.5 192.5 CURVE SMOOTH",
"491.17 204.17 OFFCURVE",
"475.67 210 OFFCURVE",
"457 210 CURVE SMOOTH",
"439.67 210 OFFCURVE",
"424.5 204.17 OFFCURVE",
"411.5 192.5 CURVE SMOOTH",
"398.5 180.83 OFFCURVE",
"392 165.67 OFFCURVE",
"392 147 CURVE SMOOTH"
);
}
);
width = 612;
},
{
layerId = "9F2BC935-6AE7-4E60-84C9-D3B586669EA4";
width = 600;
}
);
note = uni25CC;
unicode = 25CC;
},
{
glyphname = s_tha.or;
lastChange = "2021-08-24 08:26:56 +0000";
layers = (
{
layerId = "555B79C6-6D98-46E7-9307-77C37975E414";
paths = (
{
closed = 1;
nodes = (
"447 -194 OFFCURVE",
"491 -194 QCURVE SMOOTH",
"540 -194 OFFCURVE",
"602 -142 OFFCURVE",
"602 -95 QCURVE SMOOTH",
"602 -66 OFFCURVE",
"577 -22 OFFCURVE",
"554 -9 QCURVE",
"571 1 OFFCURVE",
"581 14 QCURVE",
"581 566 LINE SMOOTH",
"581 594 OFFCURVE",
"566 621 OFFCURVE",
"547 634 QCURVE SMOOTH",
"534 643 OFFCURVE",
"493 664 OFFCURVE",
"439 683 OFFCURVE",
"372 695 OFFCURVE",
"333 695 QCURVE SMOOTH",
"274 695 OFFCURVE",
"170 664 OFFCURVE",
"92 602 OFFCURVE",
"46 512 OFFCURVE",
"46 453 QCURVE SMOOTH",
"46 407 OFFCURVE",
"73 338 OFFCURVE",
"115 288 OFFCURVE",
"167 258 OFFCURVE",
"191 251 QCURVE",
"103 184 LINE",
"101 179 OFFCURVE",
"100 165 OFFCURVE",
"100 157 QCURVE SMOOTH",
"100 131 OFFCURVE",
"111 114 QCURVE",
"196 83 OFFCURVE",
"369 29 OFFCURVE",
"454 4 QCURVE",
"426 -2 OFFCURVE",
"381 -34 OFFCURVE",
"362 -56 QCURVE",
"339 -30 OFFCURVE",
"277 8 OFFCURVE",
"235 8 QCURVE SMOOTH",
"213 8 OFFCURVE",
"172 -5 OFFCURVE",
"141 -30 OFFCURVE",
"123 -69 OFFCURVE",
"123 -94 QCURVE SMOOTH",
"123 -118 OFFCURVE",
"142 -156 OFFCURVE",
"174 -181 OFFCURVE",
"216 -194 OFFCURVE",
"239 -194 QCURVE SMOOTH",
"281 -194 OFFCURVE",
"340 -160 OFFCURVE",
"362 -134 QCURVE",
"386 -160 OFFCURVE"
);
},
{
closed = 1;
nodes = (
"150 557 OFFCURVE",
"206 604 OFFCURVE",
"285 630 OFFCURVE",
"333 630 QCURVE SMOOTH",
"365 630 OFFCURVE",
"422 619 OFFCURVE",
"468 602 OFFCURVE",
"501 583 OFFCURVE",
"509 575 QCURVE",
"509 61 LINE",
"456 76 OFFCURVE",
"374 99 OFFCURVE",
"301 121 OFFCURVE",
"226 146 OFFCURVE",
"180 161 QCURVE",
"378 312 LINE",
"378 319 OFFCURVE",
"370 336 OFFCURVE",
"358 352 OFFCURVE",
"342 364 OFFCURVE",
"335 366 QCURVE",
"246 298 LINE",
"220 304 OFFCURVE",
"175 328 OFFCURVE",
"140 366 OFFCURVE",
"120 418 OFFCURVE",
"120 452 QCURVE SMOOTH",
"120 492 OFFCURVE"
);
},
{
closed = 1;
nodes = (
"320 -78 OFFCURVE",
"331 -95 QCURVE",
"316 -115 OFFCURVE",
"273 -143 OFFCURVE",
"244 -143 QCURVE SMOOTH",
"217 -143 OFFCURVE",
"182 -116 OFFCURVE",
"182 -93 QCURVE SMOOTH",
"182 -70 OFFCURVE",
"214 -43 OFFCURVE",
"243 -43 QCURVE SMOOTH",
"274 -43 OFFCURVE"
);
},
{
closed = 1;
nodes = (
"543 -73 OFFCURVE",
"543 -94 QCURVE SMOOTH",
"543 -116 OFFCURVE",
"512 -143 OFFCURVE",
"486 -143 QCURVE SMOOTH",
"456 -143 OFFCURVE",
"410 -115 OFFCURVE",
"394 -95 QCURVE",
"406 -78 OFFCURVE",
"455 -43 OFFCURVE",
"485 -43 QCURVE SMOOTH",
"513 -43 OFFCURVE"
);
}
);
userData = {
assembly = "NPUSHB[ ]	/* 88 values pushed */\01276 75 70 64 63 47 28 7 1 4 49 19 2 5 1 101 95 16 3 6 5 3 76 0 2 0 4 1 2 4 105 0 1 10 7 9 3 5 6 1 5 105 8 1 6 0 0 6 89 8 1 6 6 0 97 3 1 0 6 0 81 99 98 87 86 105 103 98 109 99 109 93 91 86 97 87 97 82 80 56 54 39 37 40 34 11 6 24 \012CALL[ ]	/* CallFunction */";
};
width = 671;
},
{
layerId = "9F2BC935-6AE7-4E60-84C9-D3B586669EA4";
width = 600;
}
);
leftKerningGroup = Sa.or;
note = SaTha.or;
},
{
glyphname = m_bh_a.or;
lastChange = "2021-08-24 07:37:55 +0000";
layers = (
{
layerId = "555B79C6-6D98-46E7-9307-77C37975E414";
paths = (
{
closed = 1;
nodes = (
"439 -56 QCURVE SMOOTH",
"439 -71 OFFCURVE",
"451 -81 QCURVE",
"478 -108 OFFCURVE",
"520 -136 QCURVE",
"520 -241 LINE",
"201 -241 LINE SMOOTH",
"184 -241 OFFCURVE",
"170 -251 OFFCURVE",
"170 -270 QCURVE SMOOTH",
"170 -275 OFFCURVE",
"172 -287 OFFCURVE",
"175 -295 QCURVE",
"535 -295 LINE SMOOTH",
"561 -295 OFFCURVE",
"581 -278 OFFCURVE",
"581 -257 QCURVE SMOOTH",
"581 -173 LINE",
"613 -189 OFFCURVE",
"632 -189 QCURVE SMOOTH",
"655 -189 OFFCURVE",
"671 -162 OFFCURVE",
"672 -144 QCURVE SMOOTH",
"672 -137 LINE",
"659 -132 OFFCURVE",
"626 -119 OFFCURVE",
"593 -105 OFFCURVE",
"562 -92 OFFCURVE",
"551 -87 QCURVE",
"605 -84 OFFCURVE",
"674 -24 OFFCURVE",
"674 36 QCURVE SMOOTH",
"674 81 OFFCURVE",
"625 148 OFFCURVE",
"583 160 QCURVE",
"583 575 LINE SMOOTH",
"583 601 OFFCURVE",
"566 625 OFFCURVE",
"547 638 QCURVE SMOOTH",
"520 656 OFFCURVE",
"416 695 OFFCURVE",
"342 695 QCURVE SMOOTH",
"280 695 OFFCURVE",
"172 662 OFFCURVE",
"92 599 OFFCURVE",
"46 508 OFFCURVE",
"46 450 QCURVE SMOOTH",
"46 408 OFFCURVE",
"69 338 OFFCURVE",
"108 282 OFFCURVE",
"160 244 OFFCURVE",
"190 234 QCURVE",
"167 208 OFFCURVE",
"129 152 OFFCURVE",
"101 99 OFFCURVE",
"85 53 OFFCURVE",
"85 37 QCURVE SMOOTH",
"85 10 OFFCURVE",
"113 -6 OFFCURVE",
"131 -6 QCURVE SMOOTH",
"142 -6 LINE",
"173 94 OFFCURVE",
"295 251 OFFCURVE",
"380 302 QCURVE",
"380 309 OFFCURVE",
"376 327 OFFCURVE",
"372 333 QCURVE SMOOTH",
"364 347 OFFCURVE",
"344 347 QCURVE SMOOTH",
"335 347 OFFCURVE",
"309 337 OFFCURVE",
"281 319 OFFCURVE",
"250 295 OFFCURVE",
"237 282 QCURVE",
"186 299 OFFCURVE",
"120 382 OFFCURVE",
"120 448 QCURVE SMOOTH",
"120 493 OFFCURVE",
"156 561 OFFCURVE",
"216 607 OFFCURVE",
"297 630 OFFCURVE",
"342 630 QCURVE SMOOTH",
"396 630 OFFCURVE",
"486 601 OFFCURVE",
"511 583 QCURVE",
"511 170 LINE",
"482 166 OFFCURVE",
"444 140 OFFCURVE",
"444 116 QCURVE SMOOTH",
"444 96 OFFCURVE",
"461 87 QCURVE",
"484 105 OFFCURVE",
"517 105 QCURVE SMOOTH",
"543 105 OFFCURVE",
"577 92 OFFCURVE",
"597 71 OFFCURVE",
"605 46 OFFCURVE",
"605 35 QCURVE SMOOTH",
"605 3 OFFCURVE",
"565 -35 OFFCURVE",
"523 -35 QCURVE SMOOTH",
"510 -35 OFFCURVE",
"474 -28 OFFCURVE",
"461 -21 QCURVE",
"439 -30 OFFCURVE"
);
}
);
userData = {
assembly = "NPUSHB[ ]	/* 90 values pushed */\01219 1 3 2 69 52 30 18 4 1 3 13 1 4 1 99 86 80 3 7 6 4 76 0 3 2 1 2 3 1 128 0 1 4 2 1 4 126 0 5 0 2 3 5 2 105 0 0 0 6 7 0 6 105 0 9 0 8 9 8 100 0 4 4 41 77 0 7 7 45 7 78 98 96 91 89 85 83 75 74 63 61 39 43 41 38 34 10 9 27 \012CALL[ ]	/* CallFunction */";
};
width = 685;
},
{
layerId = "9F2BC935-6AE7-4E60-84C9-D3B586669EA4";
width = 600;
}
);
leftKerningGroup = Ma.or;
note = MaBhaRa.or;
rightKerningGroup = Yya.or;
},
{
glyphname = "a-oriya";
lastChange = "2021-08-24 04:44:13 +0000";
layers = (
{
layerId = "555B79C6-6D98-46E7-9307-77C37975E414";
paths = (
{
closed = 1;
nodes = (
"830 696 OFFCURVE",
"830 707 OFFCURVE",
"817 707 CURVE SMOOTH",
"803 707 OFFCURVE",
"758 709 OFFCURVE",
"709 709 CURVE SMOOTH",
"696 709 OFFCURVE",
"692 703 OFFCURVE",
"691 692 CURVE SMOOTH",
"672 483 OFFCURVE",
"633 103 OFFCURVE",
"629 75 CURVE SMOOTH",
"624 38 OFFCURVE",
"612 -17 OFFCURVE",
"648 -17 CURVE SMOOTH",
"711 -17 OFFCURVE",
"775 106 OFFCURVE",
"780 186 CURVE SMOOTH",
"791 356 OFFCURVE",
"823 642 OFFCURVE",
"829 688 CURVE SMOOTH"
);
},
{
closed = 1;
nodes = (
"449 590 OFFCURVE",
"465 554 OFFCURVE",
"465 531 CURVE SMOOTH",
"465 408 OFFCURVE",
"89 343 OFFCURVE",
"89 173 CURVE SMOOTH",
"89 84 OFFCURVE",
"166 -7 OFFCURVE",
"313 -7 CURVE SMOOTH",
"449 -7 OFFCURVE",
"608 74 OFFCURVE",
"647 134 CURVE",
"674 332 LINE",
"612 235 OFFCURVE",
"442 115 OFFCURVE",
"347 115 CURVE SMOOTH",
"287 115 OFFCURVE",
"252 153 OFFCURVE",
"252 183 CURVE SMOOTH",
"252 260 OFFCURVE",
"607 316 OFFCURVE",
"607 548 CURVE SMOOTH",
"607 650 OFFCURVE",
"522 706 OFFCURVE",
"457 708 CURVE SMOOTH",
"429 709 OFFCURVE",
"364 699 OFFCURVE",
"333 653 CURVE",
"308 691 OFFCURVE",
"264 709 OFFCURVE",
"209 707 CURVE SMOOTH",
"137 704 OFFCURVE",
"42 637 OFFCURVE",
"42 538 CURVE SMOOTH",
"42 445 OFFCURVE",
"118 381 OFFCURVE",
"173 381 CURVE SMOOTH",
"204 381 OFFCURVE",
"240 428 OFFCURVE",
"252 456 CURVE SMOOTH",
"260 475 OFFCURVE",
"266 498 OFFCURVE",
"266 501 CURVE SMOOTH",
"266 503 OFFCURVE",
"265 507 OFFCURVE",
"260 507 CURVE SMOOTH",
"253 507 OFFCURVE",
"232 481 OFFCURVE",
"221 481 CURVE SMOOTH",
"194 481 OFFCURVE",
"157 509 OFFCURVE",
"158 542 CURVE SMOOTH",
"159 566 OFFCURVE",
"180 592 OFFCURVE",
"213 595 CURVE SMOOTH",
"242 598 OFFCURVE",
"269 576 OFFCURVE",
"272 557 CURVE SMOOTH",
"275 535 OFFCURVE",
"277 525 OFFCURVE",
"292 524 CURVE SMOOTH",
"304 523 OFFCURVE",
"331 522 OFFCURVE",
"345 526 CURVE SMOOTH",
"352 528 OFFCURVE",
"355 534 OFFCURVE",
"361 552 CURVE SMOOTH",
"369 575 OFFCURVE",
"390 590 OFFCURVE",
"419 590 CURVE SMOOTH"
);
}
);
width = 856;
},
{
background = {
paths = (
{
closed = 1;
nodes = (
"414 519 OFFCURVE",
"426 491 OFFCURVE",
"426 466 CURVE SMOOTH",
"426 378 OFFCURVE",
"54 306 OFFCURVE",
"54 138 CURVE SMOOTH",
"54 53 OFFCURVE",
"126 -18 OFFCURVE",
"254 -18 CURVE SMOOTH",
"404 -18 OFFCURVE",
"528 66 OFFCURVE",
"561 96 CURVE",
"572 244 LINE",
"517 176 OFFCURVE",
"369 85 OFFCURVE",
"253 85 CURVE SMOOTH",
"210 85 OFFCURVE",
"173 108 OFFCURVE",
"173 147 CURVE SMOOTH",
"173 243 OFFCURVE",
"522 288 OFFCURVE",
"522 478 CURVE SMOOTH",
"522 570 OFFCURVE",
"452 613 OFFCURVE",
"400 613 CURVE SMOOTH",
"365 613 OFFCURVE",
"329 594 OFFCURVE",
"307 565 CURVE",
"287 592 OFFCURVE",
"252 613 OFFCURVE",
"207 613 CURVE SMOOTH",
"138 613 OFFCURVE",
"65 547 OFFCURVE",
"65 468 CURVE SMOOTH",
"65 398 OFFCURVE",
"129 336 OFFCURVE",
"161 336 CURVE SMOOTH",
"194 336 OFFCURVE",
"246 389 OFFCURVE",
"246 430 CURVE SMOOTH",
"246 432 OFFCURVE",
"245 436 OFFCURVE",
"240 436 CURVE SMOOTH",
"234 436 OFFCURVE",
"227 421 OFFCURVE",
"217 421 CURVE SMOOTH",
"193 421 OFFCURVE",
"163 447 OFFCURVE",
"163 474 CURVE SMOOTH",
"163 503 OFFCURVE",
"188 524 OFFCURVE",
"219 524 CURVE SMOOTH",
"248 524 OFFCURVE",
"264 506 OFFCURVE",
"264 477 CURVE SMOOTH",
"264 463 OFFCURVE",
"267 458 OFFCURVE",
"276 458 CURVE SMOOTH",
"290 458 OFFCURVE",
"317 458 OFFCURVE",
"327 458 CURVE SMOOTH",
"336 458 OFFCURVE",
"341 461 OFFCURVE",
"341 476 CURVE SMOOTH",
"341 506 OFFCURVE",
"352 519 OFFCURVE",
"380 519 CURVE SMOOTH"
);
},
{
closed = 1;
nodes = (
"704 595 OFFCURVE",
"704 606 OFFCURVE",
"691 606 CURVE SMOOTH",
"677 606 OFFCURVE",
"662 606 OFFCURVE",
"613 606 CURVE SMOOTH",
"600 606 OFFCURVE",
"596 600 OFFCURVE",
"595 589 CURVE SMOOTH",
"576 380 OFFCURVE",
"545 89 OFFCURVE",
"541 61 CURVE SMOOTH",
"536 24 OFFCURVE",
"533 -31 OFFCURVE",
"560 -31 CURVE SMOOTH",
"604 -31 OFFCURVE",
"654 93 OFFCURVE",
"662 172 CURVE SMOOTH",
"677 323 OFFCURVE",
"697 542 OFFCURVE",
"703 587 CURVE SMOOTH"
);
},
{
closed = 1;
nodes = (
"588 541 LINE",
"588 541 OFFCURVE",
"558 176 OFFCURVE",
"541 56 CURVE SMOOTH",
"536 20 OFFCURVE",
"526 -21 OFFCURVE",
"552 -21 CURVE SMOOTH",
"598 -21 OFFCURVE",
"663 107 OFFCURVE",
"667 174 CURVE SMOOTH",
"678 361 OFFCURVE",
"701 538 OFFCURVE",
"701 538 CURVE"
);
}
);
};
layerId = "9F2BC935-6AE7-4E60-84C9-D3B586669EA4";
paths = (
{
closed = 1;
nodes = (
"411 519 OFFCURVE",
"426 491 OFFCURVE",
"426 466 CURVE SMOOTH",
"426 380 OFFCURVE",
"50 302 OFFCURVE",
"50 138 CURVE SMOOTH",
"50 51 OFFCURVE",
"125 -18 OFFCURVE",
"261 -18 CURVE SMOOTH",
"411 -18 OFFCURVE",
"528 68 OFFCURVE",
"561 98 CURVE",
"572 256 LINE",
"517 188 OFFCURVE",
"369 85 OFFCURVE",
"258 85 CURVE SMOOTH",
"212 85 OFFCURVE",
"173 110 OFFCURVE",
"173 143 CURVE SMOOTH",
"173 238 OFFCURVE",
"530 288 OFFCURVE",
"530 478 CURVE SMOOTH",
"530 570 OFFCURVE",
"462 613 OFFCURVE",
"403 613 CURVE SMOOTH",
"365 613 OFFCURVE",
"329 594 OFFCURVE",
"307 565 CURVE",
"287 592 OFFCURVE",
"257 613 OFFCURVE",
"207 613 CURVE SMOOTH",
"138 613 OFFCURVE",
"65 547 OFFCURVE",
"65 468 CURVE SMOOTH",
"65 398 OFFCURVE",
"124 336 OFFCURVE",
"162 336 CURVE SMOOTH",
"200 336 OFFCURVE",
"246 389 OFFCURVE",
"246 428 CURVE SMOOTH",
"246 434 OFFCURVE",
"244 436 OFFCURVE",
"241 436 CURVE SMOOTH",
"234 436 OFFCURVE",
"223 421 OFFCURVE",
"213 421 CURVE SMOOTH",
"197 421 OFFCURVE",
"160 446 OFFCURVE",
"160 471 CURVE SMOOTH",
"160 503 OFFCURVE",
"188 524 OFFCURVE",
"215 524 CURVE SMOOTH",
"248 524 OFFCURVE",
"264 506 OFFCURVE",
"264 477 CURVE SMOOTH",
"264 463 OFFCURVE",
"267 458 OFFCURVE",
"276 458 CURVE SMOOTH",
"290 458 OFFCURVE",
"317 458 OFFCURVE",
"327 458 CURVE SMOOTH",
"336 458 OFFCURVE",
"341 461 OFFCURVE",
"341 476 CURVE SMOOTH",
"341 506 OFFCURVE",
"352 519 OFFCURVE",
"380 519 CURVE SMOOTH"
);
},
{
closed = 1;
nodes = (
"704 595 OFFCURVE",
"704 606 OFFCURVE",
"691 606 CURVE SMOOTH",
"677 606 OFFCURVE",
"662 606 OFFCURVE",
"613 606 CURVE SMOOTH",
"600 606 OFFCURVE",
"596 600 OFFCURVE",
"595 589 CURVE SMOOTH",
"578 402 OFFCURVE",
"553 143 OFFCURVE",
"540 49 CURVE SMOOTH",
"535 12 OFFCURVE",
"527 -31 OFFCURVE",
"554 -31 CURVE SMOOTH",
"598 -31 OFFCURVE",
"657 81 OFFCURVE",
"665 160 CURVE SMOOTH",
"680 311 OFFCURVE",
"697 542 OFFCURVE",
"703 587 CURVE SMOOTH"
);
}
);
width = 743;
}
);
unicode = 0B05;
},
{
glyphname = "aa-oriya";
lastChange = "2021-08-24 04:44:45 +0000";
layers = (
{
layerId = "555B79C6-6D98-46E7-9307-77C37975E414";
paths = (
{
closed = 1;
nodes = (
"830 696 OFFCURVE",
"830 707 OFFCURVE",
"817 707 CURVE SMOOTH",
"803 707 OFFCURVE",
"758 709 OFFCURVE",
"709 709 CURVE SMOOTH",
"696 709 OFFCURVE",
"692 703 OFFCURVE",
"691 692 CURVE SMOOTH",
"672 483 OFFCURVE",
"633 103 OFFCURVE",
"629 75 CURVE SMOOTH",
"624 38 OFFCURVE",
"612 -17 OFFCURVE",
"648 -17 CURVE SMOOTH",
"711 -17 OFFCURVE",
"775 106 OFFCURVE",
"780 186 CURVE SMOOTH",
"791 356 OFFCURVE",
"823 642 OFFCURVE",
"829 688 CURVE SMOOTH"
);
},
{
closed = 1;
nodes = (
"1040 696 OFFCURVE",
"1040 707 OFFCURVE",
"1027 707 CURVE SMOOTH",
"1013 707 OFFCURVE",
"968 709 OFFCURVE",
"919 709 CURVE SMOOTH",
"906 709 OFFCURVE",
"902 703 OFFCURVE",
"901 692 CURVE SMOOTH",
"882 483 OFFCURVE",
"843 103 OFFCURVE",
"839 75 CURVE SMOOTH",
"834 38 OFFCURVE",
"822 -17 OFFCURVE",
"858 -17 CURVE SMOOTH",
"921 -17 OFFCURVE",
"985 106 OFFCURVE",
"990 186 CURVE SMOOTH",
"1001 356 OFFCURVE",
"1033 642 OFFCURVE",
"1039 688 CURVE SMOOTH"
);
},
{
closed = 1;
nodes = (
"449 590 OFFCURVE",
"465 554 OFFCURVE",
"465 531 CURVE SMOOTH",
"465 408 OFFCURVE",
"89 343 OFFCURVE",
"89 173 CURVE SMOOTH",
"89 84 OFFCURVE",
"166 -7 OFFCURVE",
"313 -7 CURVE SMOOTH",
"449 -7 OFFCURVE",
"608 74 OFFCURVE",
"647 134 CURVE",
"674 332 LINE",
"612 235 OFFCURVE",
"442 115 OFFCURVE",
"347 115 CURVE SMOOTH",
"287 115 OFFCURVE",
"252 153 OFFCURVE",
"252 183 CURVE SMOOTH",
"252 260 OFFCURVE",
"607 316 OFFCURVE",
"607 548 CURVE SMOOTH",
"607 650 OFFCURVE",
"522 706 OFFCURVE",
"457 708 CURVE SMOOTH",
"429 709 OFFCURVE",
"364 699 OFFCURVE",
"333 653 CURVE",
"308 691 OFFCURVE",
"264 709 OFFCURVE",
"209 707 CURVE SMOOTH",
"137 704 OFFCURVE",
"42 637 OFFCURVE",
"42 538 CURVE SMOOTH",
"42 445 OFFCURVE",
"118 381 OFFCURVE",
"173 381 CURVE SMOOTH",
"204 381 OFFCURVE",
"240 428 OFFCURVE",
"252 456 CURVE SMOOTH",
"260 475 OFFCURVE",
"266 498 OFFCURVE",
"266 501 CURVE SMOOTH",
"266 503 OFFCURVE",
"265 507 OFFCURVE",
"260 507 CURVE SMOOTH",
"253 507 OFFCURVE",
"232 481 OFFCURVE",
"221 481 CURVE SMOOTH",
"194 481 OFFCURVE",
"157 509 OFFCURVE",
"158 542 CURVE SMOOTH",
"159 566 OFFCURVE",
"180 592 OFFCURVE",
"213 595 CURVE SMOOTH",
"242 598 OFFCURVE",
"269 576 OFFCURVE",
"272 557 CURVE SMOOTH",
"275 535 OFFCURVE",
"277 525 OFFCURVE",
"292 524 CURVE SMOOTH",
"304 523 OFFCURVE",
"331 522 OFFCURVE",
"345 526 CURVE SMOOTH",
"352 528 OFFCURVE",
"355 534 OFFCURVE",
"361 552 CURVE SMOOTH",
"369 575 OFFCURVE",
"390 590 OFFCURVE",
"419 590 CURVE SMOOTH"
);
}
);
width = 1062;
},
{
background = {
paths = (
{
closed = 1;
nodes = (
"371 596 OFFCURVE",
"391 554 OFFCURVE",
"391 531 CURVE SMOOTH",
"391 408 OFFCURVE",
"8 343 OFFCURVE",
"8 173 CURVE SMOOTH",
"8 84 OFFCURVE",
"78 0 OFFCURVE",
"225 0 CURVE SMOOTH",
"361 0 OFFCURVE",
"520 84 OFFCURVE",
"559 144 CURVE",
"586 322 LINE",
"524 225 OFFCURVE",
"354 105 OFFCURVE",
"259 105 CURVE SMOOTH",
"167 105 OFFCURVE",
"142 153 OFFCURVE",
"142 176 CURVE SMOOTH",
"142 266 OFFCURVE",
"510 322 OFFCURVE",
"510 548 CURVE SMOOTH",
"510 650 OFFCURVE",
"434 696 OFFCURVE",
"369 698 CURVE SMOOTH",
"341 699 OFFCURVE",
"276 689 OFFCURVE",
"245 643 CURVE",
"220 681 OFFCURVE",
"176 699 OFFCURVE",
"121 697 CURVE SMOOTH",
"49 694 OFFCURVE",
"-36 626 OFFCURVE",
"-36 538 CURVE SMOOTH",
"-36 445 OFFCURVE",
"30 391 OFFCURVE",
"85 391 CURVE SMOOTH",
"116 391 OFFCURVE",
"143 421 OFFCURVE",
"159 451 CURVE SMOOTH",
"167 465 OFFCURVE",
"178 493 OFFCURVE",
"178 496 CURVE SMOOTH",
"178 498 OFFCURVE",
"177 502 OFFCURVE",
"172 502 CURVE SMOOTH",
"165 502 OFFCURVE",
"144 475 OFFCURVE",
"133 475 CURVE SMOOTH",
"94 475 OFFCURVE",
"61 509 OFFCURVE",
"62 542 CURVE SMOOTH",
"63 566 OFFCURVE",
"92 598 OFFCURVE",
"125 601 CURVE SMOOTH",
"154 604 OFFCURVE",
"181 582 OFFCURVE",
"184 563 CURVE SMOOTH",
"187 541 OFFCURVE",
"189 531 OFFCURVE",
"204 530 CURVE SMOOTH",
"216 529 OFFCURVE",
"243 528 OFFCURVE",
"257 532 CURVE SMOOTH",
"264 534 OFFCURVE",
"267 540 OFFCURVE",
"273 558 CURVE SMOOTH",
"281 581 OFFCURVE",
"302 596 OFFCURVE",
"331 596 CURVE SMOOTH"
);
}
);
};
layerId = "9F2BC935-6AE7-4E60-84C9-D3B586669EA4";
paths = (
{
closed = 1;
nodes = (
"411 519 OFFCURVE",
"426 491 OFFCURVE",
"426 466 CURVE SMOOTH",
"426 380 OFFCURVE",
"50 302 OFFCURVE",
"50 138 CURVE SMOOTH",
"50 51 OFFCURVE",
"125 -18 OFFCURVE",
"261 -18 CURVE SMOOTH",
"411 -18 OFFCURVE",
"528 68 OFFCURVE",
"561 98 CURVE",
"572 256 LINE",
"517 188 OFFCURVE",
"369 85 OFFCURVE",
"258 85 CURVE SMOOTH",
"212 85 OFFCURVE",
"173 110 OFFCURVE",
"173 143 CURVE SMOOTH",
"173 238 OFFCURVE",
"530 288 OFFCURVE",
"530 478 CURVE SMOOTH",
"530 570 OFFCURVE",
"462 613 OFFCURVE",
"403 613 CURVE SMOOTH",
"365 613 OFFCURVE",
"329 594 OFFCURVE",
"307 565 CURVE",
"287 592 OFFCURVE",
"257 613 OFFCURVE",
"207 613 CURVE SMOOTH",
"138 613 OFFCURVE",
"65 547 OFFCURVE",
"65 468 CURVE SMOOTH",
"65 398 OFFCURVE",
"124 336 OFFCURVE",
"162 336 CURVE SMOOTH",
"200 336 OFFCURVE",
"246 389 OFFCURVE",
"246 428 CURVE SMOOTH",
"246 434 OFFCURVE",
"244 436 OFFCURVE",
"241 436 CURVE SMOOTH",
"234 436 OFFCURVE",
"223 421 OFFCURVE",
"213 421 CURVE SMOOTH",
"197 421 OFFCURVE",
"160 446 OFFCURVE",
"160 471 CURVE SMOOTH",
"160 503 OFFCURVE",
"188 524 OFFCURVE",
"215 524 CURVE SMOOTH",
"248 524 OFFCURVE",
"264 506 OFFCURVE",
"264 477 CURVE SMOOTH",
"264 463 OFFCURVE",
"267 458 OFFCURVE",
"276 458 CURVE SMOOTH",
"290 458 OFFCURVE",
"317 458 OFFCURVE",
"327 458 CURVE SMOOTH",
"336 458 OFFCURVE",
"341 461 OFFCURVE",
"341 476 CURVE SMOOTH",
"341 506 OFFCURVE",
"352 519 OFFCURVE",
"380 519 CURVE SMOOTH"
);
},
{
closed = 1;
nodes = (
"704 595 OFFCURVE",
"704 606 OFFCURVE",
"691 606 CURVE SMOOTH",
"677 606 OFFCURVE",
"662 606 OFFCURVE",
"613 606 CURVE SMOOTH",
"600 606 OFFCURVE",
"596 600 OFFCURVE",
"595 589 CURVE SMOOTH",
"576 380 OFFCURVE",
"544 77 OFFCURVE",
"540 49 CURVE SMOOTH",
"535 12 OFFCURVE",
"527 -31 OFFCURVE",
"554 -31 CURVE SMOOTH",
"598 -31 OFFCURVE",
"657 81 OFFCURVE",
"665 160 CURVE SMOOTH",
"680 311 OFFCURVE",
"697 542 OFFCURVE",
"703 587 CURVE SMOOTH"
);
},
{
closed = 1;
nodes = (
"919 595 OFFCURVE",
"919 606 OFFCURVE",
"906 606 CURVE SMOOTH",
"892 606 OFFCURVE",
"877 606 OFFCURVE",
"828 606 CURVE SMOOTH",
"815 606 OFFCURVE",
"811 600 OFFCURVE",
"810 589 CURVE SMOOTH",
"791 380 OFFCURVE",
"759 77 OFFCURVE",
"755 49 CURVE SMOOTH",
"750 12 OFFCURVE",
"742 -31 OFFCURVE",
"769 -31 CURVE SMOOTH",
"813 -31 OFFCURVE",
"872 81 OFFCURVE",
"880 160 CURVE SMOOTH",
"895 311 OFFCURVE",
"912 542 OFFCURVE",
"918 587 CURVE SMOOTH"
);
}
);
width = 958;
}
);
unicode = 0B06;
},
{
glyphname = "i-oriya";
lastChange = "2021-08-24 05:15:29 +0000";
layers = (
{
layerId = "555B79C6-6D98-46E7-9307-77C37975E414";
paths = (
{
closed = 1;
nodes = (
"376 232 OFFCURVE",
"403 203 OFFCURVE",
"403 148 CURVE SMOOTH",
"403 111 OFFCURVE",
"379 86 OFFCURVE",
"344 86 CURVE SMOOTH",
"301 86 OFFCURVE",
"288 132 OFFCURVE",
"288 173 CURVE SMOOTH",
"288 214 OFFCURVE",
"312 232 OFFCURVE",
"344 232 CURVE SMOOTH"
);
},
{
closed = 1;
nodes = (
"162 64 OFFCURVE",
"227 -22 OFFCURVE",
"324 -22 CURVE SMOOTH",
"425 -22 OFFCURVE",
"513 69 OFFCURVE",
"513 168 CURVE SMOOTH",
"513 282 OFFCURVE",
"439 335 OFFCURVE",
"367 335 CURVE SMOOTH",
"261 335 OFFCURVE",
"162 256 OFFCURVE",
"162 151 CURVE SMOOTH"
);
},
{
closed = 1;
nodes = (
"628 232 OFFCURVE",
"655 203 OFFCURVE",
"655 148 CURVE SMOOTH",
"655 111 OFFCURVE",
"631 86 OFFCURVE",
"596 86 CURVE SMOOTH",
"553 86 OFFCURVE",
"540 132 OFFCURVE",
"540 173 CURVE SMOOTH",
"540 214 OFFCURVE",
"564 232 OFFCURVE",
"596 232 CURVE SMOOTH"
);
},
{
closed = 1;
nodes = (
"414 64 OFFCURVE",
"479 -22 OFFCURVE",
"576 -22 CURVE SMOOTH",
"677 -22 OFFCURVE",
"765 69 OFFCURVE",
"765 168 CURVE SMOOTH",
"765 282 OFFCURVE",
"691 335 OFFCURVE",
"619 335 CURVE SMOOTH",
"513 335 OFFCURVE",
"414 256 OFFCURVE",
"414 151 CURVE SMOOTH"
);
},
{
closed = 1;
nodes = (
"238 711 OFFCURVE",
"78 510 OFFCURVE",
"78 359 CURVE SMOOTH",
"78 265 OFFCURVE",
"139 189 OFFCURVE",
"220 149 CURVE",
"297 287 LINE",
"297 287 OFFCURVE",
"222 307 OFFCURVE",
"222 386 CURVE SMOOTH",
"222 456 OFFCURVE",
"341 582 OFFCURVE",
"529 582 CURVE SMOOTH",
"684 582 OFFCURVE",
"855 459 OFFCURVE",
"860 297 CURVE SMOOTH",
"864 177 OFFCURVE",
"772 79 OFFCURVE",
"770 58 CURVE SMOOTH",
"768 41 OFFCURVE",
"843 -65 OFFCURVE",
"872 -65 CURVE SMOOTH",
"905 -65 OFFCURVE",
"985 -11 OFFCURVE",
"985 13 CURVE SMOOTH",
"985 17 OFFCURVE",
"984 20 OFFCURVE",
"981 20 CURVE SMOOTH",
"977 20 OFFCURVE",
"963 11 OFFCURVE",
"951 11 CURVE SMOOTH",
"941 11 OFFCURVE",
"913 44 OFFCURVE",
"913 64 CURVE SMOOTH",
"913 78 OFFCURVE",
"1001 168 OFFCURVE",
"999 334 CURVE SMOOTH",
"996 600 OFFCURVE",
"743 711 OFFCURVE",
"564 711 CURVE SMOOTH"
);
}
);
width = 1029;
},
{
background = {
paths = (
{
closed = 1;
nodes = (
"180 316 OFFCURVE",
"122 205 OFFCURVE",
"122 125 CURVE SMOOTH",
"122 45 OFFCURVE",
"168 -4 OFFCURVE",
"248 -4 CURVE SMOOTH",
"342 -4 OFFCURVE",
"434 76 OFFCURVE",
"434 176 CURVE SMOOTH",
"434 265 OFFCURVE",
"374 316 OFFCURVE",
"295 316 CURVE SMOOTH"
);
},
{
closed = 1;
nodes = (
"324 235 OFFCURVE",
"340 180 OFFCURVE",
"340 143 CURVE SMOOTH",
"340 97 OFFCURVE",
"298 72 OFFCURVE",
"263 72 CURVE SMOOTH",
"221 72 OFFCURVE",
"206 128 OFFCURVE",
"206 165 CURVE SMOOTH",
"206 210 OFFCURVE",
"246 235 OFFCURVE",
"282 235 CURVE SMOOTH"
);
},
{
closed = 1;
nodes = (
"429 316 OFFCURVE",
"371 205 OFFCURVE",
"371 125 CURVE SMOOTH",
"371 45 OFFCURVE",
"417 -4 OFFCURVE",
"497 -4 CURVE SMOOTH",
"591 -4 OFFCURVE",
"683 76 OFFCURVE",
"683 176 CURVE SMOOTH",
"683 265 OFFCURVE",
"622 316 OFFCURVE",
"544 316 CURVE SMOOTH"
);
},
{
closed = 1;
nodes = (
"572 235 OFFCURVE",
"588 180 OFFCURVE",
"588 143 CURVE SMOOTH",
"588 97 OFFCURVE",
"547 72 OFFCURVE",
"511 72 CURVE SMOOTH",
"470 72 OFFCURVE",
"455 128 OFFCURVE",
"455 165 CURVE SMOOTH",
"455 210 OFFCURVE",
"495 235 OFFCURVE",
"531 235 CURVE SMOOTH"
);
},
{
closed = 1;
nodes = (
"839 85 OFFCURVE",
"936 180 OFFCURVE",
"936 283 CURVE SMOOTH",
"936 485 OFFCURVE",
"725 617 OFFCURVE",
"508 617 CURVE SMOOTH",
"239 617 OFFCURVE",
"50 465 OFFCURVE",
"50 328 CURVE SMOOTH",
"50 246 OFFCURVE",
"129 192 OFFCURVE",
"182 192 CURVE",
"237 289 LINE",
"202 284 OFFCURVE",
"169 302 OFFCURVE",
"169 339 CURVE SMOOTH",
"169 409 OFFCURVE",
"285 522 OFFCURVE",
"487 522 CURVE SMOOTH",
"668 522 OFFCURVE",
"816 391 OFFCURVE",
"817 276 CURVE SMOOTH",
"818 164 OFFCURVE",
"730 113 OFFCURVE",
"730 88 CURVE SMOOTH",
"730 66 OFFCURVE",
"793 -39 OFFCURVE",
"832 -39 CURVE SMOOTH",
"854 -39 OFFCURVE",
"909 7 OFFCURVE",
"909 37 CURVE SMOOTH",
"909 42 OFFCURVE",
"908 45 OFFCURVE",
"905 45 CURVE SMOOTH",
"901 45 OFFCURVE",
"891 35 OFFCURVE",
"886 35 CURVE SMOOTH",
"877 35 OFFCURVE",
"839 62 OFFCURVE",
"832 73 CURVE"
);
}
);
};
layerId = "9F2BC935-6AE7-4E60-84C9-D3B586669EA4";
paths = (
{
closed = 1;
nodes = (
"180 316 OFFCURVE",
"122 205 OFFCURVE",
"122 125 CURVE SMOOTH",
"122 45 OFFCURVE",
"168 -4 OFFCURVE",
"248 -4 CURVE SMOOTH",
"342 -4 OFFCURVE",
"434 76 OFFCURVE",
"434 176 CURVE SMOOTH",
"434 265 OFFCURVE",
"374 316 OFFCURVE",
"295 316 CURVE SMOOTH"
);
},
{
closed = 1;
nodes = (
"324 235 OFFCURVE",
"340 180 OFFCURVE",
"340 143 CURVE SMOOTH",
"340 97 OFFCURVE",
"298 72 OFFCURVE",
"263 72 CURVE SMOOTH",
"221 72 OFFCURVE",
"206 128 OFFCURVE",
"206 165 CURVE SMOOTH",
"206 210 OFFCURVE",
"246 235 OFFCURVE",
"282 235 CURVE SMOOTH"
);
},
{
closed = 1;
nodes = (
"429 316 OFFCURVE",
"371 205 OFFCURVE",
"371 125 CURVE SMOOTH",
"371 45 OFFCURVE",
"417 -4 OFFCURVE",
"497 -4 CURVE SMOOTH",
"591 -4 OFFCURVE",
"683 76 OFFCURVE",
"683 176 CURVE SMOOTH",
"683 265 OFFCURVE",
"622 316 OFFCURVE",
"544 316 CURVE SMOOTH"
);
},
{
closed = 1;
nodes = (
"572 235 OFFCURVE",
"588 180 OFFCURVE",
"588 143 CURVE SMOOTH",
"588 97 OFFCURVE",
"547 72 OFFCURVE",
"511 72 CURVE SMOOTH",
"470 72 OFFCURVE",
"455 128 OFFCURVE",
"455 165 CURVE SMOOTH",
"455 210 OFFCURVE",
"495 235 OFFCURVE",
"531 235 CURVE SMOOTH"
);
},
{
closed = 1;
nodes = (
"824 85 OFFCURVE",
"921 180 OFFCURVE",
"921 283 CURVE SMOOTH",
"921 485 OFFCURVE",
"725 617 OFFCURVE",
"508 617 CURVE SMOOTH",
"239 617 OFFCURVE",
"50 465 OFFCURVE",
"50 328 CURVE SMOOTH",
"50 246 OFFCURVE",
"129 192 OFFCURVE",
"182 192 CURVE",
"237 289 LINE",
"202 284 OFFCURVE",
"169 302 OFFCURVE",
"169 339 CURVE SMOOTH",
"169 409 OFFCURVE",
"285 522 OFFCURVE",
"487 522 CURVE SMOOTH",
"668 522 OFFCURVE",
"801 391 OFFCURVE",
"802 276 CURVE SMOOTH",
"803 164 OFFCURVE",
"715 113 OFFCURVE",
"715 88 CURVE SMOOTH",
"715 66 OFFCURVE",
"778 -39 OFFCURVE",
"817 -39 CURVE SMOOTH",
"839 -39 OFFCURVE",
"894 7 OFFCURVE",
"894 37 CURVE SMOOTH",
"894 42 OFFCURVE",
"893 45 OFFCURVE",
"890 45 CURVE SMOOTH",
"886 45 OFFCURVE",
"876 35 OFFCURVE",
"871 35 CURVE SMOOTH",
"862 35 OFFCURVE",
"824 62 OFFCURVE",
"817 73 CURVE"
);
}
);
width = 961;
}
);
unicode = 0B07;
},
{
glyphname = "ii-oriya";
lastChange = "2021-08-24 04:45:45 +0000";
layers = (
{
layerId = "555B79C6-6D98-46E7-9307-77C37975E414";
paths = (
{
closed = 1;
nodes = (
"396 711 OFFCURVE",
"255 636 OFFCURVE",
"244 540 CURVE",
"128 555 OFFCURVE",
"36 430 OFFCURVE",
"36 342 CURVE SMOOTH",
"36 261 OFFCURVE",
"89 189 OFFCURVE",
"170 149 CURVE",
"247 287 LINE",
"247 287 OFFCURVE",
"173 312 OFFCURVE",
"173 348 CURVE SMOOTH",
"173 400 OFFCURVE",
"234 429 OFFCURVE",
"258 429 CURVE SMOOTH",
"277 429 OFFCURVE",
"290 395 OFFCURVE",
"307 395 CURVE SMOOTH",
"318 395 OFFCURVE",
"380 442 OFFCURVE",
"380 458 CURVE SMOOTH",
"380 466 OFFCURVE",
"361 477 OFFCURVE",
"361 489 CURVE SMOOTH",
"360 535 OFFCURVE",
"455 582 OFFCURVE",
"540 582 CURVE SMOOTH",
"695 582 OFFCURVE",
"855 459 OFFCURVE",
"860 297 CURVE SMOOTH",
"864 177 OFFCURVE",
"772 79 OFFCURVE",
"770 58 CURVE SMOOTH",
"768 41 OFFCURVE",
"843 -65 OFFCURVE",
"872 -65 CURVE SMOOTH",
"905 -65 OFFCURVE",
"985 -11 OFFCURVE",
"985 13 CURVE SMOOTH",
"985 17 OFFCURVE",
"984 20 OFFCURVE",
"981 20 CURVE SMOOTH",
"977 20 OFFCURVE",
"963 11 OFFCURVE",
"951 11 CURVE SMOOTH",
"941 11 OFFCURVE",
"913 44 OFFCURVE",
"913 64 CURVE SMOOTH",
"913 78 OFFCURVE",
"1001 168 OFFCURVE",
"999 334 CURVE SMOOTH",
"996 600 OFFCURVE",
"743 711 OFFCURVE",
"564 711 CURVE"
);
},
{
closed = 1;
nodes = (
"376 232 OFFCURVE",
"403 203 OFFCURVE",
"403 148 CURVE SMOOTH",
"403 111 OFFCURVE",
"379 86 OFFCURVE",
"344 86 CURVE SMOOTH",
"301 86 OFFCURVE",
"288 132 OFFCURVE",
"288 173 CURVE SMOOTH",
"288 214 OFFCURVE",
"312 232 OFFCURVE",
"344 232 CURVE SMOOTH"
);
},
{
closed = 1;
nodes = (
"162 64 OFFCURVE",
"227 -22 OFFCURVE",
"324 -22 CURVE SMOOTH",
"425 -22 OFFCURVE",
"513 69 OFFCURVE",
"513 168 CURVE SMOOTH",
"513 282 OFFCURVE",
"439 335 OFFCURVE",
"367 335 CURVE SMOOTH",
"261 335 OFFCURVE",
"162 256 OFFCURVE",
"162 151 CURVE SMOOTH"
);
},
{
closed = 1;
nodes = (
"628 232 OFFCURVE",
"655 203 OFFCURVE",
"655 148 CURVE SMOOTH",
"655 111 OFFCURVE",
"631 86 OFFCURVE",
"596 86 CURVE SMOOTH",
"553 86 OFFCURVE",
"540 132 OFFCURVE",
"540 173 CURVE SMOOTH",
"540 214 OFFCURVE",
"564 232 OFFCURVE",
"596 232 CURVE SMOOTH"
);
},
{
closed = 1;
nodes = (
"414 64 OFFCURVE",
"479 -22 OFFCURVE",
"576 -22 CURVE SMOOTH",
"677 -22 OFFCURVE",
"765 69 OFFCURVE",
"765 168 CURVE SMOOTH",
"765 282 OFFCURVE",
"691 335 OFFCURVE",
"619 335 CURVE SMOOTH",
"513 335 OFFCURVE",
"414 256 OFFCURVE",
"414 151 CURVE SMOOTH"
);
}
);
width = 1029;
},
{
background = {
paths = (
{
closed = 1;
nodes = (
"178 316 OFFCURVE",
"120 205 OFFCURVE",
"120 125 CURVE SMOOTH",
"120 45 OFFCURVE",
"166 -4 OFFCURVE",
"246 -4 CURVE SMOOTH",
"340 -4 OFFCURVE",
"432 76 OFFCURVE",
"432 176 CURVE SMOOTH",
"432 265 OFFCURVE",
"372 316 OFFCURVE",
"293 316 CURVE SMOOTH"
);
},
{
closed = 1;
nodes = (
"322 235 OFFCURVE",
"338 180 OFFCURVE",
"338 143 CURVE SMOOTH",
"338 97 OFFCURVE",
"296 72 OFFCURVE",
"261 72 CURVE SMOOTH",
"219 72 OFFCURVE",
"204 128 OFFCURVE",
"204 165 CURVE SMOOTH",
"204 210 OFFCURVE",
"244 235 OFFCURVE",
"280 235 CURVE SMOOTH"
);
},
{
closed = 0;
nodes = (
"226 321 LINE"
);
},
{
closed = 1;
nodes = (
"669 526 OFFCURVE",
"814 391 OFFCURVE",
"815 276 CURVE SMOOTH",
"816 164 OFFCURVE",
"728 113 OFFCURVE",
"728 88 CURVE SMOOTH",
"728 66 OFFCURVE",
"791 -39 OFFCURVE",
"830 -39 CURVE SMOOTH",
"852 -39 OFFCURVE",
"907 7 OFFCURVE",
"907 37 CURVE SMOOTH",
"907 42 OFFCURVE",
"906 45 OFFCURVE",
"903 45 CURVE SMOOTH",
"899 45 OFFCURVE",
"889 35 OFFCURVE",
"884 35 CURVE SMOOTH",
"875 35 OFFCURVE",
"837 62 OFFCURVE",
"830 73 CURVE",
"837 85 OFFCURVE",
"934 180 OFFCURVE",
"934 283 CURVE SMOOTH",
"934 485 OFFCURVE",
"726 619 OFFCURVE",
"506 619 CURVE SMOOTH",
"391 619 OFFCURVE",
"252 588 OFFCURVE",
"229 485 CURVE",
"120 485 OFFCURVE",
"50 411 OFFCURVE",
"50 337 CURVE SMOOTH",
"50 249 OFFCURVE",
"136 192 OFFCURVE",
"180 192 CURVE",
"235 289 LINE",
"200 284 OFFCURVE",
"167 302 OFFCURVE",
"167 339 CURVE SMOOTH",
"167 381 OFFCURVE",
"208 400 OFFCURVE",
"229 402 CURVE SMOOTH",
"257 405 OFFCURVE",
"258 376 OFFCURVE",
"270 376 CURVE SMOOTH",
"287 376 OFFCURVE",
"340 416 OFFCURVE",
"340 430 CURVE SMOOTH",
"340 439 OFFCURVE",
"321 450 OFFCURVE",
"321 461 CURVE SMOOTH",
"321 494 OFFCURVE",
"397 526 OFFCURVE",
"495 526 CURVE SMOOTH"
);
},
{
closed = 1;
nodes = (
"429 316 OFFCURVE",
"371 205 OFFCURVE",
"371 125 CURVE SMOOTH",
"371 45 OFFCURVE",
"417 -4 OFFCURVE",
"497 -4 CURVE SMOOTH",
"591 -4 OFFCURVE",
"683 76 OFFCURVE",
"683 176 CURVE SMOOTH",
"683 265 OFFCURVE",
"622 316 OFFCURVE",
"544 316 CURVE SMOOTH"
);
},
{
closed = 1;
nodes = (
"572 235 OFFCURVE",
"588 180 OFFCURVE",
"588 143 CURVE SMOOTH",
"588 97 OFFCURVE",
"547 72 OFFCURVE",
"511 72 CURVE SMOOTH",
"470 72 OFFCURVE",
"455 128 OFFCURVE",
"455 165 CURVE SMOOTH",
"455 210 OFFCURVE",
"495 235 OFFCURVE",
"531 235 CURVE SMOOTH"
);
}
);
};
layerId = "9F2BC935-6AE7-4E60-84C9-D3B586669EA4";
paths = (
{
closed = 1;
nodes = (
"178 316 OFFCURVE",
"120 205 OFFCURVE",
"120 125 CURVE SMOOTH",
"120 45 OFFCURVE",
"166 -4 OFFCURVE",
"246 -4 CURVE SMOOTH",
"340 -4 OFFCURVE",
"432 76 OFFCURVE",
"432 176 CURVE SMOOTH",
"432 265 OFFCURVE",
"372 316 OFFCURVE",
"293 316 CURVE SMOOTH"
);
},
{
closed = 1;
nodes = (
"322 235 OFFCURVE",
"338 180 OFFCURVE",
"338 143 CURVE SMOOTH",
"338 97 OFFCURVE",
"296 72 OFFCURVE",
"261 72 CURVE SMOOTH",
"219 72 OFFCURVE",
"204 128 OFFCURVE",
"204 165 CURVE SMOOTH",
"204 210 OFFCURVE",
"244 235 OFFCURVE",
"280 235 CURVE SMOOTH"
);
},
{
closed = 0;
nodes = (
"226 321 LINE"
);
},
{
closed = 1;
nodes = (
"669 526 OFFCURVE",
"799 391 OFFCURVE",
"800 276 CURVE SMOOTH",
"801 164 OFFCURVE",
"713 113 OFFCURVE",
"713 88 CURVE SMOOTH",
"713 66 OFFCURVE",
"776 -39 OFFCURVE",
"815 -39 CURVE SMOOTH",
"837 -39 OFFCURVE",
"892 7 OFFCURVE",
"892 37 CURVE SMOOTH",
"892 42 OFFCURVE",
"891 45 OFFCURVE",
"888 45 CURVE SMOOTH",
"884 45 OFFCURVE",
"874 35 OFFCURVE",
"869 35 CURVE SMOOTH",
"860 35 OFFCURVE",
"822 62 OFFCURVE",
"815 73 CURVE",
"822 85 OFFCURVE",
"919 180 OFFCURVE",
"919 283 CURVE SMOOTH",
"919 485 OFFCURVE",
"726 619 OFFCURVE",
"506 619 CURVE SMOOTH",
"391 619 OFFCURVE",
"252 588 OFFCURVE",
"229 485 CURVE",
"120 485 OFFCURVE",
"50 411 OFFCURVE",
"50 337 CURVE SMOOTH",
"50 249 OFFCURVE",
"136 192 OFFCURVE",
"180 192 CURVE",
"235 289 LINE",
"200 284 OFFCURVE",
"167 302 OFFCURVE",
"167 339 CURVE SMOOTH",
"167 381 OFFCURVE",
"208 400 OFFCURVE",
"229 402 CURVE SMOOTH",
"257 405 OFFCURVE",
"258 376 OFFCURVE",
"270 376 CURVE SMOOTH",
"287 376 OFFCURVE",
"340 416 OFFCURVE",
"340 430 CURVE SMOOTH",
"340 439 OFFCURVE",
"321 450 OFFCURVE",
"321 461 CURVE SMOOTH",
"321 494 OFFCURVE",
"397 526 OFFCURVE",
"495 526 CURVE SMOOTH"
);
},
{
closed = 1;
nodes = (
"429 316 OFFCURVE",
"371 205 OFFCURVE",
"371 125 CURVE SMOOTH",
"371 45 OFFCURVE",
"417 -4 OFFCURVE",
"497 -4 CURVE SMOOTH",
"591 -4 OFFCURVE",
"683 76 OFFCURVE",
"683 176 CURVE SMOOTH",
"683 265 OFFCURVE",
"622 316 OFFCURVE",
"544 316 CURVE SMOOTH"
);
},
{
closed = 1;
nodes = (
"572 235 OFFCURVE",
"588 180 OFFCURVE",
"588 143 CURVE SMOOTH",
"588 97 OFFCURVE",
"547 72 OFFCURVE",
"511 72 CURVE SMOOTH",
"470 72 OFFCURVE",
"455 128 OFFCURVE",
"455 165 CURVE SMOOTH",
"455 210 OFFCURVE",
"495 235 OFFCURVE",
"531 235 CURVE SMOOTH"
);
}
);
width = 959;
}
);
unicode = 0B08;
},
{
glyphname = "u-oriya";
lastChange = "2021-08-24 05:15:42 +0000";
layers = (
{
layerId = "555B79C6-6D98-46E7-9307-77C37975E414";
paths = (
{
closed = 1;
nodes = (
"342 262 OFFCURVE",
"413 256 OFFCURVE",
"413 177 CURVE SMOOTH",
"413 136 OFFCURVE",
"364 96 OFFCURVE",
"311 95 CURVE SMOOTH",
"234 94 OFFCURVE",
"217 159 OFFCURVE",
"217 191 CURVE SMOOTH",
"217 239 OFFCURVE",
"250 276 OFFCURVE",
"250 282 CURVE SMOOTH",
"250 287 OFFCURVE",
"246 289 OFFCURVE",
"231 290 CURVE SMOOTH",
"215 291 OFFCURVE",
"99 247 OFFCURVE",
"100 151 CURVE SMOOTH",
"101 84 OFFCURVE",
"157 -21 OFFCURVE",
"309 -20 CURVE SMOOTH",
"401 -19 OFFCURVE",
"536 37 OFFCURVE",
"536 173 CURVE SMOOTH",
"536 264 OFFCURVE",
"481 274 OFFCURVE",
"481 290 CURVE SMOOTH",
"481 297 OFFCURVE",
"512 355 OFFCURVE",
"541 355 CURVE SMOOTH",
"552 355 OFFCURVE",
"570 326 OFFCURVE",
"578 326 CURVE SMOOTH",
"582 326 OFFCURVE",
"587 328 OFFCURVE",
"588 334 CURVE SMOOTH",
"589 342 OFFCURVE",
"589 370 OFFCURVE",
"576 392 CURVE SMOOTH",
"561 417 OFFCURVE",
"515 447 OFFCURVE",
"493 447 CURVE SMOOTH",
"442 447 OFFCURVE",
"342 322 OFFCURVE",
"342 279 CURVE SMOOTH"
);
},
{
closed = 1;
nodes = (
"717 78 OFFCURVE",
"852 179 OFFCURVE",
"852 393 CURVE SMOOTH",
"852 609 OFFCURVE",
"669 710 OFFCURVE",
"458 710 CURVE SMOOTH",
"195 710 OFFCURVE",
"28 510 OFFCURVE",
"28 359 CURVE SMOOTH",
"28 265 OFFCURVE",
"89 189 OFFCURVE",
"170 149 CURVE",
"247 287 LINE",
"247 287 OFFCURVE",
"172 307 OFFCURVE",
"172 386 CURVE SMOOTH",
"172 456 OFFCURVE",
"284 579 OFFCURVE",
"446 582 CURVE SMOOTH",
"574 585 OFFCURVE",
"722 498 OFFCURVE",
"718 314 CURVE SMOOTH",
"715 189 OFFCURVE",
"576 79 OFFCURVE",
"574 58 CURVE SMOOTH",
"572 41 OFFCURVE",
"647 -65 OFFCURVE",
"676 -65 CURVE SMOOTH",
"709 -65 OFFCURVE",
"789 -11 OFFCURVE",
"789 13 CURVE SMOOTH",
"789 17 OFFCURVE",
"788 20 OFFCURVE",
"785 20 CURVE SMOOTH",
"781 20 OFFCURVE",
"767 11 OFFCURVE",
"755 11 CURVE SMOOTH",
"745 11 OFFCURVE",
"717 44 OFFCURVE",
"717 64 CURVE SMOOTH"
);
}
);
width = 893;
},
{
background = {
paths = (
{
closed = 1;
nodes = (
"873 477 OFFCURVE",
"765 671 OFFCURVE",
"539 671 CURVE SMOOTH",
"288 671 OFFCURVE",
"63 527 OFFCURVE",
"63 388 CURVE SMOOTH",
"63 344 OFFCURVE",
"91 292 OFFCURVE",
"138 268 CURVE",
"123 248 OFFCURVE",
"111 221 OFFCURVE",
"111 186 CURVE SMOOTH",
"111 92 OFFCURVE",
"189 -5 OFFCURVE",
"326 -5 CURVE SMOOTH",
"417 -5 OFFCURVE",
"539 40 OFFCURVE",
"539 153 CURVE SMOOTH",
"539 243 OFFCURVE",
"488 259 OFFCURVE",
"488 274 CURVE SMOOTH",
"488 281 OFFCURVE",
"541 346 OFFCURVE",
"570 344 CURVE SMOOTH",
"589 343 OFFCURVE",
"599 311 OFFCURVE",
"607 311 CURVE SMOOTH",
"611 311 OFFCURVE",
"612 313 OFFCURVE",
"613 319 CURVE SMOOTH",
"614 327 OFFCURVE",
"612 349 OFFCURVE",
"599 371 CURVE SMOOTH",
"587 391 OFFCURVE",
"553 413 OFFCURVE",
"531 415 CURVE SMOOTH",
"494 418 OFFCURVE",
"392 315 OFFCURVE",
"387 272 CURVE SMOOTH",
"385 255 OFFCURVE",
"442 244 OFFCURVE",
"442 165 CURVE SMOOTH",
"442 115 OFFCURVE",
"388 79 OFFCURVE",
"333 79 CURVE SMOOTH",
"233 79 OFFCURVE",
"203 155 OFFCURVE",
"203 182 CURVE SMOOTH",
"203 226 OFFCURVE",
"226 247 OFFCURVE",
"278 247 CURVE SMOOTH",
"291 247 OFFCURVE",
"293 308 OFFCURVE",
"279 308 CURVE SMOOTH",
"220 308 OFFCURVE",
"183 328 OFFCURVE",
"183 389 CURVE SMOOTH",
"183 484 OFFCURVE",
"321 581 OFFCURVE",
"520 581 CURVE SMOOTH",
"655 581 OFFCURVE",
"767 421 OFFCURVE",
"766 306 CURVE SMOOTH",
"764 174 OFFCURVE",
"619 74 OFFCURVE",
"617 53 CURVE SMOOTH",
"615 36 OFFCURVE",
"674 -57 OFFCURVE",
"703 -57 CURVE SMOOTH",
"739 -57 OFFCURVE",
"797 -19 OFFCURVE",
"797 0 CURVE SMOOTH",
"797 4 OFFCURVE",
"796 7 OFFCURVE",
"793 7 CURVE SMOOTH",
"789 7 OFFCURVE",
"782 1 OFFCURVE",
"770 1 CURVE SMOOTH",
"760 1 OFFCURVE",
"732 36 OFFCURVE",
"732 56 CURVE SMOOTH",
"732 70 OFFCURVE",
"873 165 OFFCURVE",
"873 336 CURVE SMOOTH"
);
},
{
closed = 1;
nodes = (
"347 253 OFFCURVE",
"405 214 OFFCURVE",
"405 158 CURVE SMOOTH",
"405 108 OFFCURVE",
"352 84 OFFCURVE",
"264 84 CURVE SMOOTH",
"206 84 OFFCURVE",
"177 103 OFFCURVE",
"177 136 CURVE SMOOTH",
"177 207 OFFCURVE",
"281 249 OFFCURVE",
"281 265 CURVE SMOOTH",
"281 280 OFFCURVE",
"271 321 OFFCURVE",
"258 321 CURVE SMOOTH",
"240 321 OFFCURVE",
"57 254 OFFCURVE",
"58 135 CURVE SMOOTH",
"59 67 OFFCURVE",
"111 -8 OFFCURVE",
"261 -7 CURVE SMOOTH",
"408 -6 OFFCURVE",
"509 63 OFFCURVE",
"509 154 CURVE SMOOTH",
"509 222 OFFCURVE",
"445 273 OFFCURVE",
"441 275 CURVE",
"454 292 OFFCURVE",
"496 313 OFFCURVE",
"509 313 CURVE SMOOTH",
"520 313 OFFCURVE",
"526 299 OFFCURVE",
"533 299 CURVE SMOOTH",
"536 299 OFFCURVE",
"538 302 OFFCURVE",
"538 308 CURVE SMOOTH",
"538 346 OFFCURVE",
"507 403 OFFCURVE",
"481 403 CURVE SMOOTH",
"440 403 OFFCURVE",
"347 318 OFFCURVE",
"347 274 CURVE SMOOTH"
);
},
{
closed = 1;
nodes = (
"659 85 OFFCURVE",
"796 186 OFFCURVE",
"796 337 CURVE SMOOTH",
"796 513 OFFCURVE",
"619 617 OFFCURVE",
"440 617 CURVE SMOOTH",
"251 617 OFFCURVE",
"80 505 OFFCURVE",
"80 368 CURVE SMOOTH",
"80 295 OFFCURVE",
"162 231 OFFCURVE",
"198 231 CURVE",
"258 321 LINE",
"220 321 OFFCURVE",
"199 342 OFFCURVE",
"199 377 CURVE SMOOTH",
"199 451 OFFCURVE",
"298 526 OFFCURVE",
"429 526 CURVE SMOOTH",
"562 526 OFFCURVE",
"680 441 OFFCURVE",
"677 313 CURVE SMOOTH",
"674 188 OFFCURVE",
"550 113 OFFCURVE",
"550 88 CURVE SMOOTH",
"550 66 OFFCURVE",
"613 -39 OFFCURVE",
"652 -39 CURVE SMOOTH",
"674 -39 OFFCURVE",
"729 7 OFFCURVE",
"729 37 CURVE SMOOTH",
"729 42 OFFCURVE",
"728 45 OFFCURVE",
"725 45 CURVE SMOOTH",
"721 45 OFFCURVE",
"711 35 OFFCURVE",
"706 35 CURVE SMOOTH",
"697 35 OFFCURVE",
"659 62 OFFCURVE",
"652 73 CURVE"
);
}
);
};
layerId = "9F2BC935-6AE7-4E60-84C9-D3B586669EA4";
paths = (
{
closed = 1;
nodes = (
"347 253 OFFCURVE",
"405 214 OFFCURVE",
"405 158 CURVE SMOOTH",
"405 108 OFFCURVE",
"352 84 OFFCURVE",
"270 84 CURVE SMOOTH",
"210 84 OFFCURVE",
"177 103 OFFCURVE",
"177 142 CURVE SMOOTH",
"177 203 OFFCURVE",
"283 244 OFFCURVE",
"283 260 CURVE SMOOTH",
"283 275 OFFCURVE",
"271 321 OFFCURVE",
"258 321 CURVE SMOOTH",
"240 321 OFFCURVE",
"57 254 OFFCURVE",
"58 135 CURVE SMOOTH",
"59 67 OFFCURVE",
"111 -8 OFFCURVE",
"261 -7 CURVE SMOOTH",
"408 -6 OFFCURVE",
"509 63 OFFCURVE",
"509 154 CURVE SMOOTH",
"509 222 OFFCURVE",
"445 273 OFFCURVE",
"441 275 CURVE",
"454 292 OFFCURVE",
"496 313 OFFCURVE",
"509 313 CURVE SMOOTH",
"520 313 OFFCURVE",
"526 299 OFFCURVE",
"533 299 CURVE SMOOTH",
"536 299 OFFCURVE",
"538 302 OFFCURVE",
"538 308 CURVE SMOOTH",
"538 346 OFFCURVE",
"507 403 OFFCURVE",
"481 403 CURVE SMOOTH",
"440 403 OFFCURVE",
"347 318 OFFCURVE",
"347 274 CURVE SMOOTH"
);
},
{
closed = 1;
nodes = (
"659 85 OFFCURVE",
"796 186 OFFCURVE",
"796 337 CURVE SMOOTH",
"796 513 OFFCURVE",
"619 617 OFFCURVE",
"440 617 CURVE SMOOTH",
"251 617 OFFCURVE",
"80 505 OFFCURVE",
"80 371 CURVE SMOOTH",
"80 288 OFFCURVE",
"160 231 OFFCURVE",
"196 231 CURVE",
"258 321 LINE",
"220 321 OFFCURVE",
"199 346 OFFCURVE",
"199 377 CURVE SMOOTH",
"199 449 OFFCURVE",
"298 526 OFFCURVE",
"429 526 CURVE SMOOTH",
"562 526 OFFCURVE",
"680 441 OFFCURVE",
"677 313 CURVE SMOOTH",
"674 188 OFFCURVE",
"550 113 OFFCURVE",
"550 88 CURVE SMOOTH",
"550 66 OFFCURVE",
"613 -39 OFFCURVE",
"652 -39 CURVE SMOOTH",
"674 -39 OFFCURVE",
"729 7 OFFCURVE",
"729 37 CURVE SMOOTH",
"729 42 OFFCURVE",
"728 45 OFFCURVE",
"725 45 CURVE SMOOTH",
"721 45 OFFCURVE",
"711 35 OFFCURVE",
"706 35 CURVE SMOOTH",
"697 35 OFFCURVE",
"659 62 OFFCURVE",
"652 73 CURVE"
);
}
);
width = 836;
}
);
unicode = 0B09;
},
{
glyphname = "uu-oriya";
lastChange = "2021-08-24 04:45:57 +0000";
layers = (
{
layerId = "555B79C6-6D98-46E7-9307-77C37975E414";
paths = (
{
closed = 1;
nodes = (
"342 262 OFFCURVE",
"413 256 OFFCURVE",
"413 177 CURVE SMOOTH",
"413 136 OFFCURVE",
"364 96 OFFCURVE",
"311 95 CURVE SMOOTH",
"234 94 OFFCURVE",
"217 159 OFFCURVE",
"217 191 CURVE SMOOTH",
"217 239 OFFCURVE",
"250 276 OFFCURVE",
"250 282 CURVE SMOOTH",
"250 287 OFFCURVE",
"246 289 OFFCURVE",
"231 290 CURVE SMOOTH",
"215 291 OFFCURVE",
"99 247 OFFCURVE",
"100 151 CURVE SMOOTH",
"101 84 OFFCURVE",
"157 -21 OFFCURVE",
"309 -20 CURVE SMOOTH",
"401 -19 OFFCURVE",
"536 37 OFFCURVE",
"536 173 CURVE SMOOTH",
"536 264 OFFCURVE",
"481 274 OFFCURVE",
"481 290 CURVE SMOOTH",
"481 297 OFFCURVE",
"512 355 OFFCURVE",
"541 355 CURVE SMOOTH",
"552 355 OFFCURVE",
"570 326 OFFCURVE",
"578 326 CURVE SMOOTH",
"582 326 OFFCURVE",
"587 328 OFFCURVE",
"588 334 CURVE SMOOTH",
"589 342 OFFCURVE",
"589 370 OFFCURVE",
"576 392 CURVE SMOOTH",
"561 417 OFFCURVE",
"515 447 OFFCURVE",
"493 447 CURVE SMOOTH",
"442 447 OFFCURVE",
"342 321 OFFCURVE",
"342 279 CURVE SMOOTH"
);
},
{
closed = 1;
nodes = (
"172 456 OFFCURVE",
"284 579 OFFCURVE",
"446 582 CURVE SMOOTH",
"574 585 OFFCURVE",
"709 489 OFFCURVE",
"709 412 CURVE SMOOTH",
"709 289 OFFCURVE",
"600 288 OFFCURVE",
"600 239 CURVE SMOOTH",
"600 232 OFFCURVE",
"599 226 OFFCURVE",
"607 225 CURVE SMOOTH",
"614 224 OFFCURVE",
"656 236 OFFCURVE",
"676 234 CURVE SMOOTH",
"702 231 OFFCURVE",
"714 216 OFFCURVE",
"714 193 CURVE SMOOTH",
"714 159 OFFCURVE",
"604 78 OFFCURVE",
"604 60 CURVE SMOOTH",
"604 43 OFFCURVE",
"676 -63 OFFCURVE",
"705 -63 CURVE SMOOTH",
"738 -63 OFFCURVE",
"818 -9 OFFCURVE",
"818 15 CURVE SMOOTH",
"818 19 OFFCURVE",
"817 22 OFFCURVE",
"814 22 CURVE SMOOTH",
"810 22 OFFCURVE",
"796 13 OFFCURVE",
"784 13 CURVE SMOOTH",
"774 13 OFFCURVE",
"746 49 OFFCURVE",
"746 63 CURVE SMOOTH",
"746 78 OFFCURVE",
"848 134 OFFCURVE",
"848 190 CURVE SMOOTH",
"848 233 OFFCURVE",
"817 278 OFFCURVE",
"787 288 CURVE",
"802 304 OFFCURVE",
"850 369 OFFCURVE",
"850 442 CURVE SMOOTH",
"850 605 OFFCURVE",
"669 710 OFFCURVE",
"458 710 CURVE SMOOTH",
"195 710 OFFCURVE",
"28 510 OFFCURVE",
"28 359 CURVE SMOOTH",
"28 265 OFFCURVE",
"89 189 OFFCURVE",
"170 149 CURVE",
"247 287 LINE",
"247 287 OFFCURVE",
"172 307 OFFCURVE",
"172 386 CURVE SMOOTH"
);
}
);
width = 880;
},
{
background = {
paths = (
{
closed = 1;
nodes = (
"339 253 OFFCURVE",
"397 214 OFFCURVE",
"397 158 CURVE SMOOTH",
"397 108 OFFCURVE",
"344 84 OFFCURVE",
"256 84 CURVE SMOOTH",
"198 84 OFFCURVE",
"169 103 OFFCURVE",
"169 136 CURVE SMOOTH",
"169 207 OFFCURVE",
"273 249 OFFCURVE",
"273 265 CURVE SMOOTH",
"273 280 OFFCURVE",
"263 321 OFFCURVE",
"250 321 CURVE SMOOTH",
"232 321 OFFCURVE",
"49 254 OFFCURVE",
"50 135 CURVE SMOOTH",
"51 67 OFFCURVE",
"103 -8 OFFCURVE",
"253 -7 CURVE SMOOTH",
"400 -6 OFFCURVE",
"501 63 OFFCURVE",
"501 154 CURVE SMOOTH",
"501 221 OFFCURVE",
"437 272 OFFCURVE",
"433 275 CURVE",
"446 292 OFFCURVE",
"488 313 OFFCURVE",
"501 313 CURVE SMOOTH",
"512 313 OFFCURVE",
"518 299 OFFCURVE",
"525 299 CURVE SMOOTH",
"528 299 OFFCURVE",
"530 302 OFFCURVE",
"530 308 CURVE SMOOTH",
"530 346 OFFCURVE",
"499 403 OFFCURVE",
"473 403 CURVE SMOOTH",
"431 403 OFFCURVE",
"339 318 OFFCURVE",
"339 274 CURVE SMOOTH"
);
},
{
closed = 1;
nodes = (
"687 83 OFFCURVE",
"785 134 OFFCURVE",
"785 184 CURVE SMOOTH",
"785 205 OFFCURVE",
"774 237 OFFCURVE",
"738 257 CURVE",
"767 276 OFFCURVE",
"788 302 OFFCURVE",
"788 350 CURVE SMOOTH",
"788 513 OFFCURVE",
"611 617 OFFCURVE",
"432 617 CURVE SMOOTH",
"243 617 OFFCURVE",
"72 505 OFFCURVE",
"72 368 CURVE SMOOTH",
"72 295 OFFCURVE",
"154 231 OFFCURVE",
"190 231 CURVE",
"250 321 LINE",
"212 321 OFFCURVE",
"191 342 OFFCURVE",
"191 377 CURVE SMOOTH",
"191 450 OFFCURVE",
"290 526 OFFCURVE",
"421 526 CURVE SMOOTH",
"554 526 OFFCURVE",
"673 441 OFFCURVE",
"671 339 CURVE SMOOTH",
"670 283 OFFCURVE",
"588 267 OFFCURVE",
"588 240 CURVE SMOOTH",
"588 236 OFFCURVE",
"587 229 OFFCURVE",
"594 228 CURVE SMOOTH",
"599 227 OFFCURVE",
"622 237 OFFCURVE",
"638 236 CURVE SMOOTH",
"660 235 OFFCURVE",
"672 210 OFFCURVE",
"672 192 CURVE SMOOTH",
"672 165 OFFCURVE",
"585 100 OFFCURVE",
"585 86 CURVE SMOOTH",
"585 64 OFFCURVE",
"648 -41 OFFCURVE",
"687 -41 CURVE SMOOTH",
"719 -41 OFFCURVE",
"767 15 OFFCURVE",
"767 37 CURVE SMOOTH",
"767 40 OFFCURVE",
"766 42 OFFCURVE",
"764 42 CURVE SMOOTH",
"760 42 OFFCURVE",
"752 33 OFFCURVE",
"741 33 CURVE SMOOTH",
"732 33 OFFCURVE",
"694 58 OFFCURVE",
"687 71 CURVE"
);
},
{
closed = 0;
nodes = (
"752 88 LINE",
"752 66 OFFCURVE",
"815 -39 OFFCURVE",
"854 -39 CURVE SMOOTH",
"876 -39 OFFCURVE",
"931 7 OFFCURVE",
"931 37 CURVE SMOOTH",
"931 42 OFFCURVE",
"930 45 OFFCURVE",
"927 45 CURVE SMOOTH",
"923 45 OFFCURVE",
"913 35 OFFCURVE",
"908 35 CURVE SMOOTH",
"899 35 OFFCURVE",
"861 62 OFFCURVE",
"854 73 CURVE"
);
}
);
};
layerId = "9F2BC935-6AE7-4E60-84C9-D3B586669EA4";
paths = (
{
closed = 1;
nodes = (
"691 76 OFFCURVE",
"785 138 OFFCURVE",
"785 184 CURVE SMOOTH",
"785 205 OFFCURVE",
"774 237 OFFCURVE",
"738 257 CURVE",
"767 276 OFFCURVE",
"788 302 OFFCURVE",
"788 350 CURVE SMOOTH",
"788 513 OFFCURVE",
"611 617 OFFCURVE",
"432 617 CURVE SMOOTH",
"243 617 OFFCURVE",
"72 505 OFFCURVE",
"72 371 CURVE SMOOTH",
"72 288 OFFCURVE",
"152 234 OFFCURVE",
"188 234 CURVE",
"250 321 LINE",
"212 321 OFFCURVE",
"191 346 OFFCURVE",
"191 377 CURVE SMOOTH",
"191 450 OFFCURVE",
"290 526 OFFCURVE",
"421 526 CURVE SMOOTH",
"563 526 OFFCURVE",
"671 441 OFFCURVE",
"671 341 CURVE SMOOTH",
"671 283 OFFCURVE",
"588 267 OFFCURVE",
"588 239 CURVE SMOOTH",
"588 233 OFFCURVE",
"592 228 OFFCURVE",
"598 228 CURVE SMOOTH",
"606 228 OFFCURVE",
"624 236 OFFCURVE",
"638 236 CURVE SMOOTH",
"661 236 OFFCURVE",
"672 210 OFFCURVE",
"672 192 CURVE SMOOTH",
"672 159 OFFCURVE",
"585 103 OFFCURVE",
"585 86 CURVE SMOOTH",
"585 64 OFFCURVE",
"648 -41 OFFCURVE",
"687 -41 CURVE SMOOTH",
"719 -41 OFFCURVE",
"764 13 OFFCURVE",
"764 35 CURVE SMOOTH",
"764 40 OFFCURVE",
"763 43 OFFCURVE",
"760 43 CURVE SMOOTH",
"756 43 OFFCURVE",
"746 33 OFFCURVE",
"741 33 CURVE SMOOTH",
"732 33 OFFCURVE",
"694 60 OFFCURVE",
"687 71 CURVE"
);
},
{
closed = 1;
nodes = (
"339 253 OFFCURVE",
"397 214 OFFCURVE",
"397 158 CURVE SMOOTH",
"397 108 OFFCURVE",
"344 84 OFFCURVE",
"262 84 CURVE SMOOTH",
"202 84 OFFCURVE",
"169 103 OFFCURVE",
"169 142 CURVE SMOOTH",
"169 203 OFFCURVE",
"275 244 OFFCURVE",
"275 260 CURVE SMOOTH",
"275 275 OFFCURVE",
"263 321 OFFCURVE",
"250 321 CURVE SMOOTH",
"232 321 OFFCURVE",
"49 254 OFFCURVE",
"50 135 CURVE SMOOTH",
"51 67 OFFCURVE",
"103 -8 OFFCURVE",
"253 -7 CURVE SMOOTH",
"400 -6 OFFCURVE",
"501 63 OFFCURVE",
"501 154 CURVE SMOOTH",
"501 222 OFFCURVE",
"437 273 OFFCURVE",
"433 275 CURVE",
"446 292 OFFCURVE",
"488 313 OFFCURVE",
"501 313 CURVE SMOOTH",
"512 313 OFFCURVE",
"518 299 OFFCURVE",
"525 299 CURVE SMOOTH",
"528 299 OFFCURVE",
"530 302 OFFCURVE",
"530 308 CURVE SMOOTH",
"530 346 OFFCURVE",
"499 403 OFFCURVE",
"473 403 CURVE SMOOTH",
"432 403 OFFCURVE",
"339 318 OFFCURVE",
"339 274 CURVE SMOOTH"
);
}
);
width = 828;
}
);
unicode = 0B0A;
},
{
glyphname = "rVocalic-oriya";
lastChange = "2021-08-24 04:46:35 +0000";
layers = (
{
layerId = "555B79C6-6D98-46E7-9307-77C37975E414";
paths = (
{
closed = 1;
nodes = (
"172 456 OFFCURVE",
"284 579 OFFCURVE",
"446 582 CURVE SMOOTH",
"574 585 OFFCURVE",
"709 489 OFFCURVE",
"709 412 CURVE SMOOTH",
"709 289 OFFCURVE",
"600 288 OFFCURVE",
"600 239 CURVE SMOOTH",
"600 232 OFFCURVE",
"599 226 OFFCURVE",
"607 225 CURVE SMOOTH",
"614 224 OFFCURVE",
"656 236 OFFCURVE",
"676 234 CURVE SMOOTH",
"702 231 OFFCURVE",
"714 216 OFFCURVE",
"714 193 CURVE SMOOTH",
"714 159 OFFCURVE",
"604 78 OFFCURVE",
"604 60 CURVE SMOOTH",
"604 43 OFFCURVE",
"676 -63 OFFCURVE",
"705 -63 CURVE SMOOTH",
"738 -63 OFFCURVE",
"818 -9 OFFCURVE",
"818 15 CURVE SMOOTH",
"818 19 OFFCURVE",
"817 22 OFFCURVE",
"814 22 CURVE SMOOTH",
"810 22 OFFCURVE",
"796 13 OFFCURVE",
"784 13 CURVE SMOOTH",
"774 13 OFFCURVE",
"746 49 OFFCURVE",
"746 63 CURVE SMOOTH",
"746 78 OFFCURVE",
"848 134 OFFCURVE",
"848 190 CURVE SMOOTH",
"848 233 OFFCURVE",
"817 278 OFFCURVE",
"787 288 CURVE",
"802 304 OFFCURVE",
"850 369 OFFCURVE",
"850 442 CURVE SMOOTH",
"850 605 OFFCURVE",
"669 710 OFFCURVE",
"458 710 CURVE SMOOTH",
"195 710 OFFCURVE",
"28 510 OFFCURVE",
"28 359 CURVE SMOOTH",
"28 265 OFFCURVE",
"89 189 OFFCURVE",
"170 149 CURVE",
"247 287 LINE",
"247 287 OFFCURVE",
"172 307 OFFCURVE",
"172 380 CURVE SMOOTH"
);
},
{
closed = 1;
nodes = (
"405 266 OFFCURVE",
"435 233 OFFCURVE",
"435 171 CURVE SMOOTH",
"435 129 OFFCURVE",
"408 100 OFFCURVE",
"369 100 CURVE SMOOTH",
"320 100 OFFCURVE",
"305 153 OFFCURVE",
"305 199 CURVE SMOOTH",
"305 246 OFFCURVE",
"332 266 OFFCURVE",
"368 266 CURVE SMOOTH"
);
},
{
closed = 1;
nodes = (
"162 76 OFFCURVE",
"236 -22 OFFCURVE",
"346 -22 CURVE SMOOTH",
"460 -22 OFFCURVE",
"560 81 OFFCURVE",
"560 193 CURVE SMOOTH",
"560 322 OFFCURVE",
"477 383 OFFCURVE",
"395 383 CURVE SMOOTH",
"274 383 OFFCURVE",
"162 293 OFFCURVE",
"162 174 CURVE SMOOTH"
);
}
);
width = 880;
},
{
background = {
paths = (
{
closed = 1;
nodes = (
"665 83 OFFCURVE",
"763 134 OFFCURVE",
"763 184 CURVE SMOOTH",
"763 205 OFFCURVE",
"752 237 OFFCURVE",
"716 257 CURVE",
"745 276 OFFCURVE",
"766 302 OFFCURVE",
"766 350 CURVE SMOOTH",
"766 513 OFFCURVE",
"589 617 OFFCURVE",
"410 617 CURVE SMOOTH",
"221 617 OFFCURVE",
"50 505 OFFCURVE",
"50 368 CURVE SMOOTH",
"50 295 OFFCURVE",
"132 231 OFFCURVE",
"168 231 CURVE",
"228 321 LINE",
"190 321 OFFCURVE",
"169 342 OFFCURVE",
"169 377 CURVE SMOOTH",
"169 450 OFFCURVE",
"268 526 OFFCURVE",
"399 526 CURVE SMOOTH",
"532 526 OFFCURVE",
"651 442 OFFCURVE",
"649 339 CURVE SMOOTH",
"648 283 OFFCURVE",
"566 267 OFFCURVE",
"566 240 CURVE SMOOTH",
"566 236 OFFCURVE",
"565 229 OFFCURVE",
"572 228 CURVE SMOOTH",
"577 227 OFFCURVE",
"600 237 OFFCURVE",
"616 236 CURVE SMOOTH",
"638 235 OFFCURVE",
"650 210 OFFCURVE",
"650 192 CURVE SMOOTH",
"650 165 OFFCURVE",
"563 100 OFFCURVE",
"563 86 CURVE SMOOTH",
"563 64 OFFCURVE",
"626 -41 OFFCURVE",
"665 -41 CURVE SMOOTH",
"697 -41 OFFCURVE",
"745 15 OFFCURVE",
"745 37 CURVE SMOOTH",
"745 40 OFFCURVE",
"744 42 OFFCURVE",
"742 42 CURVE SMOOTH",
"738 42 OFFCURVE",
"730 33 OFFCURVE",
"719 33 CURVE SMOOTH",
"710 33 OFFCURVE",
"672 58 OFFCURVE",
"665 71 CURVE"
);
},
{
closed = 1;
nodes = (
"185 342 OFFCURVE",
"122 222 OFFCURVE",
"122 135 CURVE SMOOTH",
"122 49 OFFCURVE",
"172 -4 OFFCURVE",
"258 -4 CURVE SMOOTH",
"360 -4 OFFCURVE",
"459 82 OFFCURVE",
"459 190 CURVE SMOOTH",
"459 286 OFFCURVE",
"394 342 OFFCURVE",
"309 342 CURVE SMOOTH"
);
},
{
closed = 1;
nodes = (
"340 254 OFFCURVE",
"357 195 OFFCURVE",
"357 155 CURVE SMOOTH",
"357 105 OFFCURVE",
"312 78 OFFCURVE",
"274 78 CURVE SMOOTH",
"229 78 OFFCURVE",
"213 139 OFFCURVE",
"213 178 CURVE SMOOTH",
"213 227 OFFCURVE",
"256 254 OFFCURVE",
"295 254 CURVE SMOOTH"
);
},
{
closed = 1;
nodes = (
"635 83 OFFCURVE",
"733 134 OFFCURVE",
"733 184 CURVE SMOOTH",
"733 205 OFFCURVE",
"722 237 OFFCURVE",
"686 257 CURVE",
"715 276 OFFCURVE",
"746 310 OFFCURVE",
"746 367 CURVE SMOOTH",
"746 513 OFFCURVE",
"589 617 OFFCURVE",
"410 617 CURVE SMOOTH",
"221 617 OFFCURVE",
"50 505 OFFCURVE",
"50 368 CURVE SMOOTH",
"50 295 OFFCURVE",
"132 231 OFFCURVE",
"168 231 CURVE",
"228 321 LINE",
"190 321 OFFCURVE",
"169 342 OFFCURVE",
"169 377 CURVE SMOOTH",
"169 450 OFFCURVE",
"268 526 OFFCURVE",
"399 526 CURVE SMOOTH",
"532 526 OFFCURVE",
"633 442 OFFCURVE",
"631 348 CURVE SMOOTH",
"630 283 OFFCURVE",
"536 267 OFFCURVE",
"536 240 CURVE SMOOTH",
"536 236 OFFCURVE",
"535 229 OFFCURVE",
"542 228 CURVE SMOOTH",
"547 227 OFFCURVE",
"570 237 OFFCURVE",
"586 236 CURVE SMOOTH",
"608 235 OFFCURVE",
"620 210 OFFCURVE",
"620 192 CURVE SMOOTH",
"620 165 OFFCURVE",
"533 100 OFFCURVE",
"533 86 CURVE SMOOTH",
"533 64 OFFCURVE",
"596 -41 OFFCURVE",
"635 -41 CURVE SMOOTH",
"667 -41 OFFCURVE",
"712 13 OFFCURVE",
"712 35 CURVE SMOOTH",
"712 40 OFFCURVE",
"711 43 OFFCURVE",
"708 43 CURVE SMOOTH",
"704 43 OFFCURVE",
"694 33 OFFCURVE",
"689 33 CURVE SMOOTH",
"680 33 OFFCURVE",
"642 60 OFFCURVE",
"635 71 CURVE"
);
}
);
};
layerId = "9F2BC935-6AE7-4E60-84C9-D3B586669EA4";
paths = (
{
closed = 1;
nodes = (
"187 356 OFFCURVE",
"122 231 OFFCURVE",
"122 140 CURVE SMOOTH",
"122 51 OFFCURVE",
"174 -4 OFFCURVE",
"263 -4 CURVE SMOOTH",
"369 -4 OFFCURVE",
"472 85 OFFCURVE",
"472 198 CURVE SMOOTH",
"472 296 OFFCURVE",
"405 356 OFFCURVE",
"316 356 CURVE SMOOTH"
);
},
{
closed = 1;
nodes = (
"347 264 OFFCURVE",
"366 203 OFFCURVE",
"366 161 CURVE SMOOTH",
"366 109 OFFCURVE",
"320 81 OFFCURVE",
"280 81 CURVE SMOOTH",
"233 81 OFFCURVE",
"217 145 OFFCURVE",
"217 185 CURVE SMOOTH",
"217 236 OFFCURVE",
"261 264 OFFCURVE",
"302 264 CURVE SMOOTH"
);
},
{
closed = 1;
nodes = (
"639 76 OFFCURVE",
"733 138 OFFCURVE",
"733 184 CURVE SMOOTH",
"733 205 OFFCURVE",
"722 237 OFFCURVE",
"686 257 CURVE",
"715 276 OFFCURVE",
"746 312 OFFCURVE",
"746 363 CURVE SMOOTH",
"746 515 OFFCURVE",
"589 617 OFFCURVE",
"410 617 CURVE SMOOTH",
"221 617 OFFCURVE",
"50 505 OFFCURVE",
"50 371 CURVE SMOOTH",
"50 288 OFFCURVE",
"131 234 OFFCURVE",
"166 234 CURVE",
"228 321 LINE",
"190 321 OFFCURVE",
"169 346 OFFCURVE",
"169 377 CURVE SMOOTH",
"169 450 OFFCURVE",
"268 526 OFFCURVE",
"399 526 CURVE SMOOTH",
"530 526 OFFCURVE",
"631 446 OFFCURVE",
"631 348 CURVE SMOOTH",
"631 285 OFFCURVE",
"536 267 OFFCURVE",
"536 239 CURVE SMOOTH",
"536 233 OFFCURVE",
"540 228 OFFCURVE",
"546 228 CURVE SMOOTH",
"554 228 OFFCURVE",
"572 236 OFFCURVE",
"586 236 CURVE SMOOTH",
"609 236 OFFCURVE",
"620 210 OFFCURVE",
"620 192 CURVE SMOOTH",
"620 159 OFFCURVE",
"533 103 OFFCURVE",
"533 86 CURVE SMOOTH",
"533 64 OFFCURVE",
"596 -41 OFFCURVE",
"635 -41 CURVE SMOOTH",
"667 -41 OFFCURVE",
"712 13 OFFCURVE",
"712 35 CURVE SMOOTH",
"712 40 OFFCURVE",
"711 43 OFFCURVE",
"708 43 CURVE SMOOTH",
"704 43 OFFCURVE",
"694 33 OFFCURVE",
"689 33 CURVE SMOOTH",
"680 33 OFFCURVE",
"642 60 OFFCURVE",
"635 71 CURVE"
);
}
);
width = 786;
}
);
unicode = 0B0B;
},
{
glyphname = "rrVocalic-oriya";
lastChange = "2021-08-24 04:47:01 +0000";
layers = (
{
layerId = "555B79C6-6D98-46E7-9307-77C37975E414";
paths = (
{
closed = 1;
nodes = (
"405 266 OFFCURVE",
"435 233 OFFCURVE",
"435 171 CURVE SMOOTH",
"435 129 OFFCURVE",
"408 100 OFFCURVE",
"369 100 CURVE SMOOTH",
"320 100 OFFCURVE",
"305 153 OFFCURVE",
"305 199 CURVE SMOOTH",
"305 246 OFFCURVE",
"332 266 OFFCURVE",
"368 266 CURVE SMOOTH"
);
},
{
closed = 1;
nodes = (
"162 76 OFFCURVE",
"236 -22 OFFCURVE",
"346 -22 CURVE SMOOTH",
"460 -22 OFFCURVE",
"560 81 OFFCURVE",
"560 193 CURVE SMOOTH",
"560 323 OFFCURVE",
"476 383 OFFCURVE",
"395 383 CURVE SMOOTH",
"274 383 OFFCURVE",
"162 293 OFFCURVE",
"162 174 CURVE SMOOTH"
);
},
{
closed = 1;
nodes = (
"753 62 OFFCURVE",
"828 77 OFFCURVE",
"828 120 CURVE SMOOTH",
"828 145 OFFCURVE",
"800 170 OFFCURVE",
"780 176 CURVE",
"816 187 OFFCURVE",
"864 215 OFFCURVE",
"864 256 CURVE SMOOTH",
"864 290 OFFCURVE",
"833 322 OFFCURVE",
"799 338 CURVE",
"811 348 OFFCURVE",
"850 383 OFFCURVE",
"850 442 CURVE SMOOTH",
"850 604 OFFCURVE",
"669 710 OFFCURVE",
"458 710 CURVE SMOOTH",
"195 710 OFFCURVE",
"28 510 OFFCURVE",
"28 359 CURVE SMOOTH",
"28 265 OFFCURVE",
"89 189 OFFCURVE",
"170 149 CURVE",
"247 287 LINE",
"247 287 OFFCURVE",
"172 307 OFFCURVE",
"172 386 CURVE SMOOTH",
"172 456 OFFCURVE",
"284 579 OFFCURVE",
"446 582 CURVE SMOOTH",
"574 585 OFFCURVE",
"708 502 OFFCURVE",
"708 425 CURVE SMOOTH",
"708 368 OFFCURVE",
"616 334 OFFCURVE",
"616 292 CURVE SMOOTH",
"616 284 OFFCURVE",
"619 280 OFFCURVE",
"624 280 CURVE SMOOTH",
"635 280 OFFCURVE",
"658 296 OFFCURVE",
"683 296 CURVE SMOOTH",
"705 296 OFFCURVE",
"727 270 OFFCURVE",
"727 253 CURVE SMOOTH",
"727 233 OFFCURVE",
"602 211 OFFCURVE",
"602 147 CURVE SMOOTH",
"602 135 OFFCURVE",
"606 130 OFFCURVE",
"610 130 CURVE SMOOTH",
"619 130 OFFCURVE",
"648 155 OFFCURVE",
"664 155 CURVE SMOOTH",
"678 155 OFFCURVE",
"697 136 OFFCURVE",
"697 124 CURVE SMOOTH",
"697 108 OFFCURVE",
"604 70 OFFCURVE",
"604 53 CURVE SMOOTH",
"604 37 OFFCURVE",
"676 -63 OFFCURVE",
"705 -63 CURVE SMOOTH",
"738 -63 OFFCURVE",
"818 -9 OFFCURVE",
"818 15 CURVE SMOOTH",
"818 19 OFFCURVE",
"817 22 OFFCURVE",
"814 22 CURVE SMOOTH",
"810 22 OFFCURVE",
"796 13 OFFCURVE",
"784 13 CURVE SMOOTH",
"774 13 OFFCURVE",
"753 36 OFFCURVE",
"753 50 CURVE SMOOTH"
);
}
);
width = 894;
},
{
background = {
paths = (
{
closed = 1;
nodes = (
"175 342 OFFCURVE",
"112 222 OFFCURVE",
"112 135 CURVE SMOOTH",
"112 49 OFFCURVE",
"162 -4 OFFCURVE",
"248 -4 CURVE SMOOTH",
"350 -4 OFFCURVE",
"449 82 OFFCURVE",
"449 190 CURVE SMOOTH",
"449 286 OFFCURVE",
"384 342 OFFCURVE",
"299 342 CURVE SMOOTH"
);
},
{
closed = 1;
nodes = (
"329 254 OFFCURVE",
"347 195 OFFCURVE",
"347 155 CURVE SMOOTH",
"347 105 OFFCURVE",
"302 78 OFFCURVE",
"264 78 CURVE SMOOTH",
"219 78 OFFCURVE",
"203 139 OFFCURVE",
"203 178 CURVE SMOOTH",
"203 227 OFFCURVE",
"246 254 OFFCURVE",
"285 254 CURVE SMOOTH"
);
},
{
closed = 1;
nodes = (
"675 79 OFFCURVE",
"739 102 OFFCURVE",
"739 131 CURVE SMOOTH",
"739 147 OFFCURVE",
"720 163 OFFCURVE",
"707 167 CURVE",
"731 174 OFFCURVE",
"758 193 OFFCURVE",
"758 220 CURVE SMOOTH",
"758 235 OFFCURVE",
"742 263 OFFCURVE",
"720 274 CURVE",
"728 280 OFFCURVE",
"756 317 OFFCURVE",
"756 361 CURVE SMOOTH",
"756 513 OFFCURVE",
"579 617 OFFCURVE",
"400 617 CURVE SMOOTH",
"211 617 OFFCURVE",
"40 505 OFFCURVE",
"40 368 CURVE SMOOTH",
"40 295 OFFCURVE",
"122 231 OFFCURVE",
"158 231 CURVE",
"218 321 LINE",
"180 321 OFFCURVE",
"159 342 OFFCURVE",
"159 377 CURVE SMOOTH",
"159 450 OFFCURVE",
"258 526 OFFCURVE",
"389 526 CURVE SMOOTH",
"522 526 OFFCURVE",
"640 442 OFFCURVE",
"640 344 CURVE SMOOTH",
"640 296 OFFCURVE",
"584 280 OFFCURVE",
"584 253 CURVE SMOOTH",
"584 247 OFFCURVE",
"585 245 OFFCURVE",
"589 245 CURVE SMOOTH",
"596 245 OFFCURVE",
"607 252 OFFCURVE",
"623 252 CURVE SMOOTH",
"635 252 OFFCURVE",
"650 230 OFFCURVE",
"650 219 CURVE SMOOTH",
"650 206 OFFCURVE",
"581 196 OFFCURVE",
"573 162 CURVE SMOOTH",
"571 154 OFFCURVE",
"575 151 OFFCURVE",
"578 151 CURVE SMOOTH",
"584 151 OFFCURVE",
"600 159 OFFCURVE",
"609 159 CURVE SMOOTH",
"623 159 OFFCURVE",
"633 142 OFFCURVE",
"633 135 CURVE SMOOTH",
"633 125 OFFCURVE",
"573 98 OFFCURVE",
"573 86 CURVE SMOOTH",
"573 64 OFFCURVE",
"636 -41 OFFCURVE",
"675 -41 CURVE SMOOTH",
"707 -41 OFFCURVE",
"755 15 OFFCURVE",
"755 37 CURVE SMOOTH",
"755 40 OFFCURVE",
"754 42 OFFCURVE",
"752 42 CURVE SMOOTH",
"748 42 OFFCURVE",
"740 33 OFFCURVE",
"729 33 CURVE SMOOTH",
"720 33 OFFCURVE",
"682 58 OFFCURVE",
"675 71 CURVE"
);
},
{
closed = 1;
nodes = (
"211 617 OFFCURVE",
"50 505 OFFCURVE",
"50 368 CURVE SMOOTH",
"50 295 OFFCURVE",
"131 234 OFFCURVE",
"166 234 CURVE",
"228 321 LINE",
"190 321 OFFCURVE",
"169 346 OFFCURVE",
"169 377 CURVE SMOOTH",
"169 450 OFFCURVE",
"268 526 OFFCURVE",
"399 526 CURVE SMOOTH",
"522 526 OFFCURVE",
"630 442 OFFCURVE",
"630 352 CURVE SMOOTH",
"630 296 OFFCURVE",
"564 280 OFFCURVE",
"564 253 CURVE SMOOTH",
"564 247 OFFCURVE",
"565 245 OFFCURVE",
"569 245 CURVE SMOOTH",
"576 245 OFFCURVE",
"587 252 OFFCURVE",
"603 252 CURVE SMOOTH",
"615 252 OFFCURVE",
"630 230 OFFCURVE",
"630 219 CURVE SMOOTH",
"630 206 OFFCURVE",
"561 196 OFFCURVE",
"553 162 CURVE SMOOTH",
"551 154 OFFCURVE",
"555 151 OFFCURVE",
"558 151 CURVE SMOOTH",
"564 151 OFFCURVE",
"580 159 OFFCURVE",
"589 159 CURVE SMOOTH",
"603 159 OFFCURVE",
"613 142 OFFCURVE",
"613 135 CURVE SMOOTH",
"613 125 OFFCURVE",
"553 98 OFFCURVE",
"553 86 CURVE SMOOTH",
"553 64 OFFCURVE",
"616 -41 OFFCURVE",
"655 -41 CURVE SMOOTH",
"677 -41 OFFCURVE",
"732 5 OFFCURVE",
"732 35 CURVE SMOOTH",
"732 40 OFFCURVE",
"731 43 OFFCURVE",
"728 43 CURVE SMOOTH",
"724 43 OFFCURVE",
"714 33 OFFCURVE",
"709 33 CURVE SMOOTH",
"700 33 OFFCURVE",
"662 60 OFFCURVE",
"655 71 CURVE",
"655 79 OFFCURVE",
"719 102 OFFCURVE",
"719 131 CURVE SMOOTH",
"719 147 OFFCURVE",
"700 163 OFFCURVE",
"687 167 CURVE",
"711 174 OFFCURVE",
"738 193 OFFCURVE",
"738 220 CURVE SMOOTH",
"738 235 OFFCURVE",
"722 263 OFFCURVE",
"700 274 CURVE",
"708 280 OFFCURVE",
"746 317 OFFCURVE",
"746 361 CURVE SMOOTH",
"746 513 OFFCURVE",
"569 617 OFFCURVE",
"400 617 CURVE SMOOTH"
);
},
{
closed = 1;
nodes = (
"187 356 OFFCURVE",
"122 231 OFFCURVE",
"122 140 CURVE SMOOTH",
"122 51 OFFCURVE",
"174 -4 OFFCURVE",
"263 -4 CURVE SMOOTH",
"369 -4 OFFCURVE",
"472 85 OFFCURVE",
"472 198 CURVE SMOOTH",
"472 297 OFFCURVE",
"405 356 OFFCURVE",
"316 356 CURVE SMOOTH"
);
},
{
closed = 1;
nodes = (
"348 264 OFFCURVE",
"366 203 OFFCURVE",
"366 161 CURVE SMOOTH",
"366 109 OFFCURVE",
"320 81 OFFCURVE",
"280 81 CURVE SMOOTH",
"233 81 OFFCURVE",
"217 145 OFFCURVE",
"217 185 CURVE SMOOTH",
"217 236 OFFCURVE",
"261 264 OFFCURVE",
"302 264 CURVE SMOOTH"
);
}
);
};
layerId = "9F2BC935-6AE7-4E60-84C9-D3B586669EA4";
paths = (
{
closed = 1;
nodes = (
"211 617 OFFCURVE",
"50 505 OFFCURVE",
"50 368 CURVE SMOOTH",
"50 295 OFFCURVE",
"131 234 OFFCURVE",
"166 234 CURVE",
"228 321 LINE",
"190 321 OFFCURVE",
"169 346 OFFCURVE",
"169 377 CURVE SMOOTH",
"169 450 OFFCURVE",
"268 526 OFFCURVE",
"399 526 CURVE SMOOTH",
"522 526 OFFCURVE",
"630 442 OFFCURVE",
"630 352 CURVE SMOOTH",
"630 296 OFFCURVE",
"564 280 OFFCURVE",
"564 252 CURVE SMOOTH",
"564 247 OFFCURVE",
"566 245 OFFCURVE",
"570 245 CURVE SMOOTH",
"576 245 OFFCURVE",
"587 252 OFFCURVE",
"603 252 CURVE SMOOTH",
"615 252 OFFCURVE",
"630 230 OFFCURVE",
"630 219 CURVE SMOOTH",
"630 207 OFFCURVE",
"553 192 OFFCURVE",
"553 158 CURVE SMOOTH",
"553 153 OFFCURVE",
"555 151 OFFCURVE",
"558 151 CURVE SMOOTH",
"564 151 OFFCURVE",
"580 159 OFFCURVE",
"589 159 CURVE SMOOTH",
"603 159 OFFCURVE",
"613 142 OFFCURVE",
"613 135 CURVE SMOOTH",
"613 125 OFFCURVE",
"553 98 OFFCURVE",
"553 86 CURVE SMOOTH",
"553 64 OFFCURVE",
"616 -41 OFFCURVE",
"655 -41 CURVE SMOOTH",
"677 -41 OFFCURVE",
"732 5 OFFCURVE",
"732 35 CURVE SMOOTH",
"732 40 OFFCURVE",
"731 43 OFFCURVE",
"728 43 CURVE SMOOTH",
"724 43 OFFCURVE",
"714 33 OFFCURVE",
"709 33 CURVE SMOOTH",
"700 33 OFFCURVE",
"662 60 OFFCURVE",
"655 71 CURVE",
"660 75 OFFCURVE",
"719 102 OFFCURVE",
"719 131 CURVE SMOOTH",
"719 147 OFFCURVE",
"700 163 OFFCURVE",
"687 167 CURVE",
"711 174 OFFCURVE",
"738 196 OFFCURVE",
"738 225 CURVE SMOOTH",
"738 238 OFFCURVE",
"728 259 OFFCURVE",
"700 274 CURVE",
"708 280 OFFCURVE",
"746 317 OFFCURVE",
"746 361 CURVE SMOOTH",
"746 513 OFFCURVE",
"569 617 OFFCURVE",
"400 617 CURVE SMOOTH"
);
},
{
closed = 1;
nodes = (
"187 356 OFFCURVE",
"122 231 OFFCURVE",
"122 140 CURVE SMOOTH",
"122 51 OFFCURVE",
"174 -4 OFFCURVE",
"263 -4 CURVE SMOOTH",
"369 -4 OFFCURVE",
"472 85 OFFCURVE",
"472 198 CURVE SMOOTH",
"472 297 OFFCURVE",
"405 356 OFFCURVE",
"316 356 CURVE SMOOTH"
);
},
{
closed = 1;
nodes = (
"348 264 OFFCURVE",
"366 203 OFFCURVE",
"366 161 CURVE SMOOTH",
"366 109 OFFCURVE",
"320 81 OFFCURVE",
"280 81 CURVE SMOOTH",
"233 81 OFFCURVE",
"217 145 OFFCURVE",
"217 185 CURVE SMOOTH",
"217 236 OFFCURVE",
"261 264 OFFCURVE",
"302 264 CURVE SMOOTH"
);
}
);
width = 786;
}
);
unicode = 0B60;
},
{
glyphname = "lVocalic-oriya";
lastChange = "2021-08-24 04:49:00 +0000";
layers = (
{
layerId = "555B79C6-6D98-46E7-9307-77C37975E414";
paths = (
{
closed = 1;
nodes = (
"310 82 OFFCURVE",
"303 123 OFFCURVE",
"303 159 CURVE SMOOTH",
"303 262 OFFCURVE",
"382 344 OFFCURVE",
"480 344 CURVE SMOOTH",
"561 344 OFFCURVE",
"610 270 OFFCURVE",
"610 202 CURVE SMOOTH",
"610 43 OFFCURVE",
"401 -7 OFFCURVE",
"294 -7 CURVE SMOOTH",
"96 -7 OFFCURVE",
"35 84 OFFCURVE",
"35 173 CURVE SMOOTH",
"35 335 OFFCURVE",
"325 399 OFFCURVE",
"325 511 CURVE SMOOTH",
"325 547 OFFCURVE",
"293 594 OFFCURVE",
"243 594 CURVE SMOOTH",
"208 594 OFFCURVE",
"169 568 OFFCURVE",
"169 538 CURVE SMOOTH",
"169 516 OFFCURVE",
"193 504 OFFCURVE",
"210 505 CURVE SMOOTH",
"222 506 OFFCURVE",
"244 541 OFFCURVE",
"252 541 CURVE SMOOTH",
"258 541 OFFCURVE",
"258 538 OFFCURVE",
"258 535 CURVE SMOOTH",
"258 532 OFFCURVE",
"253 494 OFFCURVE",
"247 476 CURVE SMOOTH",
"236 443 OFFCURVE",
"199 409 OFFCURVE",
"173 409 CURVE SMOOTH",
"119 409 OFFCURVE",
"52 452 OFFCURVE",
"52 539 CURVE SMOOTH",
"52 642 OFFCURVE",
"176 709 OFFCURVE",
"272 707 CURVE SMOOTH",
"367 705 OFFCURVE",
"456 630 OFFCURVE",
"456 528 CURVE SMOOTH",
"456 344 OFFCURVE",
"182 260 OFFCURVE",
"182 183 CURVE SMOOTH",
"182 135 OFFCURVE",
"229 102 OFFCURVE",
"315 102 CURVE SMOOTH",
"367 102 OFFCURVE",
"504 127 OFFCURVE",
"504 200 CURVE SMOOTH",
"504 220 OFFCURVE",
"490 243 OFFCURVE",
"466 242 CURVE SMOOTH",
"435 241 OFFCURVE",
"408 215 OFFCURVE",
"408 170 CURVE SMOOTH",
"408 145 OFFCURVE",
"417 106 OFFCURVE",
"432 69 CURVE",
"324 43 LINE"
);
}
);
width = 658;
},
{
background = {
paths = (
{
closed = 1;
nodes = (
"402 107 OFFCURVE",
"345 138 OFFCURVE",
"345 198 CURVE SMOOTH",
"345 254 OFFCURVE",
"393 292 OFFCURVE",
"462 292 CURVE SMOOTH",
"546 292 OFFCURVE",
"601 246 OFFCURVE",
"601 179 CURVE SMOOTH",
"601 61 OFFCURVE",
"452 -11 OFFCURVE",
"282 -11 CURVE SMOOTH",
"106 -11 OFFCURVE",
"50 56 OFFCURVE",
"50 135 CURVE SMOOTH",
"50 301 OFFCURVE",
"423 382 OFFCURVE",
"423 470 CURVE SMOOTH",
"423 512 OFFCURVE",
"390 528 OFFCURVE",
"328 528 CURVE SMOOTH",
"281 528 OFFCURVE",
"262 514 OFFCURVE",
"262 491 CURVE SMOOTH",
"262 470 OFFCURVE",
"284 459 OFFCURVE",
"299 459 CURVE SMOOTH",
"309 459 OFFCURVE",
"317 474 OFFCURVE",
"323 474 CURVE SMOOTH",
"326 474 OFFCURVE",
"327 471 OFFCURVE",
"327 468 CURVE SMOOTH",
"327 431 OFFCURVE",
"292 372 OFFCURVE",
"262 372 CURVE SMOOTH",
"230 372 OFFCURVE",
"158 420 OFFCURVE",
"158 487 CURVE SMOOTH",
"158 563 OFFCURVE",
"242 619 OFFCURVE",
"336 619 CURVE SMOOTH",
"461 619 OFFCURVE",
"524 555 OFFCURVE",
"524 475 CURVE SMOOTH",
"524 301 OFFCURVE",
"169 240 OFFCURVE",
"169 141 CURVE SMOOTH",
"169 101 OFFCURVE",
"218 80 OFFCURVE",
"289 80 CURVE SMOOTH",
"384 80 OFFCURVE",
"497 109 OFFCURVE",
"497 174 CURVE SMOOTH",
"497 204 OFFCURVE",
"481 219 OFFCURVE",
"457 219 CURVE SMOOTH",
"434 219 OFFCURVE",
"430 200 OFFCURVE",
"430 169 CURVE SMOOTH",
"430 137 OFFCURVE",
"442 107 OFFCURVE",
"420 107 CURVE SMOOTH"
);
}
);
};
layerId = "9F2BC935-6AE7-4E60-84C9-D3B586669EA4";
paths = (
{
closed = 1;
nodes = (
"394 112 OFFCURVE",
"345 140 OFFCURVE",
"345 198 CURVE SMOOTH",
"345 254 OFFCURVE",
"393 292 OFFCURVE",
"462 292 CURVE SMOOTH",
"546 292 OFFCURVE",
"601 246 OFFCURVE",
"601 179 CURVE SMOOTH",
"601 61 OFFCURVE",
"452 -11 OFFCURVE",
"282 -11 CURVE SMOOTH",
"106 -11 OFFCURVE",
"50 56 OFFCURVE",
"50 135 CURVE SMOOTH",
"50 301 OFFCURVE",
"423 382 OFFCURVE",
"423 470 CURVE SMOOTH",
"423 512 OFFCURVE",
"390 528 OFFCURVE",
"328 528 CURVE SMOOTH",
"281 528 OFFCURVE",
"262 514 OFFCURVE",
"262 491 CURVE SMOOTH",
"262 470 OFFCURVE",
"284 459 OFFCURVE",
"299 459 CURVE SMOOTH",
"306 459 OFFCURVE",
"317 474 OFFCURVE",
"323 474 CURVE SMOOTH",
"326 474 OFFCURVE",
"328 472 OFFCURVE",
"328 467 CURVE SMOOTH",
"328 431 OFFCURVE",
"292 372 OFFCURVE",
"262 372 CURVE SMOOTH",
"230 372 OFFCURVE",
"158 420 OFFCURVE",
"158 487 CURVE SMOOTH",
"158 563 OFFCURVE",
"242 619 OFFCURVE",
"336 619 CURVE SMOOTH",
"461 619 OFFCURVE",
"524 555 OFFCURVE",
"524 475 CURVE SMOOTH",
"524 301 OFFCURVE",
"169 240 OFFCURVE",
"169 141 CURVE SMOOTH",
"169 101 OFFCURVE",
"218 80 OFFCURVE",
"289 80 CURVE SMOOTH",
"384 80 OFFCURVE",
"497 109 OFFCURVE",
"497 174 CURVE SMOOTH",
"497 204 OFFCURVE",
"481 219 OFFCURVE",
"457 219 CURVE SMOOTH",
"434 219 OFFCURVE",
"430 200 OFFCURVE",
"430 169 CURVE SMOOTH",
"430 137 OFFCURVE",
"434 112 OFFCURVE",
"412 112 CURVE SMOOTH"
);
}
);
width = 641;
}
);
unicode = 0B0C;
},
{
glyphname = "llVocalic-oriya";
lastChange = "2021-08-24 04:49:29 +0000";
layers = (
{
layerId = "555B79C6-6D98-46E7-9307-77C37975E414";
paths = (
{
closed = 1;
nodes = (
"269 102 OFFCURVE",
"222 135 OFFCURVE",
"222 183 CURVE SMOOTH",
"222 260 OFFCURVE",
"496 344 OFFCURVE",
"496 528 CURVE SMOOTH",
"496 630 OFFCURVE",
"407 705 OFFCURVE",
"312 707 CURVE SMOOTH",
"216 709 OFFCURVE",
"92 642 OFFCURVE",
"92 539 CURVE SMOOTH",
"92 452 OFFCURVE",
"159 409 OFFCURVE",
"213 409 CURVE SMOOTH",
"239 409 OFFCURVE",
"276 443 OFFCURVE",
"287 476 CURVE SMOOTH",
"293 494 OFFCURVE",
"298 532 OFFCURVE",
"298 535 CURVE SMOOTH",
"298 538 OFFCURVE",
"298 541 OFFCURVE",
"292 541 CURVE SMOOTH",
"284 541 OFFCURVE",
"262 506 OFFCURVE",
"250 505 CURVE SMOOTH",
"233 504 OFFCURVE",
"209 516 OFFCURVE",
"209 538 CURVE SMOOTH",
"209 568 OFFCURVE",
"248 594 OFFCURVE",
"283 594 CURVE SMOOTH",
"333 594 OFFCURVE",
"365 547 OFFCURVE",
"365 511 CURVE SMOOTH",
"365 399 OFFCURVE",
"75 335 OFFCURVE",
"75 173 CURVE SMOOTH",
"75 84 OFFCURVE",
"136 -7 OFFCURVE",
"334 -7 CURVE SMOOTH",
"441 -7 OFFCURVE",
"650 43 OFFCURVE",
"650 202 CURVE SMOOTH",
"650 270 OFFCURVE",
"603 344 OFFCURVE",
"520 344 CURVE SMOOTH",
"422 344 OFFCURVE",
"343 262 OFFCURVE",
"343 159 CURVE SMOOTH",
"343 55 OFFCURVE",
"404 -92 OFFCURVE",
"489 -92 CURVE SMOOTH",
"529 -92 OFFCURVE",
"595 -52 OFFCURVE",
"595 -23 CURVE SMOOTH",
"595 -18 OFFCURVE",
"592 -16 OFFCURVE",
"589 -16 CURVE SMOOTH",
"582 -16 OFFCURVE",
"562 -25 OFFCURVE",
"545 -25 CURVE SMOOTH",
"502 -25 OFFCURVE",
"447 111 OFFCURVE",
"448 170 CURVE SMOOTH",
"449 215 OFFCURVE",
"475 241 OFFCURVE",
"506 242 CURVE SMOOTH",
"530 243 OFFCURVE",
"544 220 OFFCURVE",
"544 200 CURVE SMOOTH",
"544 127 OFFCURVE",
"407 102 OFFCURVE",
"355 102 CURVE SMOOTH"
);
}
);
width = 756;
},
{
background = {
paths = (
{
closed = 1;
nodes = (
"402 12 OFFCURVE",
"465 -93 OFFCURVE",
"504 -93 CURVE SMOOTH",
"536 -93 OFFCURVE",
"584 -37 OFFCURVE",
"584 -15 CURVE SMOOTH",
"584 -12 OFFCURVE",
"583 -10 OFFCURVE",
"581 -10 CURVE SMOOTH",
"577 -10 OFFCURVE",
"569 -19 OFFCURVE",
"558 -19 CURVE SMOOTH",
"550 -19 OFFCURVE",
"512 6 OFFCURVE",
"504 19 CURVE SMOOTH",
"489 34 OFFCURVE",
"430 80 OFFCURVE",
"430 170 CURVE SMOOTH",
"430 190 OFFCURVE",
"434 219 OFFCURVE",
"457 219 CURVE SMOOTH",
"481 219 OFFCURVE",
"497 204 OFFCURVE",
"497 174 CURVE SMOOTH",
"497 109 OFFCURVE",
"384 80 OFFCURVE",
"289 80 CURVE SMOOTH",
"218 80 OFFCURVE",
"169 101 OFFCURVE",
"169 141 CURVE SMOOTH",
"169 240 OFFCURVE",
"524 301 OFFCURVE",
"524 475 CURVE SMOOTH",
"524 555 OFFCURVE",
"461 619 OFFCURVE",
"336 619 CURVE SMOOTH",
"242 619 OFFCURVE",
"158 563 OFFCURVE",
"158 487 CURVE SMOOTH",
"158 420 OFFCURVE",
"230 372 OFFCURVE",
"262 372 CURVE SMOOTH",
"292 372 OFFCURVE",
"327 431 OFFCURVE",
"327 468 CURVE SMOOTH",
"327 471 OFFCURVE",
"326 474 OFFCURVE",
"323 474 CURVE SMOOTH",
"317 474 OFFCURVE",
"309 459 OFFCURVE",
"299 459 CURVE SMOOTH",
"284 459 OFFCURVE",
"262 470 OFFCURVE",
"262 491 CURVE SMOOTH",
"262 514 OFFCURVE",
"281 528 OFFCURVE",
"328 528 CURVE SMOOTH",
"390 528 OFFCURVE",
"423 512 OFFCURVE",
"423 470 CURVE SMOOTH",
"423 382 OFFCURVE",
"50 301 OFFCURVE",
"50 135 CURVE SMOOTH",
"50 56 OFFCURVE",
"106 -11 OFFCURVE",
"282 -11 CURVE SMOOTH",
"452 -11 OFFCURVE",
"601 61 OFFCURVE",
"601 179 CURVE SMOOTH",
"601 246 OFFCURVE",
"546 292 OFFCURVE",
"462 292 CURVE SMOOTH",
"393 292 OFFCURVE",
"340 235 OFFCURVE",
"340 179 CURVE SMOOTH",
"340 96 OFFCURVE",
"396 43 OFFCURVE",
"402 34 CURVE"
);
},
{
closed = 1;
nodes = (
"340 81 OFFCURVE",
"442 -58 OFFCURVE",
"489 -58 CURVE SMOOTH",
"521 -58 OFFCURVE",
"569 -2 OFFCURVE",
"569 20 CURVE SMOOTH",
"569 23 OFFCURVE",
"568 25 OFFCURVE",
"566 25 CURVE SMOOTH",
"562 25 OFFCURVE",
"554 16 OFFCURVE",
"543 16 CURVE SMOOTH",
"521 16 OFFCURVE",
"430 66 OFFCURVE",
"430 170 CURVE SMOOTH",
"430 190 OFFCURVE",
"432 219 OFFCURVE",
"459 219 CURVE SMOOTH",
"482 219 OFFCURVE",
"497 204 OFFCURVE",
"497 174 CURVE SMOOTH",
"497 109 OFFCURVE",
"384 80 OFFCURVE",
"289 80 CURVE SMOOTH",
"218 80 OFFCURVE",
"169 101 OFFCURVE",
"169 141 CURVE SMOOTH",
"169 240 OFFCURVE",
"524 301 OFFCURVE",
"524 475 CURVE SMOOTH",
"524 555 OFFCURVE",
"461 619 OFFCURVE",
"336 619 CURVE SMOOTH",
"242 619 OFFCURVE",
"158 563 OFFCURVE",
"158 487 CURVE SMOOTH",
"158 420 OFFCURVE",
"230 372 OFFCURVE",
"262 372 CURVE SMOOTH",
"292 372 OFFCURVE",
"327 431 OFFCURVE",
"327 468 CURVE SMOOTH",
"327 471 OFFCURVE",
"326 474 OFFCURVE",
"323 474 CURVE SMOOTH",
"317 474 OFFCURVE",
"309 459 OFFCURVE",
"299 459 CURVE SMOOTH",
"284 459 OFFCURVE",
"262 470 OFFCURVE",
"262 491 CURVE SMOOTH",
"262 514 OFFCURVE",
"281 528 OFFCURVE",
"328 528 CURVE SMOOTH",
"390 528 OFFCURVE",
"423 512 OFFCURVE",
"423 470 CURVE SMOOTH",
"423 382 OFFCURVE",
"50 301 OFFCURVE",
"50 135 CURVE SMOOTH",
"50 56 OFFCURVE",
"106 -11 OFFCURVE",
"282 -11 CURVE SMOOTH",
"452 -11 OFFCURVE",
"601 61 OFFCURVE",
"601 179 CURVE SMOOTH",
"601 246 OFFCURVE",
"546 292 OFFCURVE",
"462 292 CURVE SMOOTH",
"393 292 OFFCURVE",
"340 235 OFFCURVE",
"340 179 CURVE SMOOTH"
);
},
{
closed = 1;
nodes = (
"394 112 OFFCURVE",
"345 140 OFFCURVE",
"345 198 CURVE SMOOTH",
"345 254 OFFCURVE",
"393 292 OFFCURVE",
"462 292 CURVE SMOOTH",
"546 292 OFFCURVE",
"601 246 OFFCURVE",
"601 179 CURVE SMOOTH",
"601 61 OFFCURVE",
"452 -11 OFFCURVE",
"282 -11 CURVE SMOOTH",
"106 -11 OFFCURVE",
"50 56 OFFCURVE",
"50 135 CURVE SMOOTH",
"50 301 OFFCURVE",
"423 382 OFFCURVE",
"423 470 CURVE SMOOTH",
"423 512 OFFCURVE",
"390 528 OFFCURVE",
"328 528 CURVE SMOOTH",
"281 528 OFFCURVE",
"262 514 OFFCURVE",
"262 491 CURVE SMOOTH",
"262 470 OFFCURVE",
"284 459 OFFCURVE",
"299 459 CURVE SMOOTH",
"306 459 OFFCURVE",
"317 474 OFFCURVE",
"323 474 CURVE SMOOTH",
"326 474 OFFCURVE",
"328 472 OFFCURVE",
"328 467 CURVE SMOOTH",
"328 431 OFFCURVE",
"292 372 OFFCURVE",
"262 372 CURVE SMOOTH",
"230 372 OFFCURVE",
"158 420 OFFCURVE",
"158 487 CURVE SMOOTH",
"158 563 OFFCURVE",
"242 619 OFFCURVE",
"336 619 CURVE SMOOTH",
"461 619 OFFCURVE",
"524 555 OFFCURVE",
"524 475 CURVE SMOOTH",
"524 301 OFFCURVE",
"169 240 OFFCURVE",
"169 141 CURVE SMOOTH",
"169 101 OFFCURVE",
"218 80 OFFCURVE",
"289 80 CURVE SMOOTH",
"384 80 OFFCURVE",
"497 109 OFFCURVE",
"497 174 CURVE SMOOTH",
"497 204 OFFCURVE",
"481 219 OFFCURVE",
"457 219 CURVE SMOOTH",
"434 219 OFFCURVE",
"430 200 OFFCURVE",
"430 169 CURVE SMOOTH",
"430 137 OFFCURVE",
"434 112 OFFCURVE",
"412 112 CURVE SMOOTH"
);
},
{
closed = 1;
nodes = (
"394 112 OFFCURVE",
"345 140 OFFCURVE",
"345 198 CURVE SMOOTH",
"345 254 OFFCURVE",
"393 292 OFFCURVE",
"462 292 CURVE SMOOTH",
"546 292 OFFCURVE",
"601 246 OFFCURVE",
"601 179 CURVE SMOOTH",
"601 61 OFFCURVE",
"452 -11 OFFCURVE",
"282 -11 CURVE SMOOTH",
"106 -11 OFFCURVE",
"50 56 OFFCURVE",
"50 135 CURVE SMOOTH",
"50 301 OFFCURVE",
"423 382 OFFCURVE",
"423 470 CURVE SMOOTH",
"423 512 OFFCURVE",
"390 528 OFFCURVE",
"328 528 CURVE SMOOTH",
"281 528 OFFCURVE",
"262 514 OFFCURVE",
"262 491 CURVE SMOOTH",
"262 470 OFFCURVE",
"284 459 OFFCURVE",
"299 459 CURVE SMOOTH",
"306 459 OFFCURVE",
"317 474 OFFCURVE",
"323 474 CURVE SMOOTH",
"326 474 OFFCURVE",
"328 472 OFFCURVE",
"328 467 CURVE SMOOTH",
"328 431 OFFCURVE",
"292 372 OFFCURVE",
"262 372 CURVE SMOOTH",
"230 372 OFFCURVE",
"158 420 OFFCURVE",
"158 487 CURVE SMOOTH",
"158 563 OFFCURVE",
"242 619 OFFCURVE",
"336 619 CURVE SMOOTH",
"461 619 OFFCURVE",
"524 555 OFFCURVE",
"524 475 CURVE SMOOTH",
"524 301 OFFCURVE",
"169 240 OFFCURVE",
"169 141 CURVE SMOOTH",
"169 101 OFFCURVE",
"218 80 OFFCURVE",
"289 80 CURVE SMOOTH",
"384 80 OFFCURVE",
"497 109 OFFCURVE",
"497 174 CURVE SMOOTH",
"497 204 OFFCURVE",
"481 219 OFFCURVE",
"457 219 CURVE SMOOTH",
"434 219 OFFCURVE",
"430 200 OFFCURVE",
"430 169 CURVE SMOOTH",
"430 137 OFFCURVE",
"434 112 OFFCURVE",
"412 112 CURVE SMOOTH"
);
}
);
};
layerId = "9F2BC935-6AE7-4E60-84C9-D3B586669EA4";
paths = (
{
closed = 1;
nodes = (
"340 67 OFFCURVE",
"453 -64 OFFCURVE",
"500 -64 CURVE SMOOTH",
"532 -64 OFFCURVE",
"577 -10 OFFCURVE",
"577 12 CURVE SMOOTH",
"577 17 OFFCURVE",
"576 20 OFFCURVE",
"573 20 CURVE SMOOTH",
"569 20 OFFCURVE",
"559 10 OFFCURVE",
"554 10 CURVE SMOOTH",
"532 10 OFFCURVE",
"430 66 OFFCURVE",
"430 170 CURVE SMOOTH",
"430 190 OFFCURVE",
"432 219 OFFCURVE",
"459 219 CURVE SMOOTH",
"482 219 OFFCURVE",
"497 204 OFFCURVE",
"497 174 CURVE SMOOTH",
"497 109 OFFCURVE",
"384 80 OFFCURVE",
"289 80 CURVE SMOOTH",
"218 80 OFFCURVE",
"169 101 OFFCURVE",
"169 141 CURVE SMOOTH",
"169 240 OFFCURVE",
"524 301 OFFCURVE",
"524 475 CURVE SMOOTH",
"524 555 OFFCURVE",
"461 619 OFFCURVE",
"336 619 CURVE SMOOTH",
"242 619 OFFCURVE",
"158 563 OFFCURVE",
"158 487 CURVE SMOOTH",
"158 420 OFFCURVE",
"230 372 OFFCURVE",
"262 372 CURVE SMOOTH",
"292 372 OFFCURVE",
"327 431 OFFCURVE",
"327 468 CURVE SMOOTH",
"327 471 OFFCURVE",
"326 474 OFFCURVE",
"323 474 CURVE SMOOTH",
"317 474 OFFCURVE",
"309 459 OFFCURVE",
"299 459 CURVE SMOOTH",
"284 459 OFFCURVE",
"262 470 OFFCURVE",
"262 491 CURVE SMOOTH",
"262 514 OFFCURVE",
"281 528 OFFCURVE",
"328 528 CURVE SMOOTH",
"390 528 OFFCURVE",
"423 512 OFFCURVE",
"423 470 CURVE SMOOTH",
"423 382 OFFCURVE",
"50 301 OFFCURVE",
"50 135 CURVE SMOOTH",
"50 56 OFFCURVE",
"106 -11 OFFCURVE",
"282 -11 CURVE SMOOTH",
"452 -11 OFFCURVE",
"591 70 OFFCURVE",
"591 179 CURVE SMOOTH",
"591 246 OFFCURVE",
"536 292 OFFCURVE",
"462 292 CURVE SMOOTH",
"393 292 OFFCURVE",
"340 255 OFFCURVE",
"340 175 CURVE SMOOTH"
);
}
);
width = 631;
}
);
unicode = 0B61;
},
{
glyphname = "e-oriya";
lastChange = "2021-08-24 05:15:52 +0000";
layers = (
{
layerId = "555B79C6-6D98-46E7-9307-77C37975E414";
paths = (
{
closed = 1;
nodes = (
"422 674 OFFCURVE",
"277 574 OFFCURVE",
"277 466 CURVE SMOOTH",
"277 393 OFFCURVE",
"375 308 OFFCURVE",
"409 308 CURVE SMOOTH",
"451 308 OFFCURVE",
"515 383 OFFCURVE",
"515 449 CURVE SMOOTH",
"515 453 OFFCURVE",
"513 458 OFFCURVE",
"507 458 CURVE SMOOTH",
"498 458 OFFCURVE",
"474 420 OFFCURVE",
"461 420 CURVE SMOOTH",
"431 420 OFFCURVE",
"409 450 OFFCURVE",
"409 485 CURVE SMOOTH",
"409 515 OFFCURVE",
"451 557 OFFCURVE",
"501 557 CURVE SMOOTH",
"562 557 OFFCURVE",
"592 494 OFFCURVE",
"592 435 CURVE SMOOTH",
"592 376 OFFCURVE",
"549 114 OFFCURVE",
"541 114 CURVE SMOOTH",
"403 114 OFFCURVE",
"174 244 OFFCURVE",
"174 427 CURVE SMOOTH",
"174 514 OFFCURVE",
"188 588 OFFCURVE",
"188 633 CURVE SMOOTH",
"188 640 OFFCURVE",
"187 648 OFFCURVE",
"175 648 CURVE SMOOTH",
"139 648 OFFCURVE",
"49 504 OFFCURVE",
"49 390 CURVE SMOOTH",
"49 136 OFFCURVE",
"229 10 OFFCURVE",
"538 10 CURVE SMOOTH",
"563 10 OFFCURVE",
"567 -20 OFFCURVE",
"583 -20 CURVE SMOOTH",
"598 -20 OFFCURVE",
"686 55 OFFCURVE",
"688 76 CURVE SMOOTH",
"690 94 OFFCURVE",
"669 109 OFFCURVE",
"669 132 CURVE SMOOTH",
"669 187 OFFCURVE",
"726 420 OFFCURVE",
"726 479 CURVE SMOOTH",
"726 572 OFFCURVE",
"658 677 OFFCURVE",
"507 675 CURVE SMOOTH"
);
}
);
width = 771;
},
{
background = {
paths = (
{
closed = 1;
nodes = (
"393 659 OFFCURVE",
"268 574 OFFCURVE",
"268 466 CURVE SMOOTH",
"268 393 OFFCURVE",
"346 328 OFFCURVE",
"380 328 CURVE SMOOTH",
"422 328 OFFCURVE",
"476 402 OFFCURVE",
"476 431 CURVE SMOOTH",
"476 436 OFFCURVE",
"473 439 OFFCURVE",
"468 439 CURVE SMOOTH",
"462 439 OFFCURVE",
"445 411 OFFCURVE",
"432 411 CURVE SMOOTH",
"391 410 OFFCURVE",
"363 450 OFFCURVE",
"363 485 CURVE SMOOTH",
"363 526 OFFCURVE",
"422 569 OFFCURVE",
"472 569 CURVE SMOOTH",
"546 569 OFFCURVE",
"573 494 OFFCURVE",
"573 435 CURVE SMOOTH",
"573 376 OFFCURVE",
"528 114 OFFCURVE",
"512 114 CURVE SMOOTH",
"325 110 OFFCURVE",
"165 243 OFFCURVE",
"165 434 CURVE SMOOTH",
"165 513 OFFCURVE",
"185 578 OFFCURVE",
"185 622 CURVE SMOOTH",
"185 630 OFFCURVE",
"182 638 OFFCURVE",
"172 638 CURVE SMOOTH",
"136 638 OFFCURVE",
"80 504 OFFCURVE",
"80 390 CURVE SMOOTH",
"80 136 OFFCURVE",
"267 24 OFFCURVE",
"509 24 CURVE SMOOTH",
"534 24 OFFCURVE",
"536 1 OFFCURVE",
"552 1 CURVE SMOOTH",
"567 1 OFFCURVE",
"630 67 OFFCURVE",
"632 88 CURVE SMOOTH",
"634 106 OFFCURVE",
"617 109 OFFCURVE",
"617 132 CURVE SMOOTH",
"617 187 OFFCURVE",
"677 420 OFFCURVE",
"677 479 CURVE SMOOTH",
"677 572 OFFCURVE",
"604 659 OFFCURVE",
"478 659 CURVE SMOOTH"
);
},
{
closed = 1;
nodes = (
"518 15 OFFCURVE",
"504 7 OFFCURVE",
"525 6 CURVE SMOOTH",
"542 5 OFFCURVE",
"594 66 OFFCURVE",
"596 86 CURVE SMOOTH",
"598 104 OFFCURVE",
"583 109 OFFCURVE",
"583 132 CURVE SMOOTH",
"583 188 OFFCURVE",
"625 434 OFFCURVE",
"625 542 CURVE SMOOTH",
"625 594 OFFCURVE",
"612 611 OFFCURVE",
"560 611 CURVE SMOOTH",
"396 611 OFFCURVE",
"239 509 OFFCURVE",
"239 436 CURVE SMOOTH",
"239 366 OFFCURVE",
"303 303 OFFCURVE",
"335 303 CURVE SMOOTH",
"368 303 OFFCURVE",
"420 356 OFFCURVE",
"420 397 CURVE SMOOTH",
"420 399 OFFCURVE",
"419 403 OFFCURVE",
"414 403 CURVE SMOOTH",
"408 403 OFFCURVE",
"401 388 OFFCURVE",
"391 388 CURVE SMOOTH",
"367 388 OFFCURVE",
"343 404 OFFCURVE",
"343 428 CURVE SMOOTH",
"343 466 OFFCURVE",
"445 505 OFFCURVE",
"505 505 CURVE SMOOTH",
"526 505 OFFCURVE",
"521 468 OFFCURVE",
"520 442 CURVE SMOOTH",
"518 384 OFFCURVE",
"483 108 OFFCURVE",
"475 108 CURVE SMOOTH",
"280 108 OFFCURVE",
"157 229 OFFCURVE",
"157 365 CURVE SMOOTH",
"157 451 OFFCURVE",
"207 568 OFFCURVE",
"207 595 CURVE SMOOTH",
"207 603 OFFCURVE",
"200 606 OFFCURVE",
"193 606 CURVE SMOOTH",
"157 606 OFFCURVE",
"46 488 OFFCURVE",
"46 323 CURVE SMOOTH",
"46 177 OFFCURVE",
"159 15 OFFCURVE",
"476 15 CURVE SMOOTH"
);
}
);
};
layerId = "9F2BC935-6AE7-4E60-84C9-D3B586669EA4";
paths = (
{
closed = 1;
nodes = (
"503 22 OFFCURVE",
"514 0 OFFCURVE",
"530 0 CURVE SMOOTH",
"547 0 OFFCURVE",
"605 64 OFFCURVE",
"607 84 CURVE SMOOTH",
"609 102 OFFCURVE",
"583 109 OFFCURVE",
"583 132 CURVE SMOOTH",
"583 188 OFFCURVE",
"629 434 OFFCURVE",
"629 533 CURVE SMOOTH",
"629 594 OFFCURVE",
"607 611 OFFCURVE",
"550 611 CURVE SMOOTH",
"391 611 OFFCURVE",
"246 507 OFFCURVE",
"246 434 CURVE SMOOTH",
"246 372 OFFCURVE",
"304 299 OFFCURVE",
"346 299 CURVE SMOOTH",
"378 299 OFFCURVE",
"420 357 OFFCURVE",
"420 394 CURVE SMOOTH",
"420 401 OFFCURVE",
"418 403 OFFCURVE",
"415 403 CURVE SMOOTH",
"408 403 OFFCURVE",
"398 388 OFFCURVE",
"391 388 CURVE SMOOTH",
"367 388 OFFCURVE",
"343 417 OFFCURVE",
"343 431 CURVE SMOOTH",
"343 459 OFFCURVE",
"441 509 OFFCURVE",
"503 509 CURVE SMOOTH",
"522 509 OFFCURVE",
"527 503 OFFCURVE",
"527 480 CURVE SMOOTH",
"527 419 OFFCURVE",
"482 199 OFFCURVE",
"481 113 CURVE",
"297 113 OFFCURVE",
"168 237 OFFCURVE",
"168 353 CURVE SMOOTH",
"168 455 OFFCURVE",
"216 567 OFFCURVE",
"216 589 CURVE SMOOTH",
"216 602 OFFCURVE",
"210 606 OFFCURVE",
"203 606 CURVE SMOOTH",
"167 606 OFFCURVE",
"50 488 OFFCURVE",
"50 334 CURVE SMOOTH",
"50 177 OFFCURVE",
"175 22 OFFCURVE",
"476 22 CURVE SMOOTH"
);
}
);
width = 669;
}
);
unicode = 0B0F;
},
{
glyphname = "aiVowel-oriya";
lastChange = "2021-08-24 04:49:48 +0000";
layers = (
{
layerId = "555B79C6-6D98-46E7-9307-77C37975E414";
paths = (
{
closed = 1;
nodes = (
"452 674 OFFCURVE",
"307 574 OFFCURVE",
"307 466 CURVE SMOOTH",
"307 393 OFFCURVE",
"405 308 OFFCURVE",
"439 308 CURVE SMOOTH",
"481 308 OFFCURVE",
"545 383 OFFCURVE",
"545 449 CURVE SMOOTH",
"545 453 OFFCURVE",
"543 458 OFFCURVE",
"537 458 CURVE SMOOTH",
"528 458 OFFCURVE",
"504 420 OFFCURVE",
"491 420 CURVE SMOOTH",
"461 420 OFFCURVE",
"439 450 OFFCURVE",
"439 485 CURVE SMOOTH",
"439 515 OFFCURVE",
"481 559 OFFCURVE",
"531 559 CURVE SMOOTH",
"592 559 OFFCURVE",
"628 494 OFFCURVE",
"628 435 CURVE SMOOTH",
"628 376 OFFCURVE",
"579 114 OFFCURVE",
"571 114 CURVE SMOOTH",
"433 114 OFFCURVE",
"203 244 OFFCURVE",
"203 427 CURVE SMOOTH",
"203 514 OFFCURVE",
"218 588 OFFCURVE",
"218 633 CURVE SMOOTH",
"218 640 OFFCURVE",
"217 648 OFFCURVE",
"205 648 CURVE SMOOTH",
"169 648 OFFCURVE",
"79 504 OFFCURVE",
"79 390 CURVE SMOOTH",
"79 136 OFFCURVE",
"259 10 OFFCURVE",
"568 10 CURVE SMOOTH",
"593 10 OFFCURVE",
"597 -20 OFFCURVE",
"613 -20 CURVE SMOOTH",
"628 -20 OFFCURVE",
"716 55 OFFCURVE",
"718 76 CURVE SMOOTH",
"720 94 OFFCURVE",
"699 109 OFFCURVE",
"699 132 CURVE SMOOTH",
"699 187 OFFCURVE",
"756 420 OFFCURVE",
"756 479 CURVE SMOOTH",
"756 572 OFFCURVE",
"688 677 OFFCURVE",
"537 675 CURVE SMOOTH"
);
},
{
closed = 1;
nodes = (
"395 766 OFFCURVE",
"477 721 OFFCURVE",
"578 721 CURVE SMOOTH",
"668 721 OFFCURVE",
"825 736 OFFCURVE",
"866 736 CURVE SMOOTH",
"900 736 OFFCURVE",
"897 693 OFFCURVE",
"897 670 CURVE SMOOTH",
"897 648 OFFCURVE",
"890 601 OFFCURVE",
"889 587 CURVE SMOOTH",
"886 539 OFFCURVE",
"828 104 OFFCURVE",
"826 65 CURVE SMOOTH",
"824 28 OFFCURVE",
"807 -19 OFFCURVE",
"843 -19 CURVE SMOOTH",
"906 -19 OFFCURVE",
"968 96 OFFCURVE",
"979 176 CURVE SMOOTH",
"998 315 OFFCURVE",
"1039 660 OFFCURVE",
"1041 691 CURVE SMOOTH",
"1046 780 OFFCURVE",
"1024 853 OFFCURVE",
"947 855 CURVE SMOOTH",
"871 857 OFFCURVE",
"678 834 OFFCURVE",
"595 834 CURVE SMOOTH",
"521 834 OFFCURVE",
"501 871 OFFCURVE",
"501 897 CURVE SMOOTH",
"501 920 OFFCURVE",
"527 929 OFFCURVE",
"527 938 CURVE SMOOTH",
"527 944 OFFCURVE",
"509 946 OFFCURVE",
"498 946 CURVE SMOOTH",
"449 946 OFFCURVE",
"395 896 OFFCURVE",
"395 829 CURVE SMOOTH"
);
},
{
closed = 1;
nodes = (
"688 289 LINE",
"743 260 OFFCURVE",
"854 251 OFFCURVE",
"892 265 CURVE",
"905 384 LINE",
"838 350 OFFCURVE",
"719 372 OFFCURVE",
"688 386 CURVE"
);
}
);
width = 1121;
},
{
background = {
paths = (
{
closed = 1;
nodes = (
"503 22 OFFCURVE",
"514 0 OFFCURVE",
"530 0 CURVE SMOOTH",
"547 0 OFFCURVE",
"605 64 OFFCURVE",
"607 84 CURVE SMOOTH",
"609 102 OFFCURVE",
"583 109 OFFCURVE",
"583 132 CURVE SMOOTH",
"583 188 OFFCURVE",
"629 434 OFFCURVE",
"629 533 CURVE SMOOTH",
"629 594 OFFCURVE",
"607 611 OFFCURVE",
"550 611 CURVE SMOOTH",
"391 611 OFFCURVE",
"246 507 OFFCURVE",
"246 434 CURVE SMOOTH",
"246 372 OFFCURVE",
"304 299 OFFCURVE",
"346 299 CURVE SMOOTH",
"378 299 OFFCURVE",
"420 357 OFFCURVE",
"420 394 CURVE SMOOTH",
"420 401 OFFCURVE",
"418 403 OFFCURVE",
"415 403 CURVE SMOOTH",
"408 403 OFFCURVE",
"398 388 OFFCURVE",
"391 388 CURVE SMOOTH",
"367 388 OFFCURVE",
"343 417 OFFCURVE",
"343 431 CURVE SMOOTH",
"343 459 OFFCURVE",
"441 509 OFFCURVE",
"503 509 CURVE SMOOTH",
"522 509 OFFCURVE",
"527 503 OFFCURVE",
"527 480 CURVE SMOOTH",
"527 419 OFFCURVE",
"482 199 OFFCURVE",
"481 113 CURVE",
"297 113 OFFCURVE",
"168 237 OFFCURVE",
"168 353 CURVE SMOOTH",
"168 455 OFFCURVE",
"216 567 OFFCURVE",
"216 589 CURVE SMOOTH",
"216 602 OFFCURVE",
"210 606 OFFCURVE",
"203 606 CURVE SMOOTH",
"167 606 OFFCURVE",
"50 488 OFFCURVE",
"50 334 CURVE SMOOTH",
"50 177 OFFCURVE",
"175 22 OFFCURVE",
"476 22 CURVE SMOOTH"
);
},
{
closed = 1;
nodes = (
"853 627 OFFCURVE",
"854 634 OFFCURVE",
"854 639 CURVE SMOOTH",
"857 688 OFFCURVE",
"870 780 OFFCURVE",
"787 780 CURVE SMOOTH",
"707 780 OFFCURVE",
"544 747 OFFCURVE",
"461 747 CURVE SMOOTH",
"375 747 OFFCURVE",
"345 775 OFFCURVE",
"343 808 CURVE SMOOTH",
"342 825 OFFCURVE",
"358 837 OFFCURVE",
"357 842 CURVE SMOOTH",
"356 848 OFFCURVE",
"352 848 OFFCURVE",
"350 848 CURVE SMOOTH",
"302 848 OFFCURVE",
"272 792 OFFCURVE",
"272 760 CURVE SMOOTH",
"272 708 OFFCURVE",
"336 664 OFFCURVE",
"437 664 CURVE SMOOTH",
"527 664 OFFCURVE",
"687 689 OFFCURVE",
"728 689 CURVE SMOOTH",
"760 689 OFFCURVE",
"748 642 OFFCURVE",
"747 617 CURVE",
"852 617 LINE"
);
}
);
};
layerId = "9F2BC935-6AE7-4E60-84C9-D3B586669EA4";
paths = (
{
closed = 1;
nodes = (
"596 301 LINE",
"639 257 OFFCURVE",
"691 244 OFFCURVE",
"713 263 CURVE",
"722 377 LINE",
"717 323 OFFCURVE",
"626 349 OFFCURVE",
"596 373 CURVE"
);
},
{
closed = 1;
nodes = (
"503 22 OFFCURVE",
"514 0 OFFCURVE",
"530 0 CURVE SMOOTH",
"547 0 OFFCURVE",
"605 64 OFFCURVE",
"607 84 CURVE SMOOTH",
"609 102 OFFCURVE",
"583 109 OFFCURVE",
"583 132 CURVE SMOOTH",
"583 188 OFFCURVE",
"629 434 OFFCURVE",
"629 533 CURVE SMOOTH",
"629 594 OFFCURVE",
"607 611 OFFCURVE",
"550 611 CURVE SMOOTH",
"391 611 OFFCURVE",
"246 507 OFFCURVE",
"246 434 CURVE SMOOTH",
"246 372 OFFCURVE",
"304 299 OFFCURVE",
"346 299 CURVE SMOOTH",
"378 299 OFFCURVE",
"420 357 OFFCURVE",
"420 394 CURVE SMOOTH",
"420 401 OFFCURVE",
"418 403 OFFCURVE",
"415 403 CURVE SMOOTH",
"408 403 OFFCURVE",
"398 388 OFFCURVE",
"391 388 CURVE SMOOTH",
"367 388 OFFCURVE",
"343 417 OFFCURVE",
"343 431 CURVE SMOOTH",
"343 459 OFFCURVE",
"441 509 OFFCURVE",
"503 509 CURVE SMOOTH",
"522 509 OFFCURVE",
"527 503 OFFCURVE",
"527 480 CURVE SMOOTH",
"527 419 OFFCURVE",
"482 199 OFFCURVE",
"481 113 CURVE",
"297 113 OFFCURVE",
"168 237 OFFCURVE",
"168 353 CURVE SMOOTH",
"168 455 OFFCURVE",
"216 567 OFFCURVE",
"216 589 CURVE SMOOTH",
"216 602 OFFCURVE",
"210 606 OFFCURVE",
"203 606 CURVE SMOOTH",
"167 606 OFFCURVE",
"50 488 OFFCURVE",
"50 334 CURVE SMOOTH",
"50 177 OFFCURVE",
"175 22 OFFCURVE",
"476 22 CURVE SMOOTH"
);
},
{
closed = 1;
nodes = (
"313 712 OFFCURVE",
"380 666 OFFCURVE",
"449 666 CURVE SMOOTH",
"526 666 OFFCURVE",
"724 718 OFFCURVE",
"764 718 CURVE SMOOTH",
"792 718 OFFCURVE",
"802 692 OFFCURVE",
"802 681 CURVE SMOOTH",
"802 658 OFFCURVE",
"778 630 OFFCURVE",
"753 609 CURVE SMOOTH",
"747 604 OFFCURVE",
"745 599 OFFCURVE",
"744 589 CURVE SMOOTH",
"733 483 OFFCURVE",
"693 97 OFFCURVE",
"689 69 CURVE SMOOTH",
"684 32 OFFCURVE",
"676 -11 OFFCURVE",
"703 -11 CURVE SMOOTH",
"747 -11 OFFCURVE",
"806 101 OFFCURVE",
"814 180 CURVE SMOOTH",
"827 315 OFFCURVE",
"843 514 OFFCURVE",
"850 589 CURVE",
"865 603 OFFCURVE",
"911 652 OFFCURVE",
"911 712 CURVE SMOOTH",
"911 762 OFFCURVE",
"869 823 OFFCURVE",
"795 823 CURVE SMOOTH",
"716 823 OFFCURVE",
"507 761 OFFCURVE",
"450 761 CURVE SMOOTH",
"424 761 OFFCURVE",
"404 786 OFFCURVE",
"404 804 CURVE SMOOTH",
"404 821 OFFCURVE",
"434 836 OFFCURVE",
"434 846 CURVE SMOOTH",
"434 852 OFFCURVE",
"421 854 OFFCURVE",
"411 854 CURVE SMOOTH",
"363 854 OFFCURVE",
"313 808 OFFCURVE",
"313 769 CURVE SMOOTH"
);
}
);
width = 897;
}
);
unicode = 0B10;
},
{
glyphname = "oVowel-oriya";
lastChange = "2021-08-24 04:50:15 +0000";
layers = (
{
layerId = "555B79C6-6D98-46E7-9307-77C37975E414";
paths = (
{
closed = 1;
nodes = (
"412 679 OFFCURVE",
"329 606 OFFCURVE",
"323 549 CURVE SMOOTH",
"322 540 OFFCURVE",
"331 523 OFFCURVE",
"353 535 CURVE SMOOTH",
"375 547 OFFCURVE",
"405 575 OFFCURVE",
"453 575 CURVE SMOOTH",
"505 575 OFFCURVE",
"529 530 OFFCURVE",
"528 499 CURVE SMOOTH",
"526 436 OFFCURVE",
"479 412 OFFCURVE",
"447 412 CURVE SMOOTH",
"433 412 OFFCURVE",
"422 410 OFFCURVE",
"419 401 CURVE SMOOTH",
"416 393 OFFCURVE",
"414 342 OFFCURVE",
"417 334 CURVE SMOOTH",
"420 325 OFFCURVE",
"427 321 OFFCURVE",
"442 321 CURVE SMOOTH",
"476 321 OFFCURVE",
"512 264 OFFCURVE",
"511 223 CURVE SMOOTH",
"509 152 OFFCURVE",
"430 109 OFFCURVE",
"353 109 CURVE SMOOTH",
"230 109 OFFCURVE",
"170 228 OFFCURVE",
"170 361 CURVE SMOOTH",
"170 471 OFFCURVE",
"243 639 OFFCURVE",
"244 662 CURVE SMOOTH",
"245 678 OFFCURVE",
"239 682 OFFCURVE",
"226 682 CURVE SMOOTH",
"202 682 OFFCURVE",
"33 557 OFFCURVE",
"33 330 CURVE SMOOTH",
"33 39 OFFCURVE",
"214 -16 OFFCURVE",
"347 -16 CURVE SMOOTH",
"486 -16 OFFCURVE",
"649 56 OFFCURVE",
"651 215 CURVE SMOOTH",
"652 279 OFFCURVE",
"630 347 OFFCURVE",
"581 373 CURVE",
"637 409 OFFCURVE",
"656 461 OFFCURVE",
"656 521 CURVE SMOOTH",
"656 580 OFFCURVE",
"604 684 OFFCURVE",
"495 681 CURVE SMOOTH"
);
}
);
width = 683;
},
{
background = {
paths = (
{
closed = 1;
nodes = (
"436 -23 OFFCURVE",
"568 70 OFFCURVE",
"568 225 CURVE SMOOTH",
"568 308 OFFCURVE",
"506 344 OFFCURVE",
"492 350 CURVE",
"537 383 OFFCURVE",
"565 426 OFFCURVE",
"565 458 CURVE SMOOTH",
"565 544 OFFCURVE",
"487 623 OFFCURVE",
"430 623 CURVE SMOOTH",
"371 623 OFFCURVE",
"290 549 OFFCURVE",
"290 516 CURVE SMOOTH",
"290 510 OFFCURVE",
"294 507 OFFCURVE",
"300 507 CURVE SMOOTH",
"318 507 OFFCURVE",
"355 536 OFFCURVE",
"373 536 CURVE SMOOTH",
"405 536 OFFCURVE",
"460 474 OFFCURVE",
"460 447 CURVE SMOOTH",
"460 404 OFFCURVE",
"407 384 OFFCURVE",
"365 373 CURVE SMOOTH",
"317 360 OFFCURVE",
"301 360 OFFCURVE",
"301 341 CURVE SMOOTH",
"301 325 OFFCURVE",
"320 273 OFFCURVE",
"335 273 CURVE SMOOTH",
"349 273 OFFCURVE",
"379 292 OFFCURVE",
"401 292 CURVE SMOOTH",
"426 292 OFFCURVE",
"452 241 OFFCURVE",
"452 189 CURVE SMOOTH",
"452 127 OFFCURVE",
"387 84 OFFCURVE",
"294 84 CURVE SMOOTH",
"192 84 OFFCURVE",
"159 181 OFFCURVE",
"159 279 CURVE SMOOTH",
"159 375 OFFCURVE",
"191 420 OFFCURVE",
"191 460 CURVE SMOOTH",
"191 469 OFFCURVE",
"187 473 OFFCURVE",
"181 473 CURVE SMOOTH",
"153 473 OFFCURVE",
"53 362 OFFCURVE",
"53 227 CURVE SMOOTH",
"53 100 OFFCURVE",
"154 -12 OFFCURVE",
"286 -17 CURVE SMOOTH"
);
}
);
};
layerId = "9F2BC935-6AE7-4E60-84C9-D3B586669EA4";
paths = (
{
closed = 1;
nodes = (
"477 -5 OFFCURVE",
"592 76 OFFCURVE",
"592 194 CURVE SMOOTH",
"592 261 OFFCURVE",
"550 310 OFFCURVE",
"503 326 CURVE",
"532 340 OFFCURVE",
"589 391 OFFCURVE",
"589 462 CURVE SMOOTH",
"589 553 OFFCURVE",
"509 624 OFFCURVE",
"425 624 CURVE SMOOTH",
"344 624 OFFCURVE",
"274 540 OFFCURVE",
"274 508 CURVE SMOOTH",
"274 475 OFFCURVE",
"322 440 OFFCURVE",
"359 440 CURVE SMOOTH",
"366 440 OFFCURVE",
"371 442 OFFCURVE",
"371 447 CURVE SMOOTH",
"371 453 OFFCURVE",
"358 465 OFFCURVE",
"358 477 CURVE SMOOTH",
"358 499 OFFCURVE",
"390 539 OFFCURVE",
"422 539 CURVE SMOOTH",
"454 539 OFFCURVE",
"501 508 OFFCURVE",
"501 462 CURVE SMOOTH",
"501 396 OFFCURVE",
"429 371 OFFCURVE",
"375 371 CURVE SMOOTH",
"366 371 OFFCURVE",
"363 368 OFFCURVE",
"360 359 CURVE SMOOTH",
"356 345 OFFCURVE",
"352 320 OFFCURVE",
"352 297 CURVE SMOOTH",
"352 288 OFFCURVE",
"355 283 OFFCURVE",
"370 283 CURVE SMOOTH",
"407 283 OFFCURVE",
"480 261 OFFCURVE",
"480 199 CURVE SMOOTH",
"480 130 OFFCURVE",
"404 94 OFFCURVE",
"350 94 CURVE SMOOTH",
"227 94 OFFCURVE",
"164 230 OFFCURVE",
"164 340 CURVE SMOOTH",
"164 449 OFFCURVE",
"214 562 OFFCURVE",
"214 589 CURVE SMOOTH",
"214 598 OFFCURVE",
"209 604 OFFCURVE",
"200 604 CURVE SMOOTH",
"164 604 OFFCURVE",
"50 459 OFFCURVE",
"50 298 CURVE SMOOTH",
"50 175 OFFCURVE",
"114 -5 OFFCURVE",
"342 -5 CURVE SMOOTH"
);
}
);
width = 632;
}
);
unicode = 0B13;
},
{
glyphname = "auVowel-oriya";
lastChange = "2021-08-24 04:50:42 +0000";
layers = (
{
background = {
paths = (
{
closed = 1;
nodes = (
"574 279 LINE",
"662 228 OFFCURVE",
"822 225 OFFCURVE",
"822 224 CURVE",
"835 339 LINE",
"756 335 OFFCURVE",
"618 376 OFFCURVE",
"618 378 CURVE"
);
}
);
};
layerId = "555B79C6-6D98-46E7-9307-77C37975E414";
paths = (
{
closed = 1;
nodes = (
"618 289 LINE",
"673 260 OFFCURVE",
"784 251 OFFCURVE",
"822 265 CURVE",
"835 384 LINE",
"767 350 OFFCURVE",
"649 372 OFFCURVE",
"618 386 CURVE"
);
},
{
closed = 1;
nodes = (
"462 680 OFFCURVE",
"379 606 OFFCURVE",
"373 549 CURVE SMOOTH",
"372 540 OFFCURVE",
"381 523 OFFCURVE",
"403 535 CURVE SMOOTH",
"425 547 OFFCURVE",
"455 575 OFFCURVE",
"503 575 CURVE SMOOTH",
"555 575 OFFCURVE",
"579 530 OFFCURVE",
"578 499 CURVE SMOOTH",
"576 436 OFFCURVE",
"529 412 OFFCURVE",
"497 412 CURVE SMOOTH",
"483 412 OFFCURVE",
"472 410 OFFCURVE",
"469 401 CURVE SMOOTH",
"466 393 OFFCURVE",
"464 342 OFFCURVE",
"467 334 CURVE SMOOTH",
"470 325 OFFCURVE",
"477 321 OFFCURVE",
"492 321 CURVE SMOOTH",
"526 321 OFFCURVE",
"562 264 OFFCURVE",
"561 223 CURVE SMOOTH",
"560 152 OFFCURVE",
"480 109 OFFCURVE",
"403 109 CURVE SMOOTH",
"280 109 OFFCURVE",
"220 228 OFFCURVE",
"220 361 CURVE SMOOTH",
"220 471 OFFCURVE",
"293 639 OFFCURVE",
"294 662 CURVE SMOOTH",
"295 678 OFFCURVE",
"289 682 OFFCURVE",
"276 682 CURVE SMOOTH",
"252 682 OFFCURVE",
"83 557 OFFCURVE",
"83 330 CURVE SMOOTH",
"83 39 OFFCURVE",
"264 -16 OFFCURVE",
"397 -16 CURVE SMOOTH",
"536 -16 OFFCURVE",
"698 56 OFFCURVE",
"701 215 CURVE SMOOTH",
"702 279 OFFCURVE",
"680 347 OFFCURVE",
"631 373 CURVE",
"687 409 OFFCURVE",
"706 461 OFFCURVE",
"706 521 CURVE SMOOTH",
"706 580 OFFCURVE",
"654 683 OFFCURVE",
"545 681 CURVE SMOOTH"
);
},
{
closed = 1;
nodes = (
"335 766 OFFCURVE",
"417 721 OFFCURVE",
"518 721 CURVE SMOOTH",
"608 721 OFFCURVE",
"765 736 OFFCURVE",
"806 736 CURVE SMOOTH",
"840 736 OFFCURVE",
"837 693 OFFCURVE",
"837 670 CURVE SMOOTH",
"837 648 OFFCURVE",
"830 601 OFFCURVE",
"829 587 CURVE SMOOTH",
"826 539 OFFCURVE",
"768 104 OFFCURVE",
"766 65 CURVE SMOOTH",
"764 28 OFFCURVE",
"747 -19 OFFCURVE",
"783 -19 CURVE SMOOTH",
"846 -19 OFFCURVE",
"908 96 OFFCURVE",
"919 176 CURVE SMOOTH",
"938 315 OFFCURVE",
"979 660 OFFCURVE",
"981 691 CURVE SMOOTH",
"987 780 OFFCURVE",
"964 853 OFFCURVE",
"887 855 CURVE SMOOTH",
"811 857 OFFCURVE",
"618 834 OFFCURVE",
"535 834 CURVE SMOOTH",
"461 834 OFFCURVE",
"441 871 OFFCURVE",
"441 897 CURVE SMOOTH",
"441 920 OFFCURVE",
"467 929 OFFCURVE",
"467 938 CURVE SMOOTH",
"467 944 OFFCURVE",
"449 946 OFFCURVE",
"438 946 CURVE SMOOTH",
"389 946 OFFCURVE",
"335 896 OFFCURVE",
"335 829 CURVE SMOOTH"
);
}
);
width = 1085;
},
{
background = {
paths = (
{
closed = 1;
nodes = (
"500 312 LINE",
"543 285 OFFCURVE",
"660 269 OFFCURVE",
"704 288 CURVE",
"717 381 LINE",
"647 347 OFFCURVE",
"530 369 OFFCURVE",
"500 383 CURVE"
);
},
{
closed = 1;
nodes = (
"297 825 OFFCURVE",
"313 837 OFFCURVE",
"312 842 CURVE SMOOTH",
"311 848 OFFCURVE",
"307 848 OFFCURVE",
"305 848 CURVE SMOOTH",
"257 848 OFFCURVE",
"227 792 OFFCURVE",
"227 760 CURVE SMOOTH",
"227 708 OFFCURVE",
"291 664 OFFCURVE",
"392 664 CURVE SMOOTH",
"482 664 OFFCURVE",
"642 689 OFFCURVE",
"683 689 CURVE SMOOTH",
"716 689 OFFCURVE",
"704 640 OFFCURVE",
"702 616 CURVE SMOOTH",
"686 427 OFFCURVE",
"650 120 OFFCURVE",
"646 92 CURVE SMOOTH",
"641 55 OFFCURVE",
"638 0 OFFCURVE",
"665 0 CURVE SMOOTH",
"709 0 OFFCURVE",
"759 124 OFFCURVE",
"767 203 CURVE SMOOTH",
"782 354 OFFCURVE",
"806 593 OFFCURVE",
"809 639 CURVE SMOOTH",
"812 688 OFFCURVE",
"825 780 OFFCURVE",
"742 780 CURVE SMOOTH",
"662 780 OFFCURVE",
"499 747 OFFCURVE",
"416 747 CURVE SMOOTH",
"330 747 OFFCURVE",
"300 775 OFFCURVE",
"298 808 CURVE SMOOTH"
);
}
);
};
layerId = "9F2BC935-6AE7-4E60-84C9-D3B586669EA4";
paths = (
{
closed = 1;
nodes = (
"501 308 LINE",
"544 264 OFFCURVE",
"640 244 OFFCURVE",
"662 263 CURVE",
"672 377 LINE",
"667 323 OFFCURVE",
"531 356 OFFCURVE",
"501 380 CURVE"
);
},
{
closed = 1;
nodes = (
"477 -5 OFFCURVE",
"592 76 OFFCURVE",
"592 194 CURVE SMOOTH",
"592 261 OFFCURVE",
"550 310 OFFCURVE",
"503 326 CURVE",
"532 340 OFFCURVE",
"589 391 OFFCURVE",
"589 462 CURVE SMOOTH",
"589 553 OFFCURVE",
"509 624 OFFCURVE",
"425 624 CURVE SMOOTH",
"344 624 OFFCURVE",
"274 540 OFFCURVE",
"274 508 CURVE SMOOTH",
"274 475 OFFCURVE",
"322 440 OFFCURVE",
"359 440 CURVE SMOOTH",
"366 440 OFFCURVE",
"371 442 OFFCURVE",
"371 447 CURVE SMOOTH",
"371 453 OFFCURVE",
"358 465 OFFCURVE",
"358 477 CURVE SMOOTH",
"358 499 OFFCURVE",
"390 539 OFFCURVE",
"422 539 CURVE SMOOTH",
"454 539 OFFCURVE",
"501 508 OFFCURVE",
"501 462 CURVE SMOOTH",
"501 396 OFFCURVE",
"429 371 OFFCURVE",
"375 371 CURVE SMOOTH",
"366 371 OFFCURVE",
"363 368 OFFCURVE",
"360 359 CURVE SMOOTH",
"356 345 OFFCURVE",
"352 320 OFFCURVE",
"352 297 CURVE SMOOTH",
"352 288 OFFCURVE",
"355 283 OFFCURVE",
"370 283 CURVE SMOOTH",
"407 283 OFFCURVE",
"480 261 OFFCURVE",
"480 199 CURVE SMOOTH",
"480 130 OFFCURVE",
"404 94 OFFCURVE",
"350 94 CURVE SMOOTH",
"227 94 OFFCURVE",
"164 230 OFFCURVE",
"164 340 CURVE SMOOTH",
"164 449 OFFCURVE",
"214 562 OFFCURVE",
"214 589 CURVE SMOOTH",
"214 598 OFFCURVE",
"209 604 OFFCURVE",
"200 604 CURVE SMOOTH",
"164 604 OFFCURVE",
"50 459 OFFCURVE",
"50 298 CURVE SMOOTH",
"50 175 OFFCURVE",
"114 -5 OFFCURVE",
"342 -5 CURVE SMOOTH"
);
},
{
closed = 1;
nodes = (
"263 712 OFFCURVE",
"330 666 OFFCURVE",
"399 666 CURVE SMOOTH",
"476 666 OFFCURVE",
"674 718 OFFCURVE",
"714 718 CURVE SMOOTH",
"742 718 OFFCURVE",
"752 692 OFFCURVE",
"752 681 CURVE SMOOTH",
"752 658 OFFCURVE",
"728 630 OFFCURVE",
"703 609 CURVE SMOOTH",
"697 604 OFFCURVE",
"695 599 OFFCURVE",
"694 589 CURVE SMOOTH",
"683 483 OFFCURVE",
"643 97 OFFCURVE",
"639 69 CURVE SMOOTH",
"634 32 OFFCURVE",
"626 -11 OFFCURVE",
"653 -11 CURVE SMOOTH",
"697 -11 OFFCURVE",
"756 101 OFFCURVE",
"764 180 CURVE SMOOTH",
"777 315 OFFCURVE",
"793 514 OFFCURVE",
"800 589 CURVE",
"815 603 OFFCURVE",
"861 652 OFFCURVE",
"861 712 CURVE SMOOTH",
"861 762 OFFCURVE",
"819 823 OFFCURVE",
"745 823 CURVE SMOOTH",
"666 823 OFFCURVE",
"457 761 OFFCURVE",
"400 761 CURVE SMOOTH",
"374 761 OFFCURVE",
"354 786 OFFCURVE",
"354 804 CURVE SMOOTH",
"354 821 OFFCURVE",
"384 836 OFFCURVE",
"384 846 CURVE SMOOTH",
"384 852 OFFCURVE",
"371 854 OFFCURVE",
"361 854 CURVE SMOOTH",
"313 854 OFFCURVE",
"263 808 OFFCURVE",
"263 769 CURVE SMOOTH"
);
}
);
width = 847;
}
);
unicode = 0B14;
},
{
glyphname = "ka-oriya";
lastChange = "2021-08-25 06:17:26 +0000";
layers = (
{
layerId = "555B79C6-6D98-46E7-9307-77C37975E414";
paths = (
{
closed = 1;
nodes = (
"457 213 OFFCURVE",
"465 290 OFFCURVE",
"516 289 CURVE SMOOTH",
"574 288 OFFCURVE",
"559 191 OFFCURVE",
"551 34 CURVE SMOOTH",
"550 15 OFFCURVE",
"549 -21 OFFCURVE",
"574 -21 CURVE SMOOTH",
"619 -21 OFFCURVE",
"670 71 OFFCURVE",
"672 137 CURVE SMOOTH",
"675 234 OFFCURVE",
"685 399 OFFCURVE",
"513 399 CURVE SMOOTH",
"353 399 OFFCURVE",
"339 198 OFFCURVE",
"330 34 CURVE SMOOTH",
"329 15 OFFCURVE",
"328 -21 OFFCURVE",
"355 -21 CURVE SMOOTH",
"398 -21 OFFCURVE",
"453 71 OFFCURVE",
"455 137 CURVE SMOOTH"
);
},
{
closed = 1;
nodes = (
"300 297 OFFCURVE",
"321 260 OFFCURVE",
"321 205 CURVE SMOOTH",
"321 169 OFFCURVE",
"298 144 OFFCURVE",
"264 144 CURVE SMOOTH",
"222 144 OFFCURVE",
"209 190 OFFCURVE",
"209 230 CURVE SMOOTH",
"209 270 OFFCURVE",
"237 297 OFFCURVE",
"268 297 CURVE SMOOTH"
);
},
{
closed = 1;
nodes = (
"93 123 OFFCURVE",
"157 39 OFFCURVE",
"254 39 CURVE SMOOTH",
"352 39 OFFCURVE",
"438 127 OFFCURVE",
"438 225 CURVE SMOOTH",
"438 339 OFFCURVE",
"366 398 OFFCURVE",
"295 398 CURVE SMOOTH",
"191 398 OFFCURVE",
"93 311 OFFCURVE",
"93 208 CURVE SMOOTH"
);
},
{
closed = 1;
nodes = (
"175 713 OFFCURVE",
"-1 508 OFFCURVE",
"-1 359 CURVE SMOOTH",
"-1 265 OFFCURVE",
"66 179 OFFCURVE",
"157 149 CURVE",
"218 293 LINE",
"218 293 OFFCURVE",
"143 307 OFFCURVE",
"143 380 CURVE SMOOTH",
"143 467 OFFCURVE",
"281 580 OFFCURVE",
"447 580 CURVE SMOOTH",
"629 580 OFFCURVE",
"767 456 OFFCURVE",
"767 322 CURVE SMOOTH",
"767 235 OFFCURVE",
"729 178 OFFCURVE",
"698 142 CURVE SMOOTH",
"691 134 OFFCURVE",
"697 125 OFFCURVE",
"708 125 CURVE SMOOTH",
"830 128 OFFCURVE",
"902 231 OFFCURVE",
"907 360 CURVE SMOOTH",
"914 569 OFFCURVE",
"727 713 OFFCURVE",
"458 713 CURVE SMOOTH"
);
}
);
width = 937;
},
{
layerId = "9F2BC935-6AE7-4E60-84C9-D3B586669EA4";
paths = (
{
closed = 1;
nodes = (
"200 342 OFFCURVE",
"144 236 OFFCURVE",
"144 159 CURVE SMOOTH",
"144 82 OFFCURVE",
"188 35 OFFCURVE",
"265 35 CURVE SMOOTH",
"355 35 OFFCURVE",
"443 111 OFFCURVE",
"443 207 CURVE SMOOTH",
"443 293 OFFCURVE",
"385 342 OFFCURVE",
"309 342 CURVE SMOOTH"
);
},
{
closed = 1;
nodes = (
"338 265 OFFCURVE",
"352 212 OFFCURVE",
"352 177 CURVE SMOOTH",
"352 132 OFFCURVE",
"312 108 OFFCURVE",
"279 108 CURVE SMOOTH",
"238 108 OFFCURVE",
"224 162 OFFCURVE",
"224 196 CURVE SMOOTH",
"224 240 OFFCURVE",
"263 265 OFFCURVE",
"297 265 CURVE SMOOTH"
);
},
{
closed = 1;
nodes = (
"465 179 OFFCURVE",
"469 259 OFFCURVE",
"511 258 CURVE SMOOTH",
"570 256 OFFCURVE",
"546 145 OFFCURVE",
"528 30 CURVE SMOOTH",
"525 13 OFFCURVE",
"527 -1 OFFCURVE",
"542 -1 CURVE SMOOTH",
"574 -1 OFFCURVE",
"628 60 OFFCURVE",
"635 121 CURVE SMOOTH",
"644 196 OFFCURVE",
"664 342 OFFCURVE",
"518 342 CURVE SMOOTH",
"381 342 OFFCURVE",
"363 176 OFFCURVE",
"355 30 CURVE SMOOTH",
"354 13 OFFCURVE",
"355 -1 OFFCURVE",
"368 -1 CURVE SMOOTH",
"396 -1 OFFCURVE",
"451 64 OFFCURVE",
"458 121 CURVE SMOOTH"
);
},
{
closed = 1;
nodes = (
"854 506 OFFCURVE",
"671 621 OFFCURVE",
"458 621 CURVE SMOOTH",
"240 621 OFFCURVE",
"50 512 OFFCURVE",
"50 360 CURVE SMOOTH",
"50 275 OFFCURVE",
"136 210 OFFCURVE",
"177 210 CURVE",
"244 315 LINE",
"208 305 OFFCURVE",
"169 329 OFFCURVE",
"169 367 CURVE SMOOTH",
"169 447 OFFCURVE",
"296 526 OFFCURVE",
"440 526 CURVE SMOOTH",
"607 526 OFFCURVE",
"735 431 OFFCURVE",
"735 328 CURVE SMOOTH",
"735 218 OFFCURVE",
"665 166 OFFCURVE",
"665 141 CURVE SMOOTH",
"665 133 OFFCURVE",
"672 130 OFFCURVE",
"679 130 CURVE SMOOTH",
"715 130 OFFCURVE",
"854 206 OFFCURVE",
"854 356 CURVE SMOOTH"
);
}
);
width = 894;
}
);
unicode = 0B15;
},
{
glyphname = "kha-oriya";
lastChange = "2021-08-24 04:51:21 +0000";
layers = (
{
layerId = "555B79C6-6D98-46E7-9307-77C37975E414";
paths = (
{
closed = 1;
nodes = (
"405 266 OFFCURVE",
"435 233 OFFCURVE",
"435 171 CURVE SMOOTH",
"435 129 OFFCURVE",
"408 100 OFFCURVE",
"369 100 CURVE SMOOTH",
"320 100 OFFCURVE",
"305 153 OFFCURVE",
"305 199 CURVE SMOOTH",
"305 246 OFFCURVE",
"332 266 OFFCURVE",
"368 266 CURVE SMOOTH"
);
},
{
closed = 1;
nodes = (
"162 76 OFFCURVE",
"236 -22 OFFCURVE",
"346 -22 CURVE SMOOTH",
"460 -22 OFFCURVE",
"560 81 OFFCURVE",
"560 193 CURVE SMOOTH",
"560 323 OFFCURVE",
"476 383 OFFCURVE",
"395 383 CURVE SMOOTH",
"274 383 OFFCURVE",
"162 293 OFFCURVE",
"162 174 CURVE SMOOTH"
);
},
{
closed = 1;
nodes = (
"195 710 OFFCURVE",
"28 510 OFFCURVE",
"28 359 CURVE SMOOTH",
"28 265 OFFCURVE",
"89 189 OFFCURVE",
"170 149 CURVE",
"247 287 LINE",
"247 287 OFFCURVE",
"173 307 OFFCURVE",
"172 380 CURVE SMOOTH",
"170 501 OFFCURVE",
"317 574 OFFCURVE",
"416 569 CURVE SMOOTH",
"449 567 OFFCURVE",
"476 550 OFFCURVE",
"476 531 CURVE SMOOTH",
"476 363 OFFCURVE",
"601 329 OFFCURVE",
"641 330 CURVE SMOOTH",
"678 331 OFFCURVE",
"704 339 OFFCURVE",
"735 355 CURVE SMOOTH",
"735 355 OFFCURVE",
"715 131 OFFCURVE",
"702 65 CURVE SMOOTH",
"695 29 OFFCURVE",
"686 -17 OFFCURVE",
"721 -17 CURVE SMOOTH",
"782 -17 OFFCURVE",
"844 95 OFFCURVE",
"849 173 CURVE SMOOTH",
"860 338 OFFCURVE",
"888 615 OFFCURVE",
"894 660 CURVE SMOOTH",
"895 668 OFFCURVE",
"895 678 OFFCURVE",
"882 678 CURVE SMOOTH",
"869 678 OFFCURVE",
"825 680 OFFCURVE",
"777 680 CURVE SMOOTH",
"765 680 OFFCURVE",
"762 674 OFFCURVE",
"760 664 CURVE SMOOTH",
"739 525 LINE SMOOTH",
"728 491 OFFCURVE",
"692 466 OFFCURVE",
"660 467 CURVE SMOOTH",
"544 471 OFFCURVE",
"592 646 OFFCURVE",
"592 671 CURVE SMOOTH",
"592 711 OFFCURVE",
"476 710 OFFCURVE",
"458 710 CURVE SMOOTH"
);
}
);
width = 924;
},
{
background = {
paths = (
{
closed = 1;
nodes = (
"333 245 OFFCURVE",
"349 188 OFFCURVE",
"349 150 CURVE SMOOTH",
"349 101 OFFCURVE",
"306 75 OFFCURVE",
"269 75 CURVE SMOOTH",
"225 75 OFFCURVE",
"210 134 OFFCURVE",
"210 172 CURVE SMOOTH",
"210 219 OFFCURVE",
"251 245 OFFCURVE",
"289 245 CURVE SMOOTH"
);
},
{
closed = 1;
nodes = (
"854 506 OFFCURVE",
"671 621 OFFCURVE",
"458 621 CURVE SMOOTH",
"240 621 OFFCURVE",
"50 512 OFFCURVE",
"50 360 CURVE SMOOTH",
"50 275 OFFCURVE",
"136 210 OFFCURVE",
"177 210 CURVE",
"244 315 LINE",
"208 305 OFFCURVE",
"169 329 OFFCURVE",
"169 367 CURVE SMOOTH",
"169 447 OFFCURVE",
"296 526 OFFCURVE",
"440 526 CURVE SMOOTH",
"607 526 OFFCURVE",
"735 431 OFFCURVE",
"735 328 CURVE SMOOTH",
"735 218 OFFCURVE",
"665 166 OFFCURVE",
"665 141 CURVE SMOOTH",
"665 133 OFFCURVE",
"672 130 OFFCURVE",
"679 130 CURVE SMOOTH",
"715 130 OFFCURVE",
"854 206 OFFCURVE",
"854 356 CURVE SMOOTH"
);
},
{
closed = 1;
nodes = (
"768 622 OFFCURVE",
"768 633 OFFCURVE",
"755 633 CURVE SMOOTH",
"741 633 OFFCURVE",
"726 633 OFFCURVE",
"677 633 CURVE SMOOTH",
"664 633 OFFCURVE",
"660 627 OFFCURVE",
"659 616 CURVE SMOOTH",
"640 407 OFFCURVE",
"608 104 OFFCURVE",
"604 76 CURVE SMOOTH",
"599 39 OFFCURVE",
"591 -4 OFFCURVE",
"618 -4 CURVE SMOOTH",
"662 -4 OFFCURVE",
"721 108 OFFCURVE",
"729 187 CURVE SMOOTH",
"744 338 OFFCURVE",
"761 569 OFFCURVE",
"767 614 CURVE SMOOTH"
);
},
{
closed = 1;
nodes = (
"768 622 OFFCURVE",
"768 633 OFFCURVE",
"755 633 CURVE SMOOTH",
"741 633 OFFCURVE",
"726 633 OFFCURVE",
"677 633 CURVE SMOOTH",
"664 633 OFFCURVE",
"660 627 OFFCURVE",
"659 616 CURVE SMOOTH",
"640 407 OFFCURVE",
"608 104 OFFCURVE",
"604 76 CURVE SMOOTH",
"599 39 OFFCURVE",
"591 -4 OFFCURVE",
"618 -4 CURVE SMOOTH",
"662 -4 OFFCURVE",
"721 108 OFFCURVE",
"729 187 CURVE SMOOTH",
"744 338 OFFCURVE",
"761 569 OFFCURVE",
"767 614 CURVE SMOOTH"
);
}
);
};
layerId = "9F2BC935-6AE7-4E60-84C9-D3B586669EA4";
paths = (
{
closed = 1;
nodes = (
"183 330 OFFCURVE",
"122 214 OFFCURVE",
"122 130 CURVE SMOOTH",
"122 47 OFFCURVE",
"170 -4 OFFCURVE",
"253 -4 CURVE SMOOTH",
"352 -4 OFFCURVE",
"448 79 OFFCURVE",
"448 183 CURVE SMOOTH",
"448 276 OFFCURVE",
"385 330 OFFCURVE",
"303 330 CURVE SMOOTH"
);
},
{
closed = 1;
nodes = (
"333 245 OFFCURVE",
"349 188 OFFCURVE",
"349 150 CURVE SMOOTH",
"349 101 OFFCURVE",
"306 75 OFFCURVE",
"269 75 CURVE SMOOTH",
"225 75 OFFCURVE",
"210 134 OFFCURVE",
"210 172 CURVE SMOOTH",
"210 219 OFFCURVE",
"251 245 OFFCURVE",
"289 245 CURVE SMOOTH"
);
},
{
closed = 1;
nodes = (
"178 630 OFFCURVE",
"50 477 OFFCURVE",
"50 360 CURVE SMOOTH",
"50 274 OFFCURVE",
"132 219 OFFCURVE",
"168 219 CURVE",
"231 311 LINE",
"204 311 OFFCURVE",
"169 330 OFFCURVE",
"169 368 CURVE SMOOTH",
"169 438 OFFCURVE",
"277 526 OFFCURVE",
"401 526 CURVE",
"321 430 OFFCURVE",
"393 326 OFFCURVE",
"496 326 CURVE SMOOTH",
"549 326 OFFCURVE",
"599 341 OFFCURVE",
"637 378 CURVE SMOOTH",
"621 222 OFFCURVE",
"608 104 OFFCURVE",
"604 76 CURVE SMOOTH",
"599 39 OFFCURVE",
"591 -4 OFFCURVE",
"618 -4 CURVE SMOOTH",
"662 -4 OFFCURVE",
"721 108 OFFCURVE",
"729 187 CURVE SMOOTH",
"746 360 OFFCURVE",
"761 569 OFFCURVE",
"766 614 CURVE SMOOTH",
"767 623 OFFCURVE",
"767 633 OFFCURVE",
"754 633 CURVE SMOOTH",
"676 633 LINE SMOOTH",
"663 633 OFFCURVE",
"659 627 OFFCURVE",
"658 616 CURVE SMOOTH",
"655 579 LINE SMOOTH",
"645 452 OFFCURVE",
"550 418 OFFCURVE",
"513 418 CURVE SMOOTH",
"484 418 OFFCURVE",
"463 438 OFFCURVE",
"462 466 CURVE SMOOTH",
"459 527 OFFCURVE",
"532 556 OFFCURVE",
"532 569 CURVE SMOOTH",
"532 585 OFFCURVE",
"520 630 OFFCURVE",
"492 630 CURVE SMOOTH"
);
}
);
width = 806;
}
);
unicode = 0B16;
},
{
glyphname = "ga-oriya";
lastChange = "2021-08-24 04:51:31 +0000";
layers = (
{
layerId = "555B79C6-6D98-46E7-9307-77C37975E414";
paths = (
{
closed = 1;
nodes = (
"405 266 OFFCURVE",
"435 233 OFFCURVE",
"435 171 CURVE SMOOTH",
"435 129 OFFCURVE",
"408 100 OFFCURVE",
"369 100 CURVE SMOOTH",
"320 100 OFFCURVE",
"305 153 OFFCURVE",
"305 199 CURVE SMOOTH",
"305 246 OFFCURVE",
"332 266 OFFCURVE",
"368 266 CURVE SMOOTH"
);
},
{
closed = 1;
nodes = (
"162 76 OFFCURVE",
"236 -22 OFFCURVE",
"346 -22 CURVE SMOOTH",
"460 -22 OFFCURVE",
"560 81 OFFCURVE",
"560 193 CURVE SMOOTH",
"560 323 OFFCURVE",
"476 383 OFFCURVE",
"395 383 CURVE SMOOTH",
"274 383 OFFCURVE",
"162 293 OFFCURVE",
"162 174 CURVE SMOOTH"
);
},
{
closed = 1;
nodes = (
"201 707 OFFCURVE",
"28 510 OFFCURVE",
"28 359 CURVE SMOOTH",
"28 265 OFFCURVE",
"89 189 OFFCURVE",
"170 149 CURVE",
"247 287 LINE",
"247 287 OFFCURVE",
"174 307 OFFCURVE",
"172 380 CURVE SMOOTH",
"169 508 OFFCURVE",
"332 576 OFFCURVE",
"407 576 CURVE SMOOTH",
"550 576 OFFCURVE",
"637 478 OFFCURVE",
"695 395 CURVE",
"678 219 OFFCURVE",
"660 84 OFFCURVE",
"658 67 CURVE SMOOTH",
"654 30 OFFCURVE",
"641 -17 OFFCURVE",
"677 -17 CURVE SMOOTH",
"740 -17 OFFCURVE",
"801 98 OFFCURVE",
"809 178 CURVE SMOOTH",
"825 341 OFFCURVE",
"856 616 OFFCURVE",
"862 660 CURVE SMOOTH",
"863 668 OFFCURVE",
"863 679 OFFCURVE",
"850 679 CURVE SMOOTH",
"836 679 OFFCURVE",
"791 681 OFFCURVE",
"742 681 CURVE SMOOTH",
"729 681 OFFCURVE",
"725 675 OFFCURVE",
"724 664 CURVE SMOOTH",
"715 586 LINE",
"676 625 OFFCURVE",
"581 707 OFFCURVE",
"423 707 CURVE SMOOTH"
);
}
);
width = 891;
},
{
background = {
paths = (
{
closed = 1;
nodes = (
"742 622 OFFCURVE",
"742 633 OFFCURVE",
"729 633 CURVE SMOOTH",
"715 633 OFFCURVE",
"700 633 OFFCURVE",
"651 633 CURVE SMOOTH",
"638 633 OFFCURVE",
"634 627 OFFCURVE",
"633 616 CURVE SMOOTH",
"614 407 OFFCURVE",
"582 104 OFFCURVE",
"578 76 CURVE SMOOTH",
"573 39 OFFCURVE",
"565 -4 OFFCURVE",
"592 -4 CURVE SMOOTH",
"636 -4 OFFCURVE",
"695 108 OFFCURVE",
"703 187 CURVE SMOOTH",
"718 338 OFFCURVE",
"735 569 OFFCURVE",
"741 614 CURVE SMOOTH"
);
}
);
};
layerId = "9F2BC935-6AE7-4E60-84C9-D3B586669EA4";
paths = (
{
closed = 1;
nodes = (
"185 342 OFFCURVE",
"122 222 OFFCURVE",
"122 135 CURVE SMOOTH",
"122 49 OFFCURVE",
"172 -4 OFFCURVE",
"258 -4 CURVE SMOOTH",
"360 -4 OFFCURVE",
"459 82 OFFCURVE",
"459 190 CURVE SMOOTH",
"459 287 OFFCURVE",
"394 342 OFFCURVE",
"309 342 CURVE SMOOTH"
);
},
{
closed = 1;
nodes = (
"340 254 OFFCURVE",
"357 196 OFFCURVE",
"357 155 CURVE SMOOTH",
"357 105 OFFCURVE",
"312 78 OFFCURVE",
"274 78 CURVE SMOOTH",
"229 78 OFFCURVE",
"213 139 OFFCURVE",
"213 178 CURVE SMOOTH",
"213 227 OFFCURVE",
"256 254 OFFCURVE",
"295 254 CURVE SMOOTH"
);
},
{
closed = 1;
nodes = (
"50 283 OFFCURVE",
"122 228 OFFCURVE",
"168 228 CURVE",
"228 321 LINE",
"196 321 OFFCURVE",
"169 340 OFFCURVE",
"169 378 CURVE SMOOTH",
"169 448 OFFCURVE",
"268 523 OFFCURVE",
"399 523 CURVE SMOOTH",
"504 523 OFFCURVE",
"617 457 OFFCURVE",
"609 365 CURVE SMOOTH",
"598 244 OFFCURVE",
"582 104 OFFCURVE",
"578 76 CURVE SMOOTH",
"573 39 OFFCURVE",
"565 -4 OFFCURVE",
"592 -4 CURVE SMOOTH",
"636 -4 OFFCURVE",
"695 108 OFFCURVE",
"703 187 CURVE SMOOTH",
"718 338 OFFCURVE",
"735 569 OFFCURVE",
"741 614 CURVE SMOOTH",
"742 622 OFFCURVE",
"742 633 OFFCURVE",
"729 633 CURVE SMOOTH",
"651 633 LINE SMOOTH",
"638 633 OFFCURVE",
"634 627 OFFCURVE",
"633 616 CURVE SMOOTH",
"627 550 LINE",
"561 593 OFFCURVE",
"496 617 OFFCURVE",
"410 617 CURVE SMOOTH",
"221 617 OFFCURVE",
"50 503 OFFCURVE",
"50 363 CURVE SMOOTH"
);
}
);
width = 781;
}
);
unicode = 0B17;
},
{
glyphname = "gha-oriya";
lastChange = "2021-08-24 04:51:38 +0000";
layers = (
{
layerId = "555B79C6-6D98-46E7-9307-77C37975E414";
paths = (
{
closed = 1;
nodes = (
"480 214 OFFCURVE",
"480 237 OFFCURVE",
"473 242 CURVE SMOOTH",
"465 248 OFFCURVE",
"395 249 OFFCURVE",
"386 238 CURVE SMOOTH",
"382 233 OFFCURVE",
"381 209 OFFCURVE",
"381 198 CURVE SMOOTH",
"381 167 OFFCURVE",
"346 129 OFFCURVE",
"295 132 CURVE SMOOTH",
"265 134 OFFCURVE",
"236 167 OFFCURVE",
"235 207 CURVE SMOOTH",
"234 258 OFFCURVE",
"279 294 OFFCURVE",
"268 297 CURVE SMOOTH",
"167 321 LINE",
"151 297 OFFCURVE",
"112 207 OFFCURVE",
"113 170 CURVE SMOOTH",
"115 84 OFFCURVE",
"190 11 OFFCURVE",
"275 11 CURVE SMOOTH",
"322 11 OFFCURVE",
"378 20 OFFCURVE",
"425 86 CURVE",
"449 23 OFFCURVE",
"503 10 OFFCURVE",
"546 9 CURVE SMOOTH",
"593 8 OFFCURVE",
"638 32 OFFCURVE",
"660 68 CURVE",
"654 32 OFFCURVE",
"652 -17 OFFCURVE",
"677 -17 CURVE SMOOTH",
"740 -17 OFFCURVE",
"801 98 OFFCURVE",
"809 178 CURVE SMOOTH",
"825 341 OFFCURVE",
"856 616 OFFCURVE",
"862 660 CURVE SMOOTH",
"863 668 OFFCURVE",
"863 679 OFFCURVE",
"850 679 CURVE SMOOTH",
"836 679 OFFCURVE",
"791 681 OFFCURVE",
"742 681 CURVE SMOOTH",
"729 681 OFFCURVE",
"725 675 OFFCURVE",
"724 664 CURVE SMOOTH",
"715 586 LINE",
"676 625 OFFCURVE",
"602 707 OFFCURVE",
"444 707 CURVE SMOOTH",
"222 707 OFFCURVE",
"49 520 OFFCURVE",
"49 369 CURVE SMOOTH",
"49 275 OFFCURVE",
"127 191 OFFCURVE",
"191 159 CURVE",
"268 297 LINE",
"268 297 OFFCURVE",
"195 327 OFFCURVE",
"193 390 CURVE SMOOTH",
"190 506 OFFCURVE",
"331 576 OFFCURVE",
"414 576 CURVE SMOOTH",
"548 576 OFFCURVE",
"647 485 OFFCURVE",
"695 395 CURVE",
"690 343 OFFCURVE",
"685 304 OFFCURVE",
"680 261 CURVE SMOOTH",
"674 203 OFFCURVE",
"634 135 OFFCURVE",
"574 133 CURVE SMOOTH",
"515 131 OFFCURVE",
"480 167 OFFCURVE",
"480 201 CURVE SMOOTH"
);
}
);
width = 892;
},
{
background = {
paths = (
{
closed = 1;
nodes = (
"90 305 OFFCURVE",
"175 244 OFFCURVE",
"211 244 CURVE",
"271 334 LINE",
"233 334 OFFCURVE",
"209 352 OFFCURVE",
"209 387 CURVE SMOOTH",
"209 460 OFFCURVE",
"319 526 OFFCURVE",
"420 526 CURVE SMOOTH",
"526 526 OFFCURVE",
"603 448 OFFCURVE",
"623 406 CURVE",
"607 250 OFFCURVE",
"592 107 OFFCURVE",
"589 88 CURVE SMOOTH",
"584 51 OFFCURVE",
"581 -4 OFFCURVE",
"608 -4 CURVE SMOOTH",
"652 -4 OFFCURVE",
"702 120 OFFCURVE",
"710 199 CURVE SMOOTH",
"734 445 LINE SMOOTH",
"742 525 OFFCURVE",
"748 591 OFFCURVE",
"751 614 CURVE SMOOTH",
"752 622 OFFCURVE",
"752 633 OFFCURVE",
"739 633 CURVE SMOOTH",
"661 633 LINE SMOOTH",
"648 633 OFFCURVE",
"644 627 OFFCURVE",
"643 616 CURVE SMOOTH",
"637 550 LINE",
"597 585 OFFCURVE",
"526 617 OFFCURVE",
"431 617 CURVE SMOOTH",
"252 617 OFFCURVE",
"90 515 OFFCURVE",
"90 378 CURVE SMOOTH"
);
},
{
closed = 1;
nodes = (
"608 160 OFFCURVE",
"571 123 OFFCURVE",
"511 123 CURVE SMOOTH",
"483 123 OFFCURVE",
"450 134 OFFCURVE",
"435 175 CURVE SMOOTH",
"430 189 OFFCURVE",
"429 194 OFFCURVE",
"421 195 CURVE SMOOTH",
"411 196 OFFCURVE",
"384 197 OFFCURVE",
"372 195 CURVE SMOOTH",
"364 194 OFFCURVE",
"363 187 OFFCURVE",
"358 174 CURVE SMOOTH",
"342 133 OFFCURVE",
"306 127 OFFCURVE",
"277 127 CURVE SMOOTH",
"229 127 OFFCURVE",
"200 160 OFFCURVE",
"200 193 CURVE SMOOTH",
"200 252 OFFCURVE",
"294 262 OFFCURVE",
"294 278 CURVE SMOOTH",
"294 293 OFFCURVE",
"284 334 OFFCURVE",
"271 334 CURVE SMOOTH",
"253 334 OFFCURVE",
"89 297 OFFCURVE",
"91 178 CURVE SMOOTH",
"92 110 OFFCURVE",
"153 36 OFFCURVE",
"267 36 CURVE SMOOTH",
"319 36 OFFCURVE",
"361 53 OFFCURVE",
"391 84 CURVE",
"413 55 OFFCURVE",
"461 36 OFFCURVE",
"502 36 CURVE SMOOTH",
"581 36 OFFCURVE",
"617 73 OFFCURVE",
"630 127 CURVE",
"617 217 LINE"
);
},
{
closed = 1;
nodes = (
"752 622 OFFCURVE",
"752 633 OFFCURVE",
"739 633 CURVE SMOOTH",
"725 633 OFFCURVE",
"710 633 OFFCURVE",
"661 633 CURVE SMOOTH",
"648 633 OFFCURVE",
"644 627 OFFCURVE",
"643 616 CURVE SMOOTH",
"624 407 OFFCURVE",
"592 104 OFFCURVE",
"588 76 CURVE SMOOTH",
"583 39 OFFCURVE",
"575 -4 OFFCURVE",
"602 -4 CURVE SMOOTH",
"646 -4 OFFCURVE",
"705 108 OFFCURVE",
"713 187 CURVE SMOOTH",
"728 338 OFFCURVE",
"745 569 OFFCURVE",
"751 614 CURVE SMOOTH"
);
}
);
};
layerId = "9F2BC935-6AE7-4E60-84C9-D3B586669EA4";
paths = (
{
closed = 1;
nodes = (
"50 305 OFFCURVE",
"124 242 OFFCURVE",
"170 242 CURVE",
"231 334 LINE",
"193 334 OFFCURVE",
"169 352 OFFCURVE",
"169 387 CURVE SMOOTH",
"169 460 OFFCURVE",
"279 526 OFFCURVE",
"380 526 CURVE SMOOTH",
"486 526 OFFCURVE",
"563 448 OFFCURVE",
"583 406 CURVE",
"567 250 OFFCURVE",
"552 104 OFFCURVE",
"548 76 CURVE SMOOTH",
"543 39 OFFCURVE",
"535 -4 OFFCURVE",
"562 -4 CURVE SMOOTH",
"606 -4 OFFCURVE",
"665 108 OFFCURVE",
"673 187 CURVE SMOOTH",
"688 338 OFFCURVE",
"705 569 OFFCURVE",
"711 614 CURVE SMOOTH",
"712 622 OFFCURVE",
"712 633 OFFCURVE",
"699 633 CURVE SMOOTH",
"621 633 LINE SMOOTH",
"608 633 OFFCURVE",
"604 627 OFFCURVE",
"603 616 CURVE SMOOTH",
"597 550 LINE",
"557 585 OFFCURVE",
"481 617 OFFCURVE",
"386 617 CURVE SMOOTH",
"207 617 OFFCURVE",
"50 515 OFFCURVE",
"50 386 CURVE SMOOTH"
);
},
{
closed = 1;
nodes = (
"559 173 OFFCURVE",
"522 132 OFFCURVE",
"475 132 CURVE SMOOTH",
"441 132 OFFCURVE",
"411 148 OFFCURVE",
"395 194 CURVE SMOOTH",
"390 208 OFFCURVE",
"389 214 OFFCURVE",
"381 214 CURVE SMOOTH",
"371 214 OFFCURVE",
"344 214 OFFCURVE",
"332 214 CURVE SMOOTH",
"324 214 OFFCURVE",
"323 206 OFFCURVE",
"318 193 CURVE SMOOTH",
"302 152 OFFCURVE",
"266 129 OFFCURVE",
"234 129 CURVE SMOOTH",
"189 129 OFFCURVE",
"160 160 OFFCURVE",
"160 193 CURVE SMOOTH",
"160 252 OFFCURVE",
"254 262 OFFCURVE",
"254 278 CURVE SMOOTH",
"254 293 OFFCURVE",
"244 334 OFFCURVE",
"231 334 CURVE SMOOTH",
"204 334 OFFCURVE",
"51 296 OFFCURVE",
"51 178 CURVE SMOOTH",
"51 106 OFFCURVE",
"113 36 OFFCURVE",
"210 36 CURVE SMOOTH",
"279 36 OFFCURVE",
"327 70 OFFCURVE",
"351 103 CURVE",
"372 70 OFFCURVE",
"414 36 OFFCURVE",
"471 36 CURVE SMOOTH",
"526 36 OFFCURVE",
"572 63 OFFCURVE",
"590 122 CURVE",
"567 249 LINE"
);
}
);
width = 751;
}
);
unicode = 0B18;
},
{
glyphname = "nga-oriya";
lastChange = "2021-08-24 04:51:45 +0000";
layers = (
{
layerId = "555B79C6-6D98-46E7-9307-77C37975E414";
paths = (
{
closed = 1;
nodes = (
"342 262 OFFCURVE",
"413 256 OFFCURVE",
"413 177 CURVE SMOOTH",
"413 136 OFFCURVE",
"364 96 OFFCURVE",
"311 95 CURVE SMOOTH",
"234 94 OFFCURVE",
"217 159 OFFCURVE",
"217 191 CURVE SMOOTH",
"217 239 OFFCURVE",
"250 276 OFFCURVE",
"250 282 CURVE SMOOTH",
"250 287 OFFCURVE",
"246 289 OFFCURVE",
"231 290 CURVE SMOOTH",
"215 291 OFFCURVE",
"99 247 OFFCURVE",
"100 151 CURVE SMOOTH",
"101 84 OFFCURVE",
"157 -21 OFFCURVE",
"309 -20 CURVE SMOOTH",
"401 -19 OFFCURVE",
"536 37 OFFCURVE",
"536 173 CURVE SMOOTH",
"536 264 OFFCURVE",
"481 274 OFFCURVE",
"481 290 CURVE SMOOTH",
"481 297 OFFCURVE",
"512 355 OFFCURVE",
"541 355 CURVE SMOOTH",
"552 355 OFFCURVE",
"570 326 OFFCURVE",
"578 326 CURVE SMOOTH",
"582 326 OFFCURVE",
"587 328 OFFCURVE",
"588 334 CURVE SMOOTH",
"589 342 OFFCURVE",
"589 370 OFFCURVE",
"576 392 CURVE SMOOTH",
"561 417 OFFCURVE",
"515 447 OFFCURVE",
"493 447 CURVE SMOOTH",
"442 447 OFFCURVE",
"342 322 OFFCURVE",
"342 279 CURVE SMOOTH"
);
},
{
closed = 1;
nodes = (
"886 566 OFFCURVE",
"916 536 OFFCURVE",
"916 477 CURVE SMOOTH",
"916 438 OFFCURVE",
"891 410 OFFCURVE",
"853 410 CURVE SMOOTH",
"807 410 OFFCURVE",
"792 461 OFFCURVE",
"792 504 CURVE SMOOTH",
"792 549 OFFCURVE",
"818 566 OFFCURVE",
"852 566 CURVE SMOOTH"
);
},
{
closed = 1;
nodes = (
"28 265 OFFCURVE",
"89 189 OFFCURVE",
"170 149 CURVE",
"247 287 LINE",
"247 287 OFFCURVE",
"172 307 OFFCURVE",
"172 386 CURVE SMOOTH",
"172 456 OFFCURVE",
"284 579 OFFCURVE",
"446 582 CURVE SMOOTH",
"525 584 OFFCURVE",
"606 548 OFFCURVE",
"657 497 CURVE",
"656 481 LINE SMOOTH",
"656 387 OFFCURVE",
"726 294 OFFCURVE",
"831 294 CURVE SMOOTH",
"940 294 OFFCURVE",
"1035 391 OFFCURVE",
"1035 498 CURVE SMOOTH",
"1035 621 OFFCURVE",
"955 679 OFFCURVE",
"878 679 CURVE SMOOTH",
"821 679 OFFCURVE",
"759 658 OFFCURVE",
"725 623 CURVE",
"675 668 OFFCURVE",
"566 710 OFFCURVE",
"458 710 CURVE SMOOTH",
"195 710 OFFCURVE",
"28 510 OFFCURVE",
"28 359 CURVE SMOOTH"
);
}
);
width = 1065;
},
{
background = {
paths = (
{
closed = 1;
nodes = (
"72 283 OFFCURVE",
"144 228 OFFCURVE",
"190 228 CURVE",
"250 321 LINE",
"218 321 OFFCURVE",
"191 340 OFFCURVE",
"191 378 CURVE SMOOTH",
"191 448 OFFCURVE",
"290 523 OFFCURVE",
"421 523 CURVE SMOOTH",
"526 523 OFFCURVE",
"639 457 OFFCURVE",
"633 385 CURVE SMOOTH",
"620 244 OFFCURVE",
"604 104 OFFCURVE",
"600 76 CURVE SMOOTH",
"595 39 OFFCURVE",
"587 -4 OFFCURVE",
"614 -4 CURVE SMOOTH",
"658 -4 OFFCURVE",
"717 108 OFFCURVE",
"725 187 CURVE SMOOTH",
"740 338 OFFCURVE",
"757 569 OFFCURVE",
"763 614 CURVE SMOOTH",
"764 622 OFFCURVE",
"764 633 OFFCURVE",
"751 633 CURVE SMOOTH",
"673 633 LINE SMOOTH",
"660 633 OFFCURVE",
"656 627 OFFCURVE",
"655 616 CURVE SMOOTH",
"649 550 LINE",
"583 593 OFFCURVE",
"518 617 OFFCURVE",
"432 617 CURVE SMOOTH",
"243 617 OFFCURVE",
"72 503 OFFCURVE",
"72 363 CURVE SMOOTH"
);
}
);
};
layerId = "9F2BC935-6AE7-4E60-84C9-D3B586669EA4";
paths = (
{
closed = 1;
nodes = (
"347 255 OFFCURVE",
"405 216 OFFCURVE",
"405 160 CURVE SMOOTH",
"405 110 OFFCURVE",
"344 84 OFFCURVE",
"256 84 CURVE SMOOTH",
"198 84 OFFCURVE",
"169 103 OFFCURVE",
"169 136 CURVE SMOOTH",
"169 207 OFFCURVE",
"273 249 OFFCURVE",
"273 265 CURVE SMOOTH",
"273 280 OFFCURVE",
"263 321 OFFCURVE",
"250 321 CURVE SMOOTH",
"232 321 OFFCURVE",
"49 254 OFFCURVE",
"50 135 CURVE SMOOTH",
"51 67 OFFCURVE",
"103 -8 OFFCURVE",
"253 -7 CURVE SMOOTH",
"400 -6 OFFCURVE",
"509 65 OFFCURVE",
"509 156 CURVE SMOOTH",
"509 223 OFFCURVE",
"445 274 OFFCURVE",
"441 277 CURVE",
"454 294 OFFCURVE",
"496 315 OFFCURVE",
"509 315 CURVE SMOOTH",
"520 315 OFFCURVE",
"526 301 OFFCURVE",
"533 301 CURVE SMOOTH",
"536 301 OFFCURVE",
"538 304 OFFCURVE",
"538 310 CURVE SMOOTH",
"538 348 OFFCURVE",
"507 405 OFFCURVE",
"481 405 CURVE SMOOTH",
"440 405 OFFCURVE",
"347 320 OFFCURVE",
"347 276 CURVE SMOOTH"
);
},
{
closed = 1;
nodes = (
"664 617 OFFCURVE",
"593 497 OFFCURVE",
"593 410 CURVE SMOOTH",
"593 324 OFFCURVE",
"643 271 OFFCURVE",
"729 271 CURVE SMOOTH",
"831 271 OFFCURVE",
"930 357 OFFCURVE",
"930 465 CURVE SMOOTH",
"930 562 OFFCURVE",
"866 617 OFFCURVE",
"780 617 CURVE SMOOTH"
);
},
{
closed = 1;
nodes = (
"809 532 OFFCURVE",
"828 473 OFFCURVE",
"828 433 CURVE SMOOTH",
"828 383 OFFCURVE",
"783 356 OFFCURVE",
"745 356 CURVE SMOOTH",
"700 356 OFFCURVE",
"684 417 OFFCURVE",
"684 456 CURVE SMOOTH",
"684 505 OFFCURVE",
"727 532 OFFCURVE",
"766 532 CURVE SMOOTH"
);
},
{
closed = 1;
nodes = (
"625 419 OFFCURVE",
"652 436 OFFCURVE",
"684 458 CURVE",
"684 494 OFFCURVE",
"628 617 OFFCURVE",
"432 617 CURVE SMOOTH",
"243 617 OFFCURVE",
"72 505 OFFCURVE",
"72 365 CURVE SMOOTH",
"72 288 OFFCURVE",
"138 228 OFFCURVE",
"190 228 CURVE",
"250 321 LINE",
"216 321 OFFCURVE",
"191 342 OFFCURVE",
"191 377 CURVE SMOOTH",
"191 450 OFFCURVE",
"290 522 OFFCURVE",
"414 522 CURVE SMOOTH",
"547 522 OFFCURVE",
"593 463 OFFCURVE",
"593 410 CURVE"
);
}
);
width = 970;
}
);
unicode = 0B19;
},
{
glyphname = "ca-oriya";
lastChange = "2021-08-24 04:51:51 +0000";
layers = (
{
layerId = "555B79C6-6D98-46E7-9307-77C37975E414";
paths = (
{
closed = 1;
nodes = (
"405 266 OFFCURVE",
"435 233 OFFCURVE",
"435 171 CURVE SMOOTH",
"435 129 OFFCURVE",
"408 100 OFFCURVE",
"369 100 CURVE SMOOTH",
"320 100 OFFCURVE",
"305 153 OFFCURVE",
"305 199 CURVE SMOOTH",
"305 246 OFFCURVE",
"332 266 OFFCURVE",
"368 266 CURVE SMOOTH"
);
},
{
closed = 1;
nodes = (
"162 76 OFFCURVE",
"236 -22 OFFCURVE",
"346 -22 CURVE SMOOTH",
"460 -22 OFFCURVE",
"560 81 OFFCURVE",
"560 193 CURVE SMOOTH",
"560 323 OFFCURVE",
"476 383 OFFCURVE",
"395 383 CURVE SMOOTH",
"274 383 OFFCURVE",
"162 293 OFFCURVE",
"162 174 CURVE SMOOTH"
);
},
{
closed = 1;
nodes = (
"622 585 OFFCURVE",
"757 456 OFFCURVE",
"757 337 CURVE SMOOTH",
"757 215 OFFCURVE",
"663 161 OFFCURVE",
"632 125 CURVE SMOOTH",
"625 117 OFFCURVE",
"632 108 OFFCURVE",
"651 108 CURVE SMOOTH",
"813 106 OFFCURVE",
"897 231 OFFCURVE",
"897 360 CURVE SMOOTH",
"897 564 OFFCURVE",
"727 711 OFFCURVE",
"458 710 CURVE SMOOTH",
"195 710 OFFCURVE",
"28 510 OFFCURVE",
"28 359 CURVE SMOOTH",
"28 265 OFFCURVE",
"89 189 OFFCURVE",
"170 149 CURVE",
"247 287 LINE",
"247 287 OFFCURVE",
"172 307 OFFCURVE",
"172 386 CURVE SMOOTH",
"172 456 OFFCURVE",
"284 579 OFFCURVE",
"446 582 CURVE SMOOTH"
);
}
);
width = 906;
},
{
background = {
paths = (
{
closed = 1;
nodes = (
"50 283 OFFCURVE",
"122 228 OFFCURVE",
"168 228 CURVE",
"228 321 LINE",
"196 321 OFFCURVE",
"169 340 OFFCURVE",
"169 378 CURVE SMOOTH",
"169 448 OFFCURVE",
"268 523 OFFCURVE",
"399 523 CURVE SMOOTH",
"504 523 OFFCURVE",
"617 457 OFFCURVE",
"611 385 CURVE SMOOTH",
"598 244 OFFCURVE",
"582 104 OFFCURVE",
"578 76 CURVE SMOOTH",
"573 39 OFFCURVE",
"565 -4 OFFCURVE",
"592 -4 CURVE SMOOTH",
"636 -4 OFFCURVE",
"695 108 OFFCURVE",
"703 187 CURVE SMOOTH",
"718 338 OFFCURVE",
"735 569 OFFCURVE",
"741 614 CURVE SMOOTH",
"742 622 OFFCURVE",
"742 633 OFFCURVE",
"729 633 CURVE SMOOTH",
"651 633 LINE SMOOTH",
"638 633 OFFCURVE",
"634 627 OFFCURVE",
"633 616 CURVE SMOOTH",
"627 550 LINE",
"561 593 OFFCURVE",
"496 617 OFFCURVE",
"410 617 CURVE SMOOTH",
"221 617 OFFCURVE",
"50 503 OFFCURVE",
"50 363 CURVE SMOOTH"
);
}
);
};
layerId = "9F2BC935-6AE7-4E60-84C9-D3B586669EA4";
paths = (
{
closed = 1;
nodes = (
"185 342 OFFCURVE",
"122 222 OFFCURVE",
"122 135 CURVE SMOOTH",
"122 49 OFFCURVE",
"172 -4 OFFCURVE",
"258 -4 CURVE SMOOTH",
"360 -4 OFFCURVE",
"459 82 OFFCURVE",
"459 190 CURVE SMOOTH",
"459 286 OFFCURVE",
"394 342 OFFCURVE",
"309 342 CURVE SMOOTH"
);
},
{
closed = 1;
nodes = (
"340 254 OFFCURVE",
"357 195 OFFCURVE",
"357 155 CURVE SMOOTH",
"357 105 OFFCURVE",
"312 78 OFFCURVE",
"274 78 CURVE SMOOTH",
"229 78 OFFCURVE",
"213 139 OFFCURVE",
"213 178 CURVE SMOOTH",
"213 227 OFFCURVE",
"256 254 OFFCURVE",
"295 254 CURVE SMOOTH"
);
},
{
closed = 1;
nodes = (
"569 73 OFFCURVE",
"739 175 OFFCURVE",
"739 340 CURVE SMOOTH",
"739 506 OFFCURVE",
"596 617 OFFCURVE",
"410 617 CURVE SMOOTH",
"221 617 OFFCURVE",
"50 505 OFFCURVE",
"50 364 CURVE SMOOTH",
"50 283 OFFCURVE",
"123 228 OFFCURVE",
"168 228 CURVE",
"228 321 LINE",
"194 321 OFFCURVE",
"169 342 OFFCURVE",
"169 377 CURVE SMOOTH",
"169 450 OFFCURVE",
"268 523 OFFCURVE",
"399 523 CURVE SMOOTH",
"528 523 OFFCURVE",
"620 428 OFFCURVE",
"620 320 CURVE SMOOTH",
"620 210 OFFCURVE",
"509 109 OFFCURVE",
"509 84 CURVE SMOOTH",
"509 76 OFFCURVE",
"516 73 OFFCURVE",
"523 73 CURVE SMOOTH"
);
}
);
width = 779;
}
);
unicode = 0B1A;
},
{
glyphname = "cha-oriya";
lastChange = "2021-08-24 04:51:56 +0000";
layers = (
{
layerId = "555B79C6-6D98-46E7-9307-77C37975E414";
paths = (
{
closed = 1;
nodes = (
"285 18 OFFCURVE",
"221 -22 OFFCURVE",
"156 -22 CURVE SMOOTH",
"79 -22 OFFCURVE",
"19 46 OFFCURVE",
"19 116 CURVE SMOOTH",
"19 204 OFFCURVE",
"91 278 OFFCURVE",
"183 278 CURVE SMOOTH",
"238 278 OFFCURVE",
"295 226 OFFCURVE",
"337 193 CURVE",
"378 226 OFFCURVE",
"432 278 OFFCURVE",
"488 278 CURVE SMOOTH",
"578 278 OFFCURVE",
"651 202 OFFCURVE",
"651 116 CURVE SMOOTH",
"651 46 OFFCURVE",
"592 -22 OFFCURVE",
"515 -22 CURVE SMOOTH",
"450 -22 OFFCURVE",
"387 18 OFFCURVE",
"337 72 CURVE"
);
},
{
closed = 1;
nodes = (
"211 150 OFFCURVE",
"182 168 OFFCURVE",
"167 168 CURVE SMOOTH",
"144 168 OFFCURVE",
"130 152 OFFCURVE",
"130 131 CURVE SMOOTH",
"130 106 OFFCURVE",
"156 85 OFFCURVE",
"179 85 CURVE SMOOTH",
"198 85 OFFCURVE",
"221 97 OFFCURVE",
"241 113 CURVE"
);
},
{
closed = 1;
nodes = (
"451 96 OFFCURVE",
"471 84 OFFCURVE",
"487 84 CURVE SMOOTH",
"514 84 OFFCURVE",
"538 103 OFFCURVE",
"538 129 CURVE SMOOTH",
"538 150 OFFCURVE",
"524 166 OFFCURVE",
"501 166 CURVE SMOOTH",
"486 166 OFFCURVE",
"462 140 OFFCURVE",
"430 112 CURVE"
);
},
{
closed = 1;
nodes = (
"317 383 OFFCURVE",
"298 370 OFFCURVE",
"298 336 CURVE SMOOTH",
"298 303 OFFCURVE",
"309 267 OFFCURVE",
"341 267 CURVE SMOOTH",
"368 267 OFFCURVE",
"389 288 OFFCURVE",
"389 318 CURVE SMOOTH",
"389 359 OFFCURVE",
"365 383 OFFCURVE",
"341 383 CURVE SMOOTH"
);
},
{
closed = 1;
nodes = (
"183 410 OFFCURVE",
"268 480 OFFCURVE",
"363 480 CURVE SMOOTH",
"421 480 OFFCURVE",
"487 432 OFFCURVE",
"487 334 CURVE SMOOTH",
"487 247 OFFCURVE",
"412 167 OFFCURVE",
"325 167 CURVE SMOOTH",
"240 167 OFFCURVE",
"183 244 OFFCURVE",
"183 319 CURVE SMOOTH"
);
},
{
closed = 1;
nodes = (
"287 582 OFFCURVE",
"192 523 OFFCURVE",
"192 445 CURVE SMOOTH",
"192 379 OFFCURVE",
"246 363 OFFCURVE",
"238 363 CURVE",
"170 240 LINE",
"113 267 OFFCURVE",
"56 350 OFFCURVE",
"56 434 CURVE SMOOTH",
"56 561 OFFCURVE",
"181 706 OFFCURVE",
"394 707 CURVE SMOOTH",
"591 708 OFFCURVE",
"717 603 OFFCURVE",
"717 460 CURVE SMOOTH",
"717 369 OFFCURVE",
"652 291 OFFCURVE",
"559 291 CURVE SMOOTH",
"538 291 OFFCURVE",
"534 300 OFFCURVE",
"540 306 CURVE SMOOTH",
"564 330 OFFCURVE",
"591 371 OFFCURVE",
"591 424 CURVE SMOOTH",
"591 494 OFFCURVE",
"506 585 OFFCURVE",
"375 583 CURVE SMOOTH"
);
}
);
width = 726;
},
{
background = {
paths = (
{
closed = 1;
nodes = (
"297 582 OFFCURVE",
"202 523 OFFCURVE",
"202 445 CURVE SMOOTH",
"202 379 OFFCURVE",
"256 363 OFFCURVE",
"248 363 CURVE",
"180 240 LINE",
"123 267 OFFCURVE",
"66 350 OFFCURVE",
"66 434 CURVE SMOOTH",
"66 561 OFFCURVE",
"191 706 OFFCURVE",
"404 707 CURVE SMOOTH",
"601 708 OFFCURVE",
"727 603 OFFCURVE",
"727 460 CURVE SMOOTH",
"727 369 OFFCURVE",
"662 291 OFFCURVE",
"569 291 CURVE SMOOTH",
"548 291 OFFCURVE",
"544 300 OFFCURVE",
"550 306 CURVE SMOOTH",
"574 330 OFFCURVE",
"601 371 OFFCURVE",
"601 424 CURVE SMOOTH",
"601 494 OFFCURVE",
"516 585 OFFCURVE",
"385 583 CURVE SMOOTH"
);
},
{
closed = 1;
nodes = (
"300 39 OFFCURVE",
"240 -7 OFFCURVE",
"180 -7 CURVE SMOOTH",
"101 -7 OFFCURVE",
"38 49 OFFCURVE",
"38 123 CURVE SMOOTH",
"38 204 OFFCURVE",
"109 263 OFFCURVE",
"193 263 CURVE SMOOTH",
"248 263 OFFCURVE",
"300 215 OFFCURVE",
"342 182 CURVE",
"384 215 OFFCURVE",
"422 263 OFFCURVE",
"477 263 CURVE SMOOTH",
"561 263 OFFCURVE",
"632 204 OFFCURVE",
"632 123 CURVE SMOOTH",
"632 49 OFFCURVE",
"569 -7 OFFCURVE",
"490 -7 CURVE SMOOTH",
"430 -7 OFFCURVE",
"370 39 OFFCURVE",
"335 84 CURVE"
);
},
{
closed = 1;
nodes = (
"239 172 OFFCURVE",
"197 186 OFFCURVE",
"178 186 CURVE SMOOTH",
"148 186 OFFCURVE",
"128 163 OFFCURVE",
"128 136 CURVE SMOOTH",
"128 104 OFFCURVE",
"162 77 OFFCURVE",
"191 77 CURVE SMOOTH",
"218 77 OFFCURVE",
"259 104 OFFCURVE",
"278 127 CURVE"
);
},
{
closed = 1;
nodes = (
"453 457 OFFCURVE",
"511 408 OFFCURVE",
"511 319 CURVE SMOOTH",
"511 222 OFFCURVE",
"421 144 OFFCURVE",
"329 144 CURVE SMOOTH",
"251 144 OFFCURVE",
"206 192 OFFCURVE",
"206 270 CURVE SMOOTH",
"206 348 OFFCURVE",
"270 457 OFFCURVE",
"375 457 CURVE SMOOTH"
);
},
{
closed = 1;
nodes = (
"331 379 OFFCURVE",
"292 355 OFFCURVE",
"292 311 CURVE SMOOTH",
"292 275 OFFCURVE",
"307 220 OFFCURVE",
"347 220 CURVE SMOOTH",
"382 220 OFFCURVE",
"423 245 OFFCURVE",
"423 289 CURVE SMOOTH",
"423 326 OFFCURVE",
"406 379 OFFCURVE",
"367 379 CURVE SMOOTH"
);
},
{
closed = 1;
nodes = (
"411 104 OFFCURVE",
"452 77 OFFCURVE",
"479 77 CURVE SMOOTH",
"508 77 OFFCURVE",
"542 104 OFFCURVE",
"542 136 CURVE SMOOTH",
"542 163 OFFCURVE",
"522 186 OFFCURVE",
"492 186 CURVE SMOOTH",
"473 186 OFFCURVE",
"431 172 OFFCURVE",
"392 127 CURVE"
);
},
{
closed = 1;
nodes = (
"848 226 OFFCURVE",
"709 150 OFFCURVE",
"673 150 CURVE SMOOTH",
"666 150 OFFCURVE",
"659 153 OFFCURVE",
"659 161 CURVE SMOOTH",
"659 186 OFFCURVE",
"729 238 OFFCURVE",
"729 348 CURVE SMOOTH",
"729 451 OFFCURVE",
"614 546 OFFCURVE",
"480 546 CURVE SMOOTH",
"306 546 OFFCURVE",
"250 467 OFFCURVE",
"250 436 CURVE SMOOTH",
"250 407 OFFCURVE",
"280 406 OFFCURVE",
"306 419 CURVE",
"261 300 LINE",
"220 300 OFFCURVE",
"134 343 OFFCURVE",
"134 428 CURVE SMOOTH",
"134 523 OFFCURVE",
"253 641 OFFCURVE",
"491 641 CURVE SMOOTH",
"690 641 OFFCURVE",
"848 526 OFFCURVE",
"848 376 CURVE SMOOTH"
);
}
);
};
layerId = "9F2BC935-6AE7-4E60-84C9-D3B586669EA4";
paths = (
{
closed = 1;
nodes = (
"234 158 OFFCURVE",
"195 171 OFFCURVE",
"178 171 CURVE SMOOTH",
"150 171 OFFCURVE",
"132 150 OFFCURVE",
"132 125 CURVE SMOOTH",
"132 95 OFFCURVE",
"163 70 OFFCURVE",
"190 70 CURVE SMOOTH",
"215 70 OFFCURVE",
"253 95 OFFCURVE",
"270 116 CURVE"
);
},
{
closed = 1;
nodes = (
"334 353 OFFCURVE",
"300 332 OFFCURVE",
"300 294 CURVE SMOOTH",
"300 262 OFFCURVE",
"313 214 OFFCURVE",
"348 214 CURVE SMOOTH",
"379 214 OFFCURVE",
"415 236 OFFCURVE",
"415 274 CURVE SMOOTH",
"415 307 OFFCURVE",
"400 353 OFFCURVE",
"366 353 CURVE SMOOTH"
);
},
{
closed = 1;
nodes = (
"417 97 OFFCURVE",
"454 72 OFFCURVE",
"479 72 CURVE SMOOTH",
"505 72 OFFCURVE",
"536 97 OFFCURVE",
"536 126 CURVE SMOOTH",
"536 150 OFFCURVE",
"518 171 OFFCURVE",
"491 171 CURVE SMOOTH",
"473 171 OFFCURVE",
"435 158 OFFCURVE",
"400 117 CURVE"
);
},
{
closed = 1;
nodes = (
"50 195 OFFCURVE",
"121 245 OFFCURVE",
"177 245 CURVE SMOOTH",
"195 245 OFFCURVE",
"215 239 OFFCURVE",
"222 236 CURVE",
"220 242 OFFCURVE",
"217 257 OFFCURVE",
"217 271 CURVE SMOOTH",
"217 342 OFFCURVE",
"273 435 OFFCURVE",
"373 435 CURVE SMOOTH",
"448 435 OFFCURVE",
"504 385 OFFCURVE",
"504 310 CURVE SMOOTH",
"504 284 OFFCURVE",
"491 253 OFFCURVE",
"481 241 CURVE",
"559 249 OFFCURVE",
"620 185 OFFCURVE",
"620 115 CURVE SMOOTH",
"620 44 OFFCURVE",
"559 -9 OFFCURVE",
"484 -9 CURVE SMOOTH",
"426 -9 OFFCURVE",
"369 33 OFFCURVE",
"331 74 CURVE",
"297 33 OFFCURVE",
"244 -9 OFFCURVE",
"186 -9 CURVE SMOOTH",
"111 -9 OFFCURVE",
"50 44 OFFCURVE",
"50 115 CURVE SMOOTH"
);
},
{
closed = 1;
nodes = (
"809 289 OFFCURVE",
"687 221 OFFCURVE",
"651 221 CURVE SMOOTH",
"644 221 OFFCURVE",
"637 224 OFFCURVE",
"637 232 CURVE SMOOTH",
"637 257 OFFCURVE",
"697 304 OFFCURVE",
"697 377 CURVE SMOOTH",
"697 471 OFFCURVE",
"600 546 OFFCURVE",
"474 546 CURVE SMOOTH",
"318 546 OFFCURVE",
"250 467 OFFCURVE",
"250 436 CURVE SMOOTH",
"250 407 OFFCURVE",
"280 406 OFFCURVE",
"306 419 CURVE",
"264 311 LINE",
"223 311 OFFCURVE",
"136 351 OFFCURVE",
"136 426 CURVE SMOOTH",
"136 523 OFFCURVE",
"253 641 OFFCURVE",
"491 641 CURVE SMOOTH",
"669 641 OFFCURVE",
"809 546 OFFCURVE",
"809 414 CURVE SMOOTH"
);
},
{
closed = 1;
nodes = (
"185 197 LINE",
"151 233 OFFCURVE",
"114 260 OFFCURVE",
"104 260 CURVE SMOOTH",
"97 260 OFFCURVE",
"92 253 OFFCURVE",
"86 253 CURVE SMOOTH",
"83 253 OFFCURVE",
"81 255 OFFCURVE",
"81 260 CURVE SMOOTH",
"81 287 OFFCURVE",
"110 334 OFFCURVE",
"133 334 CURVE SMOOTH",
"156 334 OFFCURVE",
"202 287 OFFCURVE",
"235 240 CURVE"
);
}
);
width = 849;
}
);
unicode = 0B1B;
},
{
glyphname = "ja-oriya";
lastChange = "2021-08-24 04:52:02 +0000";
layers = (
{
layerId = "555B79C6-6D98-46E7-9307-77C37975E414";
paths = (
{
closed = 1;
nodes = (
"401 -19 OFFCURVE",
"500 41 OFFCURVE",
"506 153 CURVE SMOOTH",
"508 201 OFFCURVE",
"496 247 OFFCURVE",
"465 273 CURVE",
"490 290 OFFCURVE",
"533 295 OFFCURVE",
"568 287 CURVE",
"564 247 OFFCURVE",
"550 55 OFFCURVE",
"548 39 CURVE SMOOTH",
"545 13 OFFCURVE",
"536 -61 OFFCURVE",
"566 -61 CURVE SMOOTH",
"608 -61 OFFCURVE",
"664 20 OFFCURVE",
"670 92 CURVE SMOOTH",
"683 247 OFFCURVE",
"691 333 OFFCURVE",
"692 362 CURVE SMOOTH",
"693 382 OFFCURVE",
"679 388 OFFCURVE",
"657 396 CURVE SMOOTH",
"610 413 OFFCURVE",
"507 415 OFFCURVE",
"434 392 CURVE SMOOTH",
"352 366 OFFCURVE",
"278 288 OFFCURVE",
"310 288 CURVE SMOOTH",
"346 288 OFFCURVE",
"388 236 OFFCURVE",
"388 180 CURVE SMOOTH",
"388 135 OFFCURVE",
"360 95 OFFCURVE",
"302 95 CURVE SMOOTH",
"234 94 OFFCURVE",
"217 159 OFFCURVE",
"217 191 CURVE SMOOTH",
"217 239 OFFCURVE",
"250 276 OFFCURVE",
"250 282 CURVE SMOOTH",
"250 287 OFFCURVE",
"246 289 OFFCURVE",
"231 290 CURVE SMOOTH",
"215 291 OFFCURVE",
"99 247 OFFCURVE",
"100 151 CURVE SMOOTH",
"101 84 OFFCURVE",
"148 -21 OFFCURVE",
"300 -20 CURVE SMOOTH"
);
},
{
closed = 1;
nodes = (
"624 585 OFFCURVE",
"767 456 OFFCURVE",
"767 322 CURVE SMOOTH",
"767 235 OFFCURVE",
"729 178 OFFCURVE",
"698 142 CURVE SMOOTH",
"691 134 OFFCURVE",
"697 125 OFFCURVE",
"708 125 CURVE SMOOTH",
"830 128 OFFCURVE",
"902 231 OFFCURVE",
"907 360 CURVE SMOOTH",
"914 569 OFFCURVE",
"727 711 OFFCURVE",
"458 710 CURVE SMOOTH",
"195 710 OFFCURVE",
"28 510 OFFCURVE",
"28 359 CURVE SMOOTH",
"28 265 OFFCURVE",
"89 189 OFFCURVE",
"170 149 CURVE",
"247 287 LINE",
"247 287 OFFCURVE",
"172 307 OFFCURVE",
"172 386 CURVE SMOOTH",
"172 456 OFFCURVE",
"284 579 OFFCURVE",
"446 582 CURVE SMOOTH"
);
}
);
width = 939;
},
{
background = {
paths = (
{
closed = 1;
nodes = (
"591 73 OFFCURVE",
"761 175 OFFCURVE",
"761 340 CURVE SMOOTH",
"761 506 OFFCURVE",
"618 617 OFFCURVE",
"432 617 CURVE SMOOTH",
"243 617 OFFCURVE",
"72 505 OFFCURVE",
"72 364 CURVE SMOOTH",
"72 283 OFFCURVE",
"145 228 OFFCURVE",
"190 228 CURVE",
"250 321 LINE",
"216 321 OFFCURVE",
"191 342 OFFCURVE",
"191 377 CURVE SMOOTH",
"191 450 OFFCURVE",
"290 523 OFFCURVE",
"421 523 CURVE SMOOTH",
"550 523 OFFCURVE",
"642 428 OFFCURVE",
"642 320 CURVE SMOOTH",
"642 210 OFFCURVE",
"531 109 OFFCURVE",
"531 84 CURVE SMOOTH",
"531 76 OFFCURVE",
"538 73 OFFCURVE",
"545 73 CURVE SMOOTH"
);
}
);
};
layerId = "9F2BC935-6AE7-4E60-84C9-D3B586669EA4";
paths = (
{
closed = 1;
nodes = (
"440 242 OFFCURVE",
"490 255 OFFCURVE",
"511 255 CURVE SMOOTH",
"530 255 OFFCURVE",
"530 241 OFFCURVE",
"528 216 CURVE SMOOTH",
"523 171 OFFCURVE",
"515 94 OFFCURVE",
"511 66 CURVE SMOOTH",
"506 29 OFFCURVE",
"500 -14 OFFCURVE",
"525 -14 CURVE SMOOTH",
"560 -14 OFFCURVE",
"612 50 OFFCURVE",
"620 111 CURVE SMOOTH",
"633 208 OFFCURVE",
"638 257 OFFCURVE",
"642 292 CURVE SMOOTH",
"647 340 OFFCURVE",
"621 356 OFFCURVE",
"573 356 CURVE SMOOTH",
"461 356 OFFCURVE",
"311 297 OFFCURVE",
"311 263 CURVE SMOOTH",
"311 242 OFFCURVE",
"371 197 OFFCURVE",
"371 145 CURVE SMOOTH",
"371 99 OFFCURVE",
"322 77 OFFCURVE",
"241 77 CURVE SMOOTH",
"187 77 OFFCURVE",
"160 94 OFFCURVE",
"160 125 CURVE SMOOTH",
"160 204 OFFCURVE",
"271 254 OFFCURVE",
"271 269 CURVE SMOOTH",
"271 283 OFFCURVE",
"262 321 OFFCURVE",
"250 321 CURVE SMOOTH",
"233 321 OFFCURVE",
"50 242 OFFCURVE",
"50 124 CURVE SMOOTH",
"50 61 OFFCURVE",
"99 -8 OFFCURVE",
"238 -8 CURVE SMOOTH",
"374 -7 OFFCURVE",
"467 57 OFFCURVE",
"467 141 CURVE SMOOTH",
"467 190 OFFCURVE",
"440 218 OFFCURVE",
"430 226 CURVE SMOOTH"
);
},
{
closed = 1;
nodes = (
"856 508 OFFCURVE",
"683 617 OFFCURVE",
"490 617 CURVE SMOOTH",
"264 617 OFFCURVE",
"72 511 OFFCURVE",
"72 368 CURVE SMOOTH",
"72 274 OFFCURVE",
"154 228 OFFCURVE",
"190 228 CURVE",
"250 321 LINE",
"216 321 OFFCURVE",
"191 342 OFFCURVE",
"191 377 CURVE SMOOTH",
"191 452 OFFCURVE",
"314 526 OFFCURVE",
"472 526 CURVE SMOOTH",
"632 526 OFFCURVE",
"737 424 OFFCURVE",
"737 330 CURVE SMOOTH",
"737 220 OFFCURVE",
"667 158 OFFCURVE",
"667 133 CURVE SMOOTH",
"667 125 OFFCURVE",
"674 122 OFFCURVE",
"681 122 CURVE SMOOTH",
"717 122 OFFCURVE",
"856 206 OFFCURVE",
"856 356 CURVE SMOOTH"
);
}
);
width = 896;
}
);
unicode = 0B1C;
},
{
glyphname = "jha-oriya";
lastChange = "2021-08-24 04:52:08 +0000";
layers = (
{
layerId = "555B79C6-6D98-46E7-9307-77C37975E414";
paths = (
{
closed = 1;
nodes = (
"405 266 OFFCURVE",
"435 233 OFFCURVE",
"435 171 CURVE SMOOTH",
"435 129 OFFCURVE",
"408 100 OFFCURVE",
"369 100 CURVE SMOOTH",
"320 100 OFFCURVE",
"305 153 OFFCURVE",
"305 199 CURVE SMOOTH",
"305 246 OFFCURVE",
"332 266 OFFCURVE",
"368 266 CURVE SMOOTH"
);
},
{
closed = 1;
nodes = (
"162 76 OFFCURVE",
"236 -22 OFFCURVE",
"346 -22 CURVE SMOOTH",
"460 -22 OFFCURVE",
"560 81 OFFCURVE",
"560 193 CURVE SMOOTH",
"560 323 OFFCURVE",
"476 383 OFFCURVE",
"395 383 CURVE SMOOTH",
"274 383 OFFCURVE",
"162 293 OFFCURVE",
"162 174 CURVE SMOOTH"
);
},
{
closed = 1;
nodes = (
"865 627 OFFCURVE",
"782 716 OFFCURVE",
"728 716 CURVE SMOOTH",
"721 716 OFFCURVE",
"715 713 OFFCURVE",
"715 703 CURVE SMOOTH",
"715 679 OFFCURVE",
"780 467 OFFCURVE",
"660 467 CURVE SMOOTH",
"544 467 OFFCURVE",
"592 646 OFFCURVE",
"592 671 CURVE SMOOTH",
"592 711 OFFCURVE",
"476 710 OFFCURVE",
"458 710 CURVE SMOOTH",
"195 710 OFFCURVE",
"28 510 OFFCURVE",
"28 359 CURVE SMOOTH",
"28 265 OFFCURVE",
"89 189 OFFCURVE",
"170 149 CURVE",
"247 287 LINE",
"247 287 OFFCURVE",
"173 307 OFFCURVE",
"172 380 CURVE SMOOTH",
"171 493 OFFCURVE",
"330 562 OFFCURVE",
"416 561 CURVE SMOOTH",
"449 561 OFFCURVE",
"471 552 OFFCURVE",
"471 531 CURVE SMOOTH",
"471 363 OFFCURVE",
"594 341 OFFCURVE",
"659 341 CURVE SMOOTH",
"769 341 OFFCURVE",
"865 414 OFFCURVE",
"865 523 CURVE SMOOTH"
);
},
{
closed = 1;
nodes = (
"412 86 OFFCURVE",
"501 10 OFFCURVE",
"592 -62 CURVE SMOOTH",
"640 -100 OFFCURVE",
"658 -102 OFFCURVE",
"681 -102 CURVE SMOOTH",
"719 -102 OFFCURVE",
"766 -72 OFFCURVE",
"776 -36 CURVE SMOOTH",
"783 -12 OFFCURVE",
"782 29 OFFCURVE",
"781 33 CURVE SMOOTH",
"780 38 OFFCURVE",
"777 44 OFFCURVE",
"771 44 CURVE SMOOTH",
"760 44 OFFCURVE",
"741 4 OFFCURVE",
"720 7 CURVE SMOOTH",
"664 15 OFFCURVE",
"492 182 OFFCURVE",
"492 175 CURVE",
"404 108 LINE"
);
}
);
width = 885;
},
{
background = {
paths = (
{
closed = 1;
nodes = (
"569 73 OFFCURVE",
"739 175 OFFCURVE",
"739 340 CURVE SMOOTH",
"739 506 OFFCURVE",
"596 617 OFFCURVE",
"410 617 CURVE SMOOTH",
"221 617 OFFCURVE",
"50 505 OFFCURVE",
"50 364 CURVE SMOOTH",
"50 283 OFFCURVE",
"123 228 OFFCURVE",
"168 228 CURVE",
"228 321 LINE",
"194 321 OFFCURVE",
"169 342 OFFCURVE",
"169 377 CURVE SMOOTH",
"169 450 OFFCURVE",
"268 523 OFFCURVE",
"399 523 CURVE SMOOTH",
"528 523 OFFCURVE",
"620 428 OFFCURVE",
"620 320 CURVE SMOOTH",
"620 210 OFFCURVE",
"509 109 OFFCURVE",
"509 84 CURVE SMOOTH",
"509 76 OFFCURVE",
"516 73 OFFCURVE",
"523 73 CURVE SMOOTH"
);
}
);
};
layerId = "9F2BC935-6AE7-4E60-84C9-D3B586669EA4";
paths = (
{
closed = 1;
nodes = (
"173 330 OFFCURVE",
"112 214 OFFCURVE",
"112 130 CURVE SMOOTH",
"112 47 OFFCURVE",
"160 -4 OFFCURVE",
"243 -4 CURVE SMOOTH",
"342 -4 OFFCURVE",
"438 79 OFFCURVE",
"438 183 CURVE SMOOTH",
"438 276 OFFCURVE",
"375 330 OFFCURVE",
"293 330 CURVE SMOOTH"
);
},
{
closed = 1;
nodes = (
"323 245 OFFCURVE",
"339 188 OFFCURVE",
"339 150 CURVE SMOOTH",
"339 101 OFFCURVE",
"296 75 OFFCURVE",
"259 75 CURVE SMOOTH",
"215 75 OFFCURVE",
"200 134 OFFCURVE",
"200 172 CURVE SMOOTH",
"200 219 OFFCURVE",
"241 245 OFFCURVE",
"279 245 CURVE SMOOTH"
);
},
{
closed = 1;
nodes = (
"742 591 OFFCURVE",
"683 635 OFFCURVE",
"653 635 CURVE SMOOTH",
"644 635 OFFCURVE",
"636 630 OFFCURVE",
"636 623 CURVE SMOOTH",
"636 610 OFFCURVE",
"660 575 OFFCURVE",
"660 537 CURVE SMOOTH",
"660 470 OFFCURVE",
"611 418 OFFCURVE",
"527 418 CURVE SMOOTH",
"496 418 OFFCURVE",
"462 434 OFFCURVE",
"462 466 CURVE SMOOTH",
"462 527 OFFCURVE",
"536 570 OFFCURVE",
"534 582 CURVE SMOOTH",
"532 596 OFFCURVE",
"516 630 OFFCURVE",
"502 630 CURVE SMOOTH",
"178 630 OFFCURVE",
"50 480 OFFCURVE",
"50 365 CURVE SMOOTH",
"50 280 OFFCURVE",
"125 228 OFFCURVE",
"167 228 CURVE",
"228 316 LINE",
"196 316 OFFCURVE",
"169 343 OFFCURVE",
"169 378 CURVE SMOOTH",
"169 451 OFFCURVE",
"277 526 OFFCURVE",
"401 526 CURVE",
"321 432 OFFCURVE",
"393 326 OFFCURVE",
"509 326 CURVE SMOOTH",
"642 326 OFFCURVE",
"742 399 OFFCURVE",
"742 518 CURVE SMOOTH"
);
},
{
closed = 1;
nodes = (
"400 9 OFFCURVE",
"445 -34 OFFCURVE",
"477 -34 CURVE SMOOTH",
"520 -34 OFFCURVE",
"558 35 OFFCURVE",
"558 66 CURVE SMOOTH",
"558 71 OFFCURVE",
"557 75 OFFCURVE",
"553 75 CURVE SMOOTH",
"544 75 OFFCURVE",
"523 52 OFFCURVE",
"510 52 CURVE SMOOTH",
"484 52 OFFCURVE",
"435 105 OFFCURVE",
"396 147 CURVE",
"354 57 LINE"
);
}
);
width = 762;
}
);
unicode = 0B1D;
},
{
glyphname = "nya-oriya";
lastChange = "2021-08-24 04:52:19 +0000";
layers = (
{
background = {
paths = (
{
closed = 1;
nodes = (
"619 590 OFFCURVE",
"638 554 OFFCURVE",
"638 523 CURVE SMOOTH",
"638 414 OFFCURVE",
"253 332 OFFCURVE",
"253 156 CURVE SMOOTH",
"253 59 OFFCURVE",
"358 -17 OFFCURVE",
"514 -17 CURVE SMOOTH",
"648 -17 OFFCURVE",
"813 82 OFFCURVE",
"848 142 CURVE",
"867 332 LINE",
"802 235 OFFCURVE",
"630 104 OFFCURVE",
"539 103 CURVE SMOOTH",
"457 102 OFFCURVE",
"420 135 OFFCURVE",
"418 171 CURVE SMOOTH",
"414 247 OFFCURVE",
"774 340 OFFCURVE",
"776 521 CURVE SMOOTH",
"777 637 OFFCURVE",
"687 706 OFFCURVE",
"626 708 CURVE SMOOTH",
"590 709 OFFCURVE",
"526 699 OFFCURVE",
"498 653 CURVE",
"471 691 OFFCURVE",
"425 709 OFFCURVE",
"371 707 CURVE SMOOTH",
"299 704 OFFCURVE",
"212 638 OFFCURVE",
"216 532 CURVE SMOOTH",
"219 445 OFFCURVE",
"302 381 OFFCURVE",
"357 381 CURVE SMOOTH",
"388 381 OFFCURVE",
"421 428 OFFCURVE",
"431 456 CURVE SMOOTH",
"438 475 OFFCURVE",
"442 498 OFFCURVE",
"442 501 CURVE SMOOTH",
"442 503 OFFCURVE",
"441 507 OFFCURVE",
"436 507 CURVE SMOOTH",
"429 507 OFFCURVE",
"409 481 OFFCURVE",
"398 481 CURVE SMOOTH",
"371 481 OFFCURVE",
"331 509 OFFCURVE",
"331 542 CURVE SMOOTH",
"331 566 OFFCURVE",
"350 592 OFFCURVE",
"382 595 CURVE SMOOTH",
"411 598 OFFCURVE",
"440 576 OFFCURVE",
"444 557 CURVE SMOOTH",
"449 535 OFFCURVE",
"451 525 OFFCURVE",
"466 524 CURVE SMOOTH",
"478 523 OFFCURVE",
"506 522 OFFCURVE",
"519 526 CURVE SMOOTH",
"526 528 OFFCURVE",
"529 534 OFFCURVE",
"533 552 CURVE SMOOTH",
"538 575 OFFCURVE",
"560 590 OFFCURVE",
"589 590 CURVE SMOOTH"
);
}
);
};
layerId = "555B79C6-6D98-46E7-9307-77C37975E414";
paths = (
{
closed = 1;
nodes = (
"742 647 OFFCURVE",
"653 709 OFFCURVE",
"584 707 CURVE SMOOTH",
"559 706 OFFCURVE",
"505 700 OFFCURVE",
"482 661 CURVE",
"458 694 OFFCURVE",
"419 708 OFFCURVE",
"374 707 CURVE SMOOTH",
"313 706 OFFCURVE",
"221 638 OFFCURVE",
"225 549 CURVE SMOOTH",
"228 474 OFFCURVE",
"298 406 OFFCURVE",
"362 406 CURVE SMOOTH",
"388 406 OFFCURVE",
"418 446 OFFCURVE",
"424 470 CURVE SMOOTH",
"428 485 OFFCURVE",
"434 514 OFFCURVE",
"434 517 CURVE SMOOTH",
"434 518 OFFCURVE",
"433 520 OFFCURVE",
"428 520 CURVE SMOOTH",
"423 520 OFFCURVE",
"406 499 OFFCURVE",
"396 499 CURVE SMOOTH",
"374 499 OFFCURVE",
"341 512 OFFCURVE",
"341 541 CURVE SMOOTH",
"341 560 OFFCURVE",
"355 588 OFFCURVE",
"383 590 CURVE SMOOTH",
"408 592 OFFCURVE",
"432 582 OFFCURVE",
"436 565 CURVE SMOOTH",
"440 547 OFFCURVE",
"441 538 OFFCURVE",
"453 537 CURVE SMOOTH",
"464 536 OFFCURVE",
"497 534 OFFCURVE",
"510 538 CURVE SMOOTH",
"516 540 OFFCURVE",
"519 545 OFFCURVE",
"524 561 CURVE SMOOTH",
"529 581 OFFCURVE",
"544 589 OFFCURVE",
"568 589 CURVE SMOOTH",
"587 589 OFFCURVE",
"618 572 OFFCURVE",
"609 513 CURVE SMOOTH",
"601 461 OFFCURVE",
"515 387 OFFCURVE",
"406 387 CURVE SMOOTH",
"277 387 OFFCURVE",
"170 442 OFFCURVE",
"167 571 CURVE SMOOTH",
"165 658 OFFCURVE",
"229 702 OFFCURVE",
"253 734 CURVE SMOOTH",
"257 741 OFFCURVE",
"252 749 OFFCURVE",
"242 748 CURVE SMOOTH",
"144 738 OFFCURVE",
"39 652 OFFCURVE",
"38 546 CURVE SMOOTH",
"35 327 OFFCURVE",
"250 263 OFFCURVE",
"393 263 CURVE SMOOTH",
"556 263 OFFCURVE",
"742 368 OFFCURVE",
"742 548 CURVE SMOOTH"
);
},
{
closed = 1;
nodes = (
"742 318 OFFCURVE",
"653 381 OFFCURVE",
"584 378 CURVE SMOOTH",
"559 377 OFFCURVE",
"505 371 OFFCURVE",
"482 332 CURVE",
"458 365 OFFCURVE",
"419 379 OFFCURVE",
"374 378 CURVE SMOOTH",
"313 377 OFFCURVE",
"221 309 OFFCURVE",
"225 220 CURVE SMOOTH",
"228 145 OFFCURVE",
"298 77 OFFCURVE",
"362 77 CURVE SMOOTH",
"388 77 OFFCURVE",
"418 117 OFFCURVE",
"424 141 CURVE SMOOTH",
"428 156 OFFCURVE",
"434 185 OFFCURVE",
"434 188 CURVE SMOOTH",
"434 189 OFFCURVE",
"433 191 OFFCURVE",
"428 191 CURVE SMOOTH",
"423 191 OFFCURVE",
"406 170 OFFCURVE",
"396 170 CURVE SMOOTH",
"374 170 OFFCURVE",
"341 183 OFFCURVE",
"341 212 CURVE SMOOTH",
"341 231 OFFCURVE",
"355 259 OFFCURVE",
"383 261 CURVE SMOOTH",
"408 263 OFFCURVE",
"432 253 OFFCURVE",
"436 236 CURVE SMOOTH",
"440 218 OFFCURVE",
"441 209 OFFCURVE",
"453 208 CURVE SMOOTH",
"464 207 OFFCURVE",
"497 205 OFFCURVE",
"510 209 CURVE SMOOTH",
"516 211 OFFCURVE",
"519 216 OFFCURVE",
"524 232 CURVE SMOOTH",
"530 252 OFFCURVE",
"544 260 OFFCURVE",
"568 260 CURVE SMOOTH",
"587 260 OFFCURVE",
"618 243 OFFCURVE",
"609 184 CURVE SMOOTH",
"601 132 OFFCURVE",
"515 58 OFFCURVE",
"406 58 CURVE SMOOTH",
"277 58 OFFCURVE",
"170 113 OFFCURVE",
"167 242 CURVE SMOOTH",
"165 329 OFFCURVE",
"227 374 OFFCURVE",
"253 405 CURVE SMOOTH",
"258 411 OFFCURVE",
"252 420 OFFCURVE",
"242 419 CURVE SMOOTH",
"144 409 OFFCURVE",
"39 323 OFFCURVE",
"38 217 CURVE SMOOTH",
"36 -2 OFFCURVE",
"250 -66 OFFCURVE",
"393 -66 CURVE SMOOTH",
"556 -66 OFFCURVE",
"742 39 OFFCURVE",
"742 219 CURVE SMOOTH"
);
}
);
width = 790;
},
{
background = {
paths = (
{
closed = 1;
nodes = (
"686 584 OFFCURVE",
"621 635 OFFCURVE",
"552 635 CURVE SMOOTH",
"499 635 OFFCURVE",
"461 604 OFFCURVE",
"448 565 CURVE",
"439 593 OFFCURVE",
"400 632 OFFCURVE",
"342 632 CURVE SMOOTH",
"282 632 OFFCURVE",
"224 582 OFFCURVE",
"224 510 CURVE SMOOTH",
"224 448 OFFCURVE",
"291 406 OFFCURVE",
"319 406 CURVE SMOOTH",
"340 406 OFFCURVE",
"369 450 OFFCURVE",
"369 482 CURVE SMOOTH",
"369 488 OFFCURVE",
"367 492 OFFCURVE",
"363 492 CURVE SMOOTH",
"358 492 OFFCURVE",
"349 479 OFFCURVE",
"341 479 CURVE SMOOTH",
"324 479 OFFCURVE",
"295 495 OFFCURVE",
"295 514 CURVE SMOOTH",
"295 540 OFFCURVE",
"317 564 OFFCURVE",
"339 564 CURVE SMOOTH",
"379 564 OFFCURVE",
"409 525 OFFCURVE",
"409 479 CURVE SMOOTH",
"409 471 OFFCURVE",
"412 466 OFFCURVE",
"420 466 CURVE SMOOTH",
"433 466 OFFCURVE",
"451 466 OFFCURVE",
"471 466 CURVE SMOOTH",
"479 466 OFFCURVE",
"483 468 OFFCURVE",
"483 481 CURVE SMOOTH",
"483 513 OFFCURVE",
"500 561 OFFCURVE",
"547 561 CURVE SMOOTH",
"587 561 OFFCURVE",
"602 530 OFFCURVE",
"602 489 CURVE SMOOTH",
"602 404 OFFCURVE",
"549 350 OFFCURVE",
"414 350 CURVE SMOOTH",
"244 350 OFFCURVE",
"175 433 OFFCURVE",
"175 553 CURVE SMOOTH",
"175 570 OFFCURVE",
"175 582 OFFCURVE",
"165 582 CURVE SMOOTH",
"153 582 OFFCURVE",
"110 538 OFFCURVE",
"110 479 CURVE SMOOTH",
"110 330 OFFCURVE",
"266 268 OFFCURVE",
"405 268 CURVE SMOOTH",
"562 268 OFFCURVE",
"686 334 OFFCURVE",
"686 483 CURVE SMOOTH"
);
},
{
closed = 1;
nodes = (
"666 294 OFFCURVE",
"601 345 OFFCURVE",
"532 345 CURVE SMOOTH",
"479 345 OFFCURVE",
"441 314 OFFCURVE",
"428 275 CURVE",
"419 303 OFFCURVE",
"380 342 OFFCURVE",
"322 342 CURVE SMOOTH",
"262 342 OFFCURVE",
"209 292 OFFCURVE",
"209 220 CURVE SMOOTH",
"209 158 OFFCURVE",
"276 116 OFFCURVE",
"304 116 CURVE SMOOTH",
"325 116 OFFCURVE",
"354 160 OFFCURVE",
"354 192 CURVE SMOOTH",
"354 198 OFFCURVE",
"352 202 OFFCURVE",
"348 202 CURVE SMOOTH",
"343 202 OFFCURVE",
"334 189 OFFCURVE",
"326 189 CURVE SMOOTH",
"309 189 OFFCURVE",
"280 205 OFFCURVE",
"280 224 CURVE SMOOTH",
"280 250 OFFCURVE",
"302 274 OFFCURVE",
"324 274 CURVE SMOOTH",
"364 274 OFFCURVE",
"389 248 OFFCURVE",
"389 202 CURVE SMOOTH",
"389 194 OFFCURVE",
"392 189 OFFCURVE",
"400 189 CURVE SMOOTH",
"413 189 OFFCURVE",
"431 189 OFFCURVE",
"451 189 CURVE SMOOTH",
"459 189 OFFCURVE",
"463 191 OFFCURVE",
"463 204 CURVE SMOOTH",
"463 236 OFFCURVE",
"480 271 OFFCURVE",
"527 271 CURVE SMOOTH",
"567 271 OFFCURVE",
"582 240 OFFCURVE",
"582 199 CURVE SMOOTH",
"582 119 OFFCURVE",
"509 65 OFFCURVE",
"374 65 CURVE SMOOTH",
"206 65 OFFCURVE",
"165 148 OFFCURVE",
"165 226 CURVE SMOOTH",
"165 275 OFFCURVE",
"184 321 OFFCURVE",
"198 335 CURVE",
"159 370 LINE",
"137 357 OFFCURVE",
"74 295 OFFCURVE",
"74 203 CURVE SMOOTH",
"74 80 OFFCURVE",
"155 -22 OFFCURVE",
"365 -22 CURVE SMOOTH",
"522 -22 OFFCURVE",
"666 49 OFFCURVE",
"666 193 CURVE SMOOTH"
);
}
);
};
layerId = "9F2BC935-6AE7-4E60-84C9-D3B586669EA4";
paths = (
{
closed = 1;
nodes = (
"701 595 OFFCURVE",
"630 648 OFFCURVE",
"559 648 CURVE SMOOTH",
"504 648 OFFCURVE",
"464 616 OFFCURVE",
"451 575 CURVE",
"441 604 OFFCURVE",
"401 645 OFFCURVE",
"341 645 CURVE SMOOTH",
"278 645 OFFCURVE",
"218 593 OFFCURVE",
"218 518 CURVE SMOOTH",
"218 454 OFFCURVE",
"288 410 OFFCURVE",
"317 410 CURVE SMOOTH",
"338 410 OFFCURVE",
"369 458 OFFCURVE",
"369 491 CURVE SMOOTH",
"369 497 OFFCURVE",
"366 501 OFFCURVE",
"362 501 CURVE SMOOTH",
"357 501 OFFCURVE",
"348 488 OFFCURVE",
"339 488 CURVE SMOOTH",
"322 488 OFFCURVE",
"294 503 OFFCURVE",
"294 523 CURVE SMOOTH",
"294 550 OFFCURVE",
"313 574 OFFCURVE",
"340 574 CURVE SMOOTH",
"379 574 OFFCURVE",
"410 534 OFFCURVE",
"410 486 CURVE SMOOTH",
"410 477 OFFCURVE",
"413 472 OFFCURVE",
"422 472 CURVE SMOOTH",
"435 472 OFFCURVE",
"454 472 OFFCURVE",
"475 472 CURVE SMOOTH",
"483 472 OFFCURVE",
"487 474 OFFCURVE",
"487 488 CURVE SMOOTH",
"487 521 OFFCURVE",
"505 571 OFFCURVE",
"554 571 CURVE SMOOTH",
"590 571 OFFCURVE",
"608 539 OFFCURVE",
"608 496 CURVE SMOOTH",
"608 408 OFFCURVE",
"556 352 OFFCURVE",
"415 352 CURVE SMOOTH",
"239 352 OFFCURVE",
"167 438 OFFCURVE",
"167 563 CURVE SMOOTH",
"167 580 OFFCURVE",
"167 593 OFFCURVE",
"157 593 CURVE SMOOTH",
"144 593 OFFCURVE",
"84 547 OFFCURVE",
"84 470 CURVE SMOOTH",
"84 331 OFFCURVE",
"262 266 OFFCURVE",
"406 266 CURVE SMOOTH",
"569 266 OFFCURVE",
"701 335 OFFCURVE",
"701 490 CURVE SMOOTH"
);
},
{
closed = 1;
nodes = (
"682 292 OFFCURVE",
"610 345 OFFCURVE",
"538 345 CURVE SMOOTH",
"483 345 OFFCURVE",
"443 312 OFFCURVE",
"430 272 CURVE",
"421 301 OFFCURVE",
"380 341 OFFCURVE",
"320 341 CURVE SMOOTH",
"257 341 OFFCURVE",
"202 289 OFFCURVE",
"202 215 CURVE SMOOTH",
"202 150 OFFCURVE",
"272 107 OFFCURVE",
"301 107 CURVE SMOOTH",
"323 107 OFFCURVE",
"353 155 OFFCURVE",
"353 189 CURVE SMOOTH",
"353 195 OFFCURVE",
"351 199 OFFCURVE",
"347 199 CURVE SMOOTH",
"342 199 OFFCURVE",
"332 185 OFFCURVE",
"324 185 CURVE SMOOTH",
"306 185 OFFCURVE",
"279 199 OFFCURVE",
"279 219 CURVE SMOOTH",
"279 246 OFFCURVE",
"299 271 OFFCURVE",
"322 271 CURVE SMOOTH",
"363 271 OFFCURVE",
"389 244 OFFCURVE",
"389 196 CURVE SMOOTH",
"389 188 OFFCURVE",
"392 182 OFFCURVE",
"401 182 CURVE SMOOTH",
"414 182 OFFCURVE",
"433 182 OFFCURVE",
"454 182 CURVE SMOOTH",
"462 182 OFFCURVE",
"466 184 OFFCURVE",
"466 198 CURVE SMOOTH",
"466 231 OFFCURVE",
"484 268 OFFCURVE",
"533 268 CURVE SMOOTH",
"574 268 OFFCURVE",
"587 235 OFFCURVE",
"587 193 CURVE SMOOTH",
"587 110 OFFCURVE",
"514 54 OFFCURVE",
"374 54 CURVE SMOOTH",
"199 54 OFFCURVE",
"157 140 OFFCURVE",
"157 221 CURVE SMOOTH",
"157 272 OFFCURVE",
"176 320 OFFCURVE",
"191 334 CURVE",
"150 370 LINE",
"127 357 OFFCURVE",
"50 293 OFFCURVE",
"50 193 CURVE SMOOTH",
"50 69 OFFCURVE",
"146 -37 OFFCURVE",
"364 -37 CURVE SMOOTH",
"528 -37 OFFCURVE",
"682 37 OFFCURVE",
"682 187 CURVE SMOOTH"
);
}
);
width = 741;
}
);
unicode = 0B1E;
},
{
glyphname = "tta-oriya";
lastChange = "2021-08-24 04:52:26 +0000";
layers = (
{
layerId = "555B79C6-6D98-46E7-9307-77C37975E414";
paths = (
{
closed = 1;
nodes = (
"405 266 OFFCURVE",
"435 233 OFFCURVE",
"435 171 CURVE SMOOTH",
"435 129 OFFCURVE",
"408 100 OFFCURVE",
"369 100 CURVE SMOOTH",
"320 100 OFFCURVE",
"305 153 OFFCURVE",
"305 199 CURVE SMOOTH",
"305 246 OFFCURVE",
"332 266 OFFCURVE",
"368 266 CURVE SMOOTH"
);
},
{
closed = 1;
nodes = (
"162 76 OFFCURVE",
"236 -22 OFFCURVE",
"346 -22 CURVE SMOOTH",
"460 -22 OFFCURVE",
"560 81 OFFCURVE",
"560 193 CURVE SMOOTH",
"560 323 OFFCURVE",
"476 383 OFFCURVE",
"395 383 CURVE SMOOTH",
"274 383 OFFCURVE",
"162 293 OFFCURVE",
"162 174 CURVE SMOOTH"
);
},
{
closed = 1;
nodes = (
"862 660 LINE SMOOTH",
"863 668 OFFCURVE",
"863 679 OFFCURVE",
"850 679 CURVE SMOOTH",
"836 679 OFFCURVE",
"791 681 OFFCURVE",
"742 681 CURVE SMOOTH",
"729 681 OFFCURVE",
"725 675 OFFCURVE",
"724 664 CURVE SMOOTH",
"715 586 LINE",
"676 625 OFFCURVE",
"581 707 OFFCURVE",
"423 707 CURVE SMOOTH",
"201 707 OFFCURVE",
"28 510 OFFCURVE",
"28 359 CURVE SMOOTH",
"28 265 OFFCURVE",
"89 189 OFFCURVE",
"170 149 CURVE",
"247 287 LINE",
"247 287 OFFCURVE",
"173 307 OFFCURVE",
"172 380 CURVE SMOOTH",
"170 510 OFFCURVE",
"332 573 OFFCURVE",
"407 573 CURVE SMOOTH",
"550 573 OFFCURVE",
"635 479 OFFCURVE",
"693 396 CURVE SMOOTH",
"693 363 OFFCURVE",
"686 331 OFFCURVE",
"684 299 CURVE SMOOTH",
"682 264 OFFCURVE",
"669 221 OFFCURVE",
"703 221 CURVE SMOOTH",
"763 221 OFFCURVE",
"828 330 OFFCURVE",
"832 406 CURVE SMOOTH"
);
}
);
width = 870;
},
{
background = {
paths = (
{
closed = 1;
nodes = (
"185 342 OFFCURVE",
"122 222 OFFCURVE",
"122 135 CURVE SMOOTH",
"122 49 OFFCURVE",
"172 -4 OFFCURVE",
"258 -4 CURVE SMOOTH",
"360 -4 OFFCURVE",
"459 82 OFFCURVE",
"459 190 CURVE SMOOTH",
"459 287 OFFCURVE",
"394 342 OFFCURVE",
"309 342 CURVE SMOOTH"
);
},
{
closed = 1;
nodes = (
"340 254 OFFCURVE",
"357 196 OFFCURVE",
"357 155 CURVE SMOOTH",
"357 105 OFFCURVE",
"312 78 OFFCURVE",
"274 78 CURVE SMOOTH",
"229 78 OFFCURVE",
"213 139 OFFCURVE",
"213 178 CURVE SMOOTH",
"213 227 OFFCURVE",
"256 254 OFFCURVE",
"295 254 CURVE SMOOTH"
);
},
{
closed = 1;
nodes = (
"24 283 OFFCURVE",
"96 228 OFFCURVE",
"142 228 CURVE",
"202 321 LINE",
"170 321 OFFCURVE",
"143 340 OFFCURVE",
"143 378 CURVE SMOOTH",
"143 448 OFFCURVE",
"242 523 OFFCURVE",
"373 523 CURVE SMOOTH",
"478 523 OFFCURVE",
"591 457 OFFCURVE",
"583 365 CURVE SMOOTH",
"572 244 OFFCURVE",
"556 104 OFFCURVE",
"552 76 CURVE SMOOTH",
"547 39 OFFCURVE",
"539 -4 OFFCURVE",
"566 -4 CURVE SMOOTH",
"610 -4 OFFCURVE",
"669 108 OFFCURVE",
"677 187 CURVE SMOOTH",
"692 338 OFFCURVE",
"709 569 OFFCURVE",
"715 614 CURVE SMOOTH",
"716 622 OFFCURVE",
"716 633 OFFCURVE",
"703 633 CURVE SMOOTH",
"625 633 LINE SMOOTH",
"612 633 OFFCURVE",
"608 627 OFFCURVE",
"607 616 CURVE SMOOTH",
"601 550 LINE",
"535 593 OFFCURVE",
"470 617 OFFCURVE",
"384 617 CURVE SMOOTH",
"195 617 OFFCURVE",
"24 503 OFFCURVE",
"24 363 CURVE SMOOTH"
);
}
);
};
layerId = "9F2BC935-6AE7-4E60-84C9-D3B586669EA4";
paths = (
{
closed = 1;
nodes = (
"394 342 OFFCURVE",
"459 286 OFFCURVE",
"459 190 CURVE SMOOTH",
"459 82 OFFCURVE",
"358 -4 OFFCURVE",
"258 -4 CURVE SMOOTH",
"172 -4 OFFCURVE",
"122 49 OFFCURVE",
"122 135 CURVE SMOOTH",
"122 222 OFFCURVE",
"185 342 OFFCURVE",
"309 342 CURVE SMOOTH"
);
},
{
closed = 1;
nodes = (
"256 254 OFFCURVE",
"213 227 OFFCURVE",
"213 178 CURVE SMOOTH",
"213 139 OFFCURVE",
"229 78 OFFCURVE",
"274 78 CURVE SMOOTH",
"312 78 OFFCURVE",
"357 105 OFFCURVE",
"357 155 CURVE SMOOTH",
"357 195 OFFCURVE",
"340 254 OFFCURVE",
"295 254 CURVE SMOOTH"
);
},
{
closed = 1;
nodes = (
"711 570 OFFCURVE",
"702 495 OFFCURVE",
"694 387 CURVE SMOOTH",
"689 322 OFFCURVE",
"631 198 OFFCURVE",
"587 198 CURVE SMOOTH",
"560 198 OFFCURVE",
"569 253 OFFCURVE",
"574 290 CURVE SMOOTH",
"578 316 OFFCURVE",
"592 433 OFFCURVE",
"609 617 CURVE SMOOTH",
"610 628 OFFCURVE",
"614 634 OFFCURVE",
"627 634 CURVE SMOOTH",
"676 634 OFFCURVE",
"691 634 OFFCURVE",
"705 634 CURVE SMOOTH",
"718 634 OFFCURVE",
"718 623 OFFCURVE",
"717 615 CURVE SMOOTH"
);
},
{
closed = 1;
nodes = (
"593 454 OFFCURVE",
"493 523 OFFCURVE",
"399 523 CURVE SMOOTH",
"268 523 OFFCURVE",
"169 450 OFFCURVE",
"169 377 CURVE SMOOTH",
"169 342 OFFCURVE",
"194 321 OFFCURVE",
"228 321 CURVE",
"168 228 LINE",
"122 228 OFFCURVE",
"50 283 OFFCURVE",
"50 365 CURVE SMOOTH",
"50 502 OFFCURVE",
"218 617 OFFCURVE",
"410 617 CURVE SMOOTH",
"506 617 OFFCURVE",
"594 577 OFFCURVE",
"621 542 CURVE",
"586 388 LINE"
);
}
);
width = 757;
}
);
unicode = 0B1F;
},
{
glyphname = "ttha-oriya";
lastChange = "2021-08-24 04:52:36 +0000";
layers = (
{
layerId = "555B79C6-6D98-46E7-9307-77C37975E414";
paths = (
{
closed = 1;
nodes = (
"304 576 OFFCURVE",
"214 473 OFFCURVE",
"213 337 CURVE SMOOTH",
"212 235 OFFCURVE",
"264 83 OFFCURVE",
"388 83 CURVE SMOOTH",
"477 83 OFFCURVE",
"591 166 OFFCURVE",
"593 326 CURVE SMOOTH",
"595 462 OFFCURVE",
"514 585 OFFCURVE",
"393 580 CURVE SMOOTH"
);
},
{
closed = 1;
nodes = (
"54 537 OFFCURVE",
"253 703 OFFCURVE",
"469 704 CURVE SMOOTH",
"638 705 OFFCURVE",
"766 580 OFFCURVE",
"766 356 CURVE SMOOTH",
"766 147 OFFCURVE",
"574 -23 OFFCURVE",
"378 -24 CURVE SMOOTH",
"184 -25 OFFCURVE",
"54 147 OFFCURVE",
"54 326 CURVE SMOOTH"
);
}
);
width = 796;
},
{
background = {
paths = (
{
closed = 1;
nodes = (
"535 616 OFFCURVE",
"633 514 OFFCURVE",
"633 340 CURVE SMOOTH",
"633 143 OFFCURVE",
"484 -13 OFFCURVE",
"300 -13 CURVE SMOOTH",
"146 -13 OFFCURVE",
"50 86 OFFCURVE",
"50 260 CURVE SMOOTH",
"50 457 OFFCURVE",
"155 616 OFFCURVE",
"380 616 CURVE SMOOTH"
);
},
{
closed = 1;
nodes = (
"269 506 OFFCURVE",
"175 447 OFFCURVE",
"175 331 CURVE SMOOTH",
"175 214 OFFCURVE",
"212 98 OFFCURVE",
"315 98 CURVE SMOOTH",
"411 98 OFFCURVE",
"508 161 OFFCURVE",
"508 277 CURVE SMOOTH",
"508 395 OFFCURVE",
"468 506 OFFCURVE",
"365 506 CURVE SMOOTH"
);
}
);
};
layerId = "9F2BC935-6AE7-4E60-84C9-D3B586669EA4";
paths = (
{
closed = 1;
nodes = (
"535 616 OFFCURVE",
"633 494 OFFCURVE",
"633 340 CURVE SMOOTH",
"633 143 OFFCURVE",
"484 -13 OFFCURVE",
"305 -13 CURVE SMOOTH",
"146 -13 OFFCURVE",
"50 106 OFFCURVE",
"50 260 CURVE SMOOTH",
"50 457 OFFCURVE",
"155 616 OFFCURVE",
"375 616 CURVE SMOOTH"
);
},
{
closed = 1;
nodes = (
"266 516 OFFCURVE",
"167 454 OFFCURVE",
"167 332 CURVE SMOOTH",
"167 210 OFFCURVE",
"206 87 OFFCURVE",
"313 87 CURVE SMOOTH",
"415 87 OFFCURVE",
"517 154 OFFCURVE",
"517 276 CURVE SMOOTH",
"517 400 OFFCURVE",
"475 516 OFFCURVE",
"367 516 CURVE SMOOTH"
);
}
);
width = 673;
}
);
unicode = 0B20;
},
{
glyphname = "dda-oriya";
lastChange = "2021-08-24 04:52:43 +0000";
layers = (
{
layerId = "555B79C6-6D98-46E7-9307-77C37975E414";
paths = (
{
closed = 1;
nodes = (
"342 262 OFFCURVE",
"413 256 OFFCURVE",
"413 177 CURVE SMOOTH",
"413 136 OFFCURVE",
"364 96 OFFCURVE",
"311 95 CURVE SMOOTH",
"234 94 OFFCURVE",
"217 159 OFFCURVE",
"217 191 CURVE SMOOTH",
"217 239 OFFCURVE",
"250 276 OFFCURVE",
"250 282 CURVE SMOOTH",
"250 287 OFFCURVE",
"246 289 OFFCURVE",
"231 290 CURVE SMOOTH",
"215 291 OFFCURVE",
"99 247 OFFCURVE",
"100 151 CURVE SMOOTH",
"101 84 OFFCURVE",
"157 -21 OFFCURVE",
"309 -20 CURVE SMOOTH",
"401 -19 OFFCURVE",
"536 37 OFFCURVE",
"536 173 CURVE SMOOTH",
"536 264 OFFCURVE",
"481 274 OFFCURVE",
"481 290 CURVE SMOOTH",
"481 297 OFFCURVE",
"512 355 OFFCURVE",
"541 355 CURVE SMOOTH",
"552 355 OFFCURVE",
"570 326 OFFCURVE",
"578 326 CURVE SMOOTH",
"582 326 OFFCURVE",
"587 328 OFFCURVE",
"588 334 CURVE SMOOTH",
"589 342 OFFCURVE",
"589 370 OFFCURVE",
"576 392 CURVE SMOOTH",
"561 417 OFFCURVE",
"515 447 OFFCURVE",
"493 447 CURVE SMOOTH",
"442 447 OFFCURVE",
"342 322 OFFCURVE",
"342 279 CURVE SMOOTH"
);
},
{
closed = 1;
nodes = (
"622 585 OFFCURVE",
"737 456 OFFCURVE",
"737 325 CURVE SMOOTH",
"737 235 OFFCURVE",
"689 178 OFFCURVE",
"658 142 CURVE SMOOTH",
"651 134 OFFCURVE",
"657 125 OFFCURVE",
"668 125 CURVE SMOOTH",
"789 125 OFFCURVE",
"872 231 OFFCURVE",
"877 360 CURVE SMOOTH",
"885 569 OFFCURVE",
"727 711 OFFCURVE",
"458 710 CURVE SMOOTH",
"195 710 OFFCURVE",
"28 510 OFFCURVE",
"28 359 CURVE SMOOTH",
"28 265 OFFCURVE",
"89 189 OFFCURVE",
"170 149 CURVE",
"247 287 LINE",
"247 287 OFFCURVE",
"172 307 OFFCURVE",
"172 386 CURVE SMOOTH",
"172 456 OFFCURVE",
"284 579 OFFCURVE",
"446 582 CURVE SMOOTH"
);
}
);
width = 937;
},
{
background = {
paths = (
{
closed = 1;
nodes = (
"347 255 OFFCURVE",
"405 216 OFFCURVE",
"405 160 CURVE SMOOTH",
"405 110 OFFCURVE",
"344 84 OFFCURVE",
"256 84 CURVE SMOOTH",
"198 84 OFFCURVE",
"169 103 OFFCURVE",
"169 136 CURVE SMOOTH",
"169 207 OFFCURVE",
"273 249 OFFCURVE",
"273 265 CURVE SMOOTH",
"273 280 OFFCURVE",
"263 321 OFFCURVE",
"250 321 CURVE SMOOTH",
"232 321 OFFCURVE",
"49 254 OFFCURVE",
"50 135 CURVE SMOOTH",
"51 67 OFFCURVE",
"103 -8 OFFCURVE",
"253 -7 CURVE SMOOTH",
"400 -6 OFFCURVE",
"509 65 OFFCURVE",
"509 156 CURVE SMOOTH",
"509 223 OFFCURVE",
"445 274 OFFCURVE",
"441 277 CURVE",
"454 294 OFFCURVE",
"496 315 OFFCURVE",
"509 315 CURVE SMOOTH",
"520 315 OFFCURVE",
"526 301 OFFCURVE",
"533 301 CURVE SMOOTH",
"536 301 OFFCURVE",
"538 304 OFFCURVE",
"538 310 CURVE SMOOTH",
"538 348 OFFCURVE",
"507 405 OFFCURVE",
"481 405 CURVE SMOOTH",
"440 405 OFFCURVE",
"347 320 OFFCURVE",
"347 276 CURVE SMOOTH"
);
},
{
closed = 1;
nodes = (
"611 73 OFFCURVE",
"776 175 OFFCURVE",
"776 340 CURVE SMOOTH",
"776 506 OFFCURVE",
"628 617 OFFCURVE",
"432 617 CURVE SMOOTH",
"243 617 OFFCURVE",
"72 505 OFFCURVE",
"72 368 CURVE SMOOTH",
"72 295 OFFCURVE",
"154 231 OFFCURVE",
"190 231 CURVE",
"250 321 LINE",
"212 321 OFFCURVE",
"191 342 OFFCURVE",
"191 377 CURVE SMOOTH",
"191 450 OFFCURVE",
"290 526 OFFCURVE",
"414 526 CURVE SMOOTH",
"560 526 OFFCURVE",
"660 428 OFFCURVE",
"657 320 CURVE SMOOTH",
"654 210 OFFCURVE",
"561 109 OFFCURVE",
"561 84 CURVE SMOOTH",
"561 76 OFFCURVE",
"568 73 OFFCURVE",
"575 73 CURVE SMOOTH"
);
},
{
closed = 1;
nodes = (
"856 508 OFFCURVE",
"683 617 OFFCURVE",
"490 617 CURVE SMOOTH",
"264 617 OFFCURVE",
"72 511 OFFCURVE",
"72 368 CURVE SMOOTH",
"72 274 OFFCURVE",
"154 228 OFFCURVE",
"190 228 CURVE",
"250 321 LINE",
"216 321 OFFCURVE",
"191 342 OFFCURVE",
"191 377 CURVE SMOOTH",
"191 452 OFFCURVE",
"314 526 OFFCURVE",
"472 526 CURVE SMOOTH",
"632 526 OFFCURVE",
"737 424 OFFCURVE",
"737 330 CURVE SMOOTH",
"737 220 OFFCURVE",
"667 158 OFFCURVE",
"667 133 CURVE SMOOTH",
"667 125 OFFCURVE",
"674 122 OFFCURVE",
"681 122 CURVE SMOOTH",
"717 122 OFFCURVE",
"856 206 OFFCURVE",
"856 356 CURVE SMOOTH"
);
}
);
};
layerId = "9F2BC935-6AE7-4E60-84C9-D3B586669EA4";
paths = (
{
closed = 1;
nodes = (
"347 255 OFFCURVE",
"405 216 OFFCURVE",
"405 160 CURVE SMOOTH",
"405 110 OFFCURVE",
"344 84 OFFCURVE",
"256 84 CURVE SMOOTH",
"198 84 OFFCURVE",
"169 103 OFFCURVE",
"169 136 CURVE SMOOTH",
"169 207 OFFCURVE",
"273 249 OFFCURVE",
"273 265 CURVE SMOOTH",
"273 280 OFFCURVE",
"263 321 OFFCURVE",
"250 321 CURVE SMOOTH",
"232 321 OFFCURVE",
"49 254 OFFCURVE",
"50 135 CURVE SMOOTH",
"51 67 OFFCURVE",
"103 -8 OFFCURVE",
"253 -7 CURVE SMOOTH",
"400 -6 OFFCURVE",
"509 65 OFFCURVE",
"509 156 CURVE SMOOTH",
"509 223 OFFCURVE",
"445 274 OFFCURVE",
"441 277 CURVE",
"454 294 OFFCURVE",
"496 315 OFFCURVE",
"509 315 CURVE SMOOTH",
"520 315 OFFCURVE",
"526 301 OFFCURVE",
"533 301 CURVE SMOOTH",
"536 301 OFFCURVE",
"538 304 OFFCURVE",
"538 310 CURVE SMOOTH",
"538 348 OFFCURVE",
"507 405 OFFCURVE",
"481 405 CURVE SMOOTH",
"440 405 OFFCURVE",
"347 320 OFFCURVE",
"347 276 CURVE SMOOTH"
);
},
{
closed = 1;
nodes = (
"611 73 OFFCURVE",
"776 175 OFFCURVE",
"776 340 CURVE SMOOTH",
"776 506 OFFCURVE",
"628 617 OFFCURVE",
"432 617 CURVE SMOOTH",
"243 617 OFFCURVE",
"72 505 OFFCURVE",
"72 368 CURVE SMOOTH",
"72 288 OFFCURVE",
"140 228 OFFCURVE",
"190 228 CURVE",
"250 321 LINE",
"217 321 OFFCURVE",
"191 342 OFFCURVE",
"191 377 CURVE SMOOTH",
"191 450 OFFCURVE",
"290 526 OFFCURVE",
"414 526 CURVE SMOOTH",
"560 526 OFFCURVE",
"660 428 OFFCURVE",
"657 320 CURVE SMOOTH",
"654 210 OFFCURVE",
"561 109 OFFCURVE",
"561 84 CURVE SMOOTH",
"561 76 OFFCURVE",
"568 73 OFFCURVE",
"575 73 CURVE SMOOTH"
);
}
);
width = 816;
}
);
unicode = 0B21;
},
{
glyphname = "ddha-oriya";
lastChange = "2021-08-24 04:52:50 +0000";
layers = (
{
layerId = "555B79C6-6D98-46E7-9307-77C37975E414";
paths = (
{
closed = 1;
nodes = (
"452 -20 OFFCURVE",
"640 35 OFFCURVE",
"640 221 CURVE SMOOTH",
"640 282 OFFCURVE",
"602 397 OFFCURVE",
"467 397 CURVE SMOOTH",
"345 397 OFFCURVE",
"281 295 OFFCURVE",
"281 202 CURVE SMOOTH",
"281 70 OFFCURVE",
"367 -62 OFFCURVE",
"536 -62 CURVE SMOOTH",
"603 -62 OFFCURVE",
"639 -37 OFFCURVE",
"652 -8 CURVE SMOOTH",
"658 5 OFFCURVE",
"657 26 OFFCURVE",
"647 26 CURVE SMOOTH",
"640 26 OFFCURVE",
"624 10 OFFCURVE",
"585 10 CURVE SMOOTH",
"452 10 OFFCURVE",
"385 117 OFFCURVE",
"385 199 CURVE SMOOTH",
"385 247 OFFCURVE",
"413 292 OFFCURVE",
"458 292 CURVE SMOOTH",
"508 292 OFFCURVE",
"530 247 OFFCURVE",
"530 214 CURVE SMOOTH",
"530 119 OFFCURVE",
"408 95 OFFCURVE",
"373 95 CURVE SMOOTH",
"250 95 OFFCURVE",
"217 159 OFFCURVE",
"217 191 CURVE SMOOTH",
"217 239 OFFCURVE",
"250 276 OFFCURVE",
"250 282 CURVE SMOOTH",
"250 287 OFFCURVE",
"246 289 OFFCURVE",
"231 290 CURVE SMOOTH",
"215 291 OFFCURVE",
"99 247 OFFCURVE",
"100 151 CURVE SMOOTH",
"101 84 OFFCURVE",
"160 -20 OFFCURVE",
"343 -20 CURVE SMOOTH"
);
},
{
closed = 1;
nodes = (
"622 585 OFFCURVE",
"757 456 OFFCURVE",
"757 325 CURVE SMOOTH",
"757 235 OFFCURVE",
"709 178 OFFCURVE",
"678 142 CURVE SMOOTH",
"671 134 OFFCURVE",
"677 125 OFFCURVE",
"688 125 CURVE SMOOTH",
"809 125 OFFCURVE",
"892 231 OFFCURVE",
"897 360 CURVE SMOOTH",
"905 569 OFFCURVE",
"727 711 OFFCURVE",
"458 710 CURVE SMOOTH",
"195 710 OFFCURVE",
"28 510 OFFCURVE",
"28 359 CURVE SMOOTH",
"28 265 OFFCURVE",
"89 189 OFFCURVE",
"170 149 CURVE",
"247 287 LINE",
"247 287 OFFCURVE",
"172 307 OFFCURVE",
"172 386 CURVE SMOOTH",
"172 456 OFFCURVE",
"284 579 OFFCURVE",
"446 582 CURVE SMOOTH"
);
}
);
width = 903;
},
{
background = {
paths = (
{
closed = 1;
nodes = (
"641 123 OFFCURVE",
"776 223 OFFCURVE",
"776 340 CURVE SMOOTH",
"776 506 OFFCURVE",
"628 617 OFFCURVE",
"432 617 CURVE SMOOTH",
"243 617 OFFCURVE",
"72 505 OFFCURVE",
"72 368 CURVE SMOOTH",
"72 295 OFFCURVE",
"154 231 OFFCURVE",
"190 231 CURVE",
"250 321 LINE",
"212 321 OFFCURVE",
"191 342 OFFCURVE",
"191 377 CURVE SMOOTH",
"191 450 OFFCURVE",
"290 526 OFFCURVE",
"414 526 CURVE SMOOTH",
"560 526 OFFCURVE",
"657 428 OFFCURVE",
"657 320 CURVE SMOOTH",
"657 225 OFFCURVE",
"591 159 OFFCURVE",
"591 134 CURVE SMOOTH",
"591 126 OFFCURVE",
"598 123 OFFCURVE",
"605 123 CURVE SMOOTH"
);
},
{
closed = 1;
nodes = (
"416 224 OFFCURVE",
"435 203 OFFCURVE",
"435 171 CURVE SMOOTH",
"435 106 OFFCURVE",
"344 84 OFFCURVE",
"256 84 CURVE SMOOTH",
"198 84 OFFCURVE",
"169 103 OFFCURVE",
"169 136 CURVE SMOOTH",
"169 207 OFFCURVE",
"273 249 OFFCURVE",
"273 265 CURVE SMOOTH",
"273 280 OFFCURVE",
"263 321 OFFCURVE",
"250 321 CURVE SMOOTH",
"232 321 OFFCURVE",
"49 254 OFFCURVE",
"50 135 CURVE SMOOTH",
"51 67 OFFCURVE",
"103 -8 OFFCURVE",
"253 -7 CURVE SMOOTH",
"400 -6 OFFCURVE",
"526 60 OFFCURVE",
"526 179 CURVE SMOOTH",
"526 219 OFFCURVE",
"502 302 OFFCURVE",
"406 302 CURVE SMOOTH",
"332 302 OFFCURVE",
"266 240 OFFCURVE",
"266 174 CURVE SMOOTH",
"266 60 OFFCURVE",
"379 -53 OFFCURVE",
"421 -53 CURVE SMOOTH",
"453 -53 OFFCURVE",
"501 3 OFFCURVE",
"501 25 CURVE SMOOTH",
"501 28 OFFCURVE",
"500 30 OFFCURVE",
"498 30 CURVE SMOOTH",
"494 30 OFFCURVE",
"486 21 OFFCURVE",
"475 21 CURVE SMOOTH",
"453 21 OFFCURVE",
"347 65 OFFCURVE",
"347 175 CURVE SMOOTH",
"347 207 OFFCURVE",
"364 224 OFFCURVE",
"391 224 CURVE SMOOTH"
);
},
{
closed = 1;
nodes = (
"611 73 OFFCURVE",
"776 175 OFFCURVE",
"776 340 CURVE SMOOTH",
"776 506 OFFCURVE",
"628 617 OFFCURVE",
"432 617 CURVE SMOOTH",
"243 617 OFFCURVE",
"72 505 OFFCURVE",
"72 368 CURVE SMOOTH",
"72 288 OFFCURVE",
"140 228 OFFCURVE",
"190 228 CURVE",
"250 321 LINE",
"217 321 OFFCURVE",
"191 342 OFFCURVE",
"191 377 CURVE SMOOTH",
"191 450 OFFCURVE",
"290 526 OFFCURVE",
"414 526 CURVE SMOOTH",
"560 526 OFFCURVE",
"660 428 OFFCURVE",
"657 320 CURVE SMOOTH",
"654 210 OFFCURVE",
"561 109 OFFCURVE",
"561 84 CURVE SMOOTH",
"561 76 OFFCURVE",
"568 73 OFFCURVE",
"575 73 CURVE SMOOTH"
);
}
);
};
layerId = "9F2BC935-6AE7-4E60-84C9-D3B586669EA4";
paths = (
{
closed = 1;
nodes = (
"641 123 OFFCURVE",
"776 223 OFFCURVE",
"776 340 CURVE SMOOTH",
"776 506 OFFCURVE",
"628 617 OFFCURVE",
"432 617 CURVE SMOOTH",
"243 617 OFFCURVE",
"72 505 OFFCURVE",
"72 368 CURVE SMOOTH",
"72 288 OFFCURVE",
"139 228 OFFCURVE",
"190 228 CURVE",
"250 321 LINE",
"217 321 OFFCURVE",
"191 342 OFFCURVE",
"191 377 CURVE SMOOTH",
"191 450 OFFCURVE",
"290 526 OFFCURVE",
"414 526 CURVE SMOOTH",
"560 526 OFFCURVE",
"657 428 OFFCURVE",
"657 320 CURVE SMOOTH",
"657 225 OFFCURVE",
"591 159 OFFCURVE",
"591 134 CURVE SMOOTH",
"591 126 OFFCURVE",
"598 123 OFFCURVE",
"605 123 CURVE SMOOTH"
);
},
{
closed = 1;
nodes = (
"429 224 OFFCURVE",
"452 201 OFFCURVE",
"452 178 CURVE SMOOTH",
"452 121 OFFCURVE",
"344 84 OFFCURVE",
"263 84 CURVE SMOOTH",
"198 84 OFFCURVE",
"169 103 OFFCURVE",
"169 136 CURVE SMOOTH",
"169 207 OFFCURVE",
"273 249 OFFCURVE",
"273 265 CURVE SMOOTH",
"273 280 OFFCURVE",
"263 321 OFFCURVE",
"250 321 CURVE SMOOTH",
"232 321 OFFCURVE",
"49 254 OFFCURVE",
"50 135 CURVE SMOOTH",
"51 67 OFFCURVE",
"103 -8 OFFCURVE",
"253 -7 CURVE SMOOTH",
"400 -6 OFFCURVE",
"538 87 OFFCURVE",
"538 180 CURVE SMOOTH",
"538 236 OFFCURVE",
"491 302 OFFCURVE",
"413 302 CURVE SMOOTH",
"343 302 OFFCURVE",
"278 238 OFFCURVE",
"278 162 CURVE SMOOTH",
"278 58 OFFCURVE",
"391 -66 OFFCURVE",
"443 -66 CURVE SMOOTH",
"475 -66 OFFCURVE",
"519 -6 OFFCURVE",
"519 20 CURVE SMOOTH",
"519 26 OFFCURVE",
"517 31 OFFCURVE",
"514 31 CURVE SMOOTH",
"509 31 OFFCURVE",
"496 18 OFFCURVE",
"489 18 CURVE SMOOTH",
"470 18 OFFCURVE",
"359 81 OFFCURVE",
"359 179 CURVE SMOOTH",
"359 205 OFFCURVE",
"380 224 OFFCURVE",
"402 224 CURVE SMOOTH"
);
}
);
width = 816;
}
);
unicode = 0B22;
},
{
glyphname = "nna-oriya";
lastChange = "2021-08-24 04:52:56 +0000";
layers = (
{
layerId = "555B79C6-6D98-46E7-9307-77C37975E414";
paths = (
{
closed = 1;
nodes = (
"180 413 OFFCURVE",
"299 446 OFFCURVE",
"323 446 CURVE SMOOTH",
"342 446 OFFCURVE",
"357 418 OFFCURVE",
"368 418 CURVE SMOOTH",
"379 418 OFFCURVE",
"441 470 OFFCURVE",
"441 486 CURVE SMOOTH",
"441 494 OFFCURVE",
"422 505 OFFCURVE",
"422 517 CURVE SMOOTH",
"422 537 OFFCURVE",
"443 583 OFFCURVE",
"506 583 CURVE SMOOTH",
"605 583 OFFCURVE",
"707 478 OFFCURVE",
"765 395 CURVE",
"748 219 OFFCURVE",
"730 84 OFFCURVE",
"728 67 CURVE SMOOTH",
"724 30 OFFCURVE",
"711 -17 OFFCURVE",
"747 -17 CURVE SMOOTH",
"810 -17 OFFCURVE",
"871 98 OFFCURVE",
"879 178 CURVE SMOOTH",
"895 341 OFFCURVE",
"926 616 OFFCURVE",
"932 660 CURVE SMOOTH",
"933 668 OFFCURVE",
"933 679 OFFCURVE",
"920 679 CURVE SMOOTH",
"906 679 OFFCURVE",
"861 681 OFFCURVE",
"812 681 CURVE SMOOTH",
"799 681 OFFCURVE",
"795 675 OFFCURVE",
"794 664 CURVE SMOOTH",
"785 586 LINE",
"746 625 OFFCURVE",
"641 707 OFFCURVE",
"512 707 CURVE SMOOTH",
"403 707 OFFCURVE",
"303 644 OFFCURVE",
"295 563 CURVE",
"173 564 OFFCURVE",
"44 444 OFFCURVE",
"44 283 CURVE SMOOTH",
"44 86 OFFCURVE",
"210 -18 OFFCURVE",
"417 -18 CURVE SMOOTH",
"578 -18 OFFCURVE",
"694 67 OFFCURVE",
"694 196 CURVE SMOOTH",
"694 280 OFFCURVE",
"636 376 OFFCURVE",
"515 379 CURVE SMOOTH",
"395 382 OFFCURVE",
"301 292 OFFCURVE",
"300 203 CURVE SMOOTH",
"299 139 OFFCURVE",
"337 72 OFFCURVE",
"387 55 CURVE",
"544 70 LINE",
"475 70 OFFCURVE",
"422 134 OFFCURVE",
"422 178 CURVE SMOOTH",
"422 226 OFFCURVE",
"453 259 OFFCURVE",
"491 259 CURVE SMOOTH",
"523 259 OFFCURVE",
"567 239 OFFCURVE",
"567 186 CURVE SMOOTH",
"567 124 OFFCURVE",
"484 100 OFFCURVE",
"404 100 CURVE SMOOTH",
"274 100 OFFCURVE",
"180 206 OFFCURVE",
"180 288 CURVE SMOOTH"
);
}
);
width = 981;
},
{
background = {
paths = (
{
closed = 1;
nodes = (
"250 80 OFFCURVE",
"159 116 OFFCURVE",
"159 182 CURVE SMOOTH",
"159 267 OFFCURVE",
"303 311 OFFCURVE",
"303 329 CURVE SMOOTH",
"303 344 OFFCURVE",
"293 385 OFFCURVE",
"280 385 CURVE SMOOTH",
"262 385 OFFCURVE",
"50 308 OFFCURVE",
"50 189 CURVE SMOOTH",
"50 67 OFFCURVE",
"168 -4 OFFCURVE",
"302 -4 CURVE SMOOTH",
"434 -4 OFFCURVE",
"503 56 OFFCURVE",
"503 137 CURVE SMOOTH",
"503 216 OFFCURVE",
"434 258 OFFCURVE",
"363 258 CURVE SMOOTH",
"234 258 OFFCURVE",
"214 128 OFFCURVE",
"237 72 CURVE",
"325 46 LINE",
"304 91 OFFCURVE",
"303 179 OFFCURVE",
"357 181 CURVE SMOOTH",
"386 182 OFFCURVE",
"416 169 OFFCURVE",
"416 133 CURVE SMOOTH",
"416 97 OFFCURVE",
"372 80 OFFCURVE",
"324 80 CURVE SMOOTH"
);
},
{
closed = 1;
nodes = (
"250 80 OFFCURVE",
"159 116 OFFCURVE",
"159 182 CURVE SMOOTH",
"159 267 OFFCURVE",
"303 311 OFFCURVE",
"303 329 CURVE SMOOTH",
"303 344 OFFCURVE",
"293 385 OFFCURVE",
"280 385 CURVE SMOOTH",
"262 385 OFFCURVE",
"50 308 OFFCURVE",
"50 189 CURVE SMOOTH",
"50 67 OFFCURVE",
"168 -4 OFFCURVE",
"302 -4 CURVE SMOOTH",
"434 -4 OFFCURVE",
"503 56 OFFCURVE",
"503 137 CURVE SMOOTH",
"503 216 OFFCURVE",
"434 258 OFFCURVE",
"363 258 CURVE SMOOTH",
"234 258 OFFCURVE",
"214 128 OFFCURVE",
"237 72 CURVE",
"325 46 LINE",
"304 91 OFFCURVE",
"303 179 OFFCURVE",
"357 181 CURVE SMOOTH",
"386 182 OFFCURVE",
"416 169 OFFCURVE",
"416 133 CURVE SMOOTH",
"416 97 OFFCURVE",
"372 80 OFFCURVE",
"324 80 CURVE SMOOTH"
);
},
{
closed = 1;
nodes = (
"28 283 OFFCURVE",
"100 228 OFFCURVE",
"146 228 CURVE",
"206 321 LINE",
"174 321 OFFCURVE",
"147 340 OFFCURVE",
"147 378 CURVE SMOOTH",
"147 448 OFFCURVE",
"246 523 OFFCURVE",
"377 523 CURVE SMOOTH",
"482 523 OFFCURVE",
"595 457 OFFCURVE",
"587 365 CURVE SMOOTH",
"576 244 OFFCURVE",
"560 104 OFFCURVE",
"556 76 CURVE SMOOTH",
"551 39 OFFCURVE",
"543 -4 OFFCURVE",
"570 -4 CURVE SMOOTH",
"614 -4 OFFCURVE",
"673 108 OFFCURVE",
"681 187 CURVE SMOOTH",
"696 338 OFFCURVE",
"713 569 OFFCURVE",
"719 614 CURVE SMOOTH",
"720 622 OFFCURVE",
"720 633 OFFCURVE",
"707 633 CURVE SMOOTH",
"629 633 LINE SMOOTH",
"616 633 OFFCURVE",
"612 627 OFFCURVE",
"611 616 CURVE SMOOTH",
"605 550 LINE",
"539 593 OFFCURVE",
"474 617 OFFCURVE",
"388 617 CURVE SMOOTH",
"199 617 OFFCURVE",
"28 503 OFFCURVE",
"28 363 CURVE SMOOTH"
);
}
);
};
layerId = "9F2BC935-6AE7-4E60-84C9-D3B586669EA4";
paths = (
{
closed = 1;
nodes = (
"250 80 OFFCURVE",
"159 116 OFFCURVE",
"159 182 CURVE SMOOTH",
"159 267 OFFCURVE",
"303 311 OFFCURVE",
"303 329 CURVE SMOOTH",
"303 344 OFFCURVE",
"293 385 OFFCURVE",
"280 385 CURVE SMOOTH",
"262 385 OFFCURVE",
"50 310 OFFCURVE",
"50 172 CURVE SMOOTH",
"50 57 OFFCURVE",
"168 -4 OFFCURVE",
"298 -4 CURVE SMOOTH",
"434 -4 OFFCURVE",
"503 52 OFFCURVE",
"503 140 CURVE SMOOTH",
"503 211 OFFCURVE",
"444 258 OFFCURVE",
"363 258 CURVE SMOOTH",
"244 258 OFFCURVE",
"218 150 OFFCURVE",
"233 85 CURVE",
"329 61 LINE",
"308 106 OFFCURVE",
"310 181 OFFCURVE",
"364 181 CURVE SMOOTH",
"392 181 OFFCURVE",
"416 163 OFFCURVE",
"416 133 CURVE SMOOTH",
"416 97 OFFCURVE",
"372 80 OFFCURVE",
"324 80 CURVE SMOOTH"
);
},
{
closed = 1;
nodes = (
"235 617 OFFCURVE",
"99 552 OFFCURVE",
"99 431 CURVE SMOOTH",
"99 349 OFFCURVE",
"184 295 OFFCURVE",
"220 295 CURVE",
"280 385 LINE",
"243 385 OFFCURVE",
"218 407 OFFCURVE",
"218 438 CURVE SMOOTH",
"218 493 OFFCURVE",
"291 523 OFFCURVE",
"375 523 CURVE SMOOTH",
"478 523 OFFCURVE",
"594 463 OFFCURVE",
"587 365 CURVE SMOOTH",
"578 239 OFFCURVE",
"560 107 OFFCURVE",
"557 88 CURVE SMOOTH",
"551 51 OFFCURVE",
"549 -4 OFFCURVE",
"576 -4 CURVE SMOOTH",
"620 -4 OFFCURVE",
"670 120 OFFCURVE",
"678 199 CURVE SMOOTH",
"702 445 LINE SMOOTH",
"710 525 OFFCURVE",
"716 591 OFFCURVE",
"719 614 CURVE SMOOTH",
"720 622 OFFCURVE",
"720 633 OFFCURVE",
"707 633 CURVE SMOOTH",
"629 633 LINE SMOOTH",
"616 633 OFFCURVE",
"612 627 OFFCURVE",
"611 616 CURVE SMOOTH",
"605 550 LINE",
"539 593 OFFCURVE",
"466 617 OFFCURVE",
"377 617 CURVE SMOOTH"
);
}
);
width = 759;
}
);
unicode = 0B23;
},
{
glyphname = "ta.-oriya";
lastChange = "2021-08-24 04:53:03 +0000";
layers = (
{
layerId = "555B79C6-6D98-46E7-9307-77C37975E414";
paths = (
{
closed = 1;
nodes = (
"411 -19 OFFCURVE",
"536 37 OFFCURVE",
"536 173 CURVE SMOOTH",
"536 233 OFFCURVE",
"509 337 OFFCURVE",
"426 339 CURVE SMOOTH",
"342 341 OFFCURVE",
"279 283 OFFCURVE",
"279 259 CURVE SMOOTH",
"279 238 OFFCURVE",
"287 219 OFFCURVE",
"301 201 CURVE SMOOTH",
"316 182 OFFCURVE",
"338 178 OFFCURVE",
"344 177 CURVE SMOOTH",
"349 176 OFFCURVE",
"354 179 OFFCURVE",
"355 183 CURVE SMOOTH",
"357 189 OFFCURVE",
"345 208 OFFCURVE",
"345 219 CURVE SMOOTH",
"345 235 OFFCURVE",
"369 242 OFFCURVE",
"387 241 CURVE SMOOTH",
"410 240 OFFCURVE",
"429 208 OFFCURVE",
"428 175 CURVE SMOOTH",
"427 134 OFFCURVE",
"374 96 OFFCURVE",
"321 95 CURVE SMOOTH",
"244 94 OFFCURVE",
"217 159 OFFCURVE",
"217 191 CURVE SMOOTH",
"217 239 OFFCURVE",
"250 276 OFFCURVE",
"250 282 CURVE SMOOTH",
"250 287 OFFCURVE",
"246 289 OFFCURVE",
"231 290 CURVE SMOOTH",
"215 291 OFFCURVE",
"99 247 OFFCURVE",
"100 151 CURVE SMOOTH",
"101 84 OFFCURVE",
"167 -22 OFFCURVE",
"319 -20 CURVE SMOOTH"
);
},
{
closed = 1;
nodes = (
"622 585 OFFCURVE",
"737 456 OFFCURVE",
"737 343 CURVE SMOOTH",
"737 209 OFFCURVE",
"650 156 OFFCURVE",
"612 125 CURVE SMOOTH",
"602 117 OFFCURVE",
"612 108 OFFCURVE",
"631 108 CURVE SMOOTH",
"786 104 OFFCURVE",
"877 231 OFFCURVE",
"877 382 CURVE SMOOTH",
"877 564 OFFCURVE",
"727 711 OFFCURVE",
"458 710 CURVE SMOOTH",
"195 710 OFFCURVE",
"28 510 OFFCURVE",
"28 359 CURVE SMOOTH",
"28 265 OFFCURVE",
"89 189 OFFCURVE",
"170 149 CURVE",
"247 287 LINE",
"247 287 OFFCURVE",
"172 307 OFFCURVE",
"172 386 CURVE SMOOTH",
"172 456 OFFCURVE",
"284 579 OFFCURVE",
"446 582 CURVE SMOOTH"
);
}
);
width = 907;
},
{
background = {
paths = (
{
closed = 1;
nodes = (
"641 123 OFFCURVE",
"776 223 OFFCURVE",
"776 340 CURVE SMOOTH",
"776 506 OFFCURVE",
"628 617 OFFCURVE",
"432 617 CURVE SMOOTH",
"243 617 OFFCURVE",
"72 505 OFFCURVE",
"72 368 CURVE SMOOTH",
"72 295 OFFCURVE",
"154 231 OFFCURVE",
"190 231 CURVE",
"250 321 LINE",
"212 321 OFFCURVE",
"191 342 OFFCURVE",
"191 377 CURVE SMOOTH",
"191 450 OFFCURVE",
"290 526 OFFCURVE",
"414 526 CURVE SMOOTH",
"560 526 OFFCURVE",
"657 428 OFFCURVE",
"657 320 CURVE SMOOTH",
"657 225 OFFCURVE",
"591 159 OFFCURVE",
"591 134 CURVE SMOOTH",
"591 126 OFFCURVE",
"598 123 OFFCURVE",
"605 123 CURVE SMOOTH"
);
},
{
closed = 1;
nodes = (
"430 320 OFFCURVE",
"332 291 OFFCURVE",
"309 262 CURVE SMOOTH",
"294 242 OFFCURVE",
"312 197 OFFCURVE",
"338 177 CURVE SMOOTH",
"343 173 OFFCURVE",
"349 172 OFFCURVE",
"351 175 CURVE SMOOTH",
"354 179 OFFCURVE",
"350 202 OFFCURVE",
"354 210 CURVE SMOOTH",
"360 220 OFFCURVE",
"382 224 OFFCURVE",
"394 223 CURVE SMOOTH",
"410 222 OFFCURVE",
"425 194 OFFCURVE",
"425 160 CURVE SMOOTH",
"425 113 OFFCURVE",
"344 84 OFFCURVE",
"256 84 CURVE SMOOTH",
"198 84 OFFCURVE",
"169 103 OFFCURVE",
"169 136 CURVE SMOOTH",
"169 207 OFFCURVE",
"273 249 OFFCURVE",
"273 265 CURVE SMOOTH",
"273 280 OFFCURVE",
"263 321 OFFCURVE",
"250 321 CURVE SMOOTH",
"232 321 OFFCURVE",
"49 254 OFFCURVE",
"50 135 CURVE SMOOTH",
"51 67 OFFCURVE",
"103 -8 OFFCURVE",
"253 -7 CURVE SMOOTH",
"400 -6 OFFCURVE",
"526 65 OFFCURVE",
"526 156 CURVE SMOOTH",
"526 223 OFFCURVE",
"495 269 OFFCURVE",
"470 289 CURVE SMOOTH"
);
},
{
closed = 1;
nodes = (
"611 73 OFFCURVE",
"776 175 OFFCURVE",
"776 340 CURVE SMOOTH",
"776 506 OFFCURVE",
"628 617 OFFCURVE",
"432 617 CURVE SMOOTH",
"243 617 OFFCURVE",
"72 505 OFFCURVE",
"72 368 CURVE SMOOTH",
"72 288 OFFCURVE",
"140 228 OFFCURVE",
"190 228 CURVE",
"250 321 LINE",
"217 321 OFFCURVE",
"191 342 OFFCURVE",
"191 377 CURVE SMOOTH",
"191 450 OFFCURVE",
"290 526 OFFCURVE",
"414 526 CURVE SMOOTH",
"560 526 OFFCURVE",
"660 428 OFFCURVE",
"657 320 CURVE SMOOTH",
"654 210 OFFCURVE",
"561 109 OFFCURVE",
"561 84 CURVE SMOOTH",
"561 76 OFFCURVE",
"568 73 OFFCURVE",
"575 73 CURVE SMOOTH"
);
}
);
};
layerId = "9F2BC935-6AE7-4E60-84C9-D3B586669EA4";
paths = (
{
closed = 1;
nodes = (
"641 123 OFFCURVE",
"776 216 OFFCURVE",
"776 354 CURVE SMOOTH",
"776 506 OFFCURVE",
"628 617 OFFCURVE",
"432 617 CURVE SMOOTH",
"243 617 OFFCURVE",
"72 505 OFFCURVE",
"72 368 CURVE SMOOTH",
"72 295 OFFCURVE",
"134 228 OFFCURVE",
"190 228 CURVE",
"250 321 LINE",
"218 321 OFFCURVE",
"191 342 OFFCURVE",
"191 377 CURVE SMOOTH",
"191 450 OFFCURVE",
"290 526 OFFCURVE",
"414 526 CURVE SMOOTH",
"560 526 OFFCURVE",
"657 428 OFFCURVE",
"657 320 CURVE SMOOTH",
"657 225 OFFCURVE",
"591 159 OFFCURVE",
"591 134 CURVE SMOOTH",
"591 126 OFFCURVE",
"598 123 OFFCURVE",
"605 123 CURVE SMOOTH"
);
},
{
closed = 1;
nodes = (
"490 304 OFFCURVE",
"420 304 CURVE SMOOTH",
"378 304 OFFCURVE",
"299 282 OFFCURVE",
"299 239 CURVE SMOOTH",
"299 204 OFFCURVE",
"331 162 OFFCURVE",
"350 162 CURVE SMOOTH",
"358 162 OFFCURVE",
"355 175 OFFCURVE",
"355 186 CURVE SMOOTH",
"355 198 OFFCURVE",
"392 222 OFFCURVE",
"408 222 CURVE SMOOTH",
"427 222 OFFCURVE",
"441 194 OFFCURVE",
"441 160 CURVE SMOOTH",
"441 113 OFFCURVE",
"344 84 OFFCURVE",
"256 84 CURVE SMOOTH",
"198 84 OFFCURVE",
"169 103 OFFCURVE",
"169 136 CURVE SMOOTH",
"169 207 OFFCURVE",
"273 249 OFFCURVE",
"273 265 CURVE SMOOTH",
"273 280 OFFCURVE",
"263 321 OFFCURVE",
"250 321 CURVE SMOOTH",
"232 321 OFFCURVE",
"49 254 OFFCURVE",
"50 135 CURVE SMOOTH",
"51 67 OFFCURVE",
"103 -8 OFFCURVE",
"247 -7 CURVE SMOOTH",
"423 -6 OFFCURVE",
"536 68 OFFCURVE",
"536 169 CURVE SMOOTH",
"536 247 OFFCURVE"
);
}
);
width = 816;
}
);
unicode = 0B24;
},
{
glyphname = "tha-oriya";
lastChange = "2021-08-24 04:53:08 +0000";
layers = (
{
layerId = "555B79C6-6D98-46E7-9307-77C37975E414";
paths = (
{
closed = 1;
nodes = (
"760 696 OFFCURVE",
"760 707 OFFCURVE",
"747 707 CURVE SMOOTH",
"733 707 OFFCURVE",
"688 709 OFFCURVE",
"639 709 CURVE SMOOTH",
"626 709 OFFCURVE",
"622 703 OFFCURVE",
"621 692 CURVE SMOOTH",
"602 483 OFFCURVE",
"563 103 OFFCURVE",
"559 75 CURVE SMOOTH",
"554 38 OFFCURVE",
"542 -17 OFFCURVE",
"578 -17 CURVE SMOOTH",
"641 -17 OFFCURVE",
"705 106 OFFCURVE",
"710 186 CURVE SMOOTH",
"721 356 OFFCURVE",
"753 642 OFFCURVE",
"759 688 CURVE SMOOTH"
);
},
{
closed = 1;
nodes = (
"514 677 OFFCURVE",
"401 708 OFFCURVE",
"336 708 CURVE SMOOTH",
"222 708 OFFCURVE",
"101 629 OFFCURVE",
"101 539 CURVE SMOOTH",
"101 439 OFFCURVE",
"181 409 OFFCURVE",
"218 409 CURVE SMOOTH",
"247 409 OFFCURVE",
"273 435 OFFCURVE",
"286 468 CURVE SMOOTH",
"293 486 OFFCURVE",
"294 507 OFFCURVE",
"294 509 CURVE SMOOTH",
"294 519 OFFCURVE",
"293 524 OFFCURVE",
"288 524 CURVE SMOOTH",
"281 524 OFFCURVE",
"266 500 OFFCURVE",
"250 500 CURVE SMOOTH",
"190 500 OFFCURVE",
"227 597 OFFCURVE",
"304 597 CURVE SMOOTH",
"346 597 OFFCURVE",
"377 568 OFFCURVE",
"377 519 CURVE SMOOTH",
"377 396 OFFCURVE",
"72 317 OFFCURVE",
"78 154 CURVE SMOOTH",
"80 94 OFFCURVE",
"121 -7 OFFCURVE",
"283 -7 CURVE SMOOTH",
"419 -7 OFFCURVE",
"573 73 OFFCURVE",
"607 134 CURVE",
"634 332 LINE",
"572 235 OFFCURVE",
"412 115 OFFCURVE",
"317 115 CURVE SMOOTH",
"257 115 OFFCURVE",
"242 146 OFFCURVE",
"242 177 CURVE SMOOTH",
"242 261 OFFCURVE",
"514 317 OFFCURVE",
"514 549 CURVE SMOOTH"
);
}
);
width = 816;
},
{
background = {
paths = (
{
closed = 1;
nodes = (
"379 -10 OFFCURVE",
"509 76 OFFCURVE",
"542 106 CURVE",
"553 254 LINE",
"498 186 OFFCURVE",
"338 93 OFFCURVE",
"252 95 CURVE SMOOTH",
"202 96 OFFCURVE",
"169 111 OFFCURVE",
"169 142 CURVE SMOOTH",
"169 225 OFFCURVE",
"457 283 OFFCURVE",
"457 478 CURVE SMOOTH",
"457 578 OFFCURVE",
"371 614 OFFCURVE",
"303 614 CURVE SMOOTH",
"209 614 OFFCURVE",
"136 558 OFFCURVE",
"136 482 CURVE SMOOTH",
"136 415 OFFCURVE",
"208 367 OFFCURVE",
"240 367 CURVE SMOOTH",
"270 367 OFFCURVE",
"305 426 OFFCURVE",
"305 463 CURVE SMOOTH",
"305 466 OFFCURVE",
"304 469 OFFCURVE",
"301 469 CURVE SMOOTH",
"295 469 OFFCURVE",
"287 454 OFFCURVE",
"277 454 CURVE SMOOTH",
"262 454 OFFCURVE",
"240 465 OFFCURVE",
"240 486 CURVE SMOOTH",
"240 509 OFFCURVE",
"259 523 OFFCURVE",
"295 523 CURVE SMOOTH",
"329 523 OFFCURVE",
"361 509 OFFCURVE",
"361 466 CURVE SMOOTH",
"361 352 OFFCURVE",
"50 269 OFFCURVE",
"50 133 CURVE SMOOTH",
"50 56 OFFCURVE",
"110 -10 OFFCURVE",
"229 -10 CURVE SMOOTH"
);
},
{
closed = 1;
nodes = (
"639 595 OFFCURVE",
"639 606 OFFCURVE",
"626 606 CURVE SMOOTH",
"612 606 OFFCURVE",
"597 606 OFFCURVE",
"548 606 CURVE SMOOTH",
"535 606 OFFCURVE",
"531 600 OFFCURVE",
"530 589 CURVE SMOOTH",
"511 380 OFFCURVE",
"479 77 OFFCURVE",
"475 49 CURVE SMOOTH",
"470 12 OFFCURVE",
"462 -31 OFFCURVE",
"489 -31 CURVE SMOOTH",
"533 -31 OFFCURVE",
"592 81 OFFCURVE",
"600 160 CURVE SMOOTH",
"615 311 OFFCURVE",
"632 542 OFFCURVE",
"638 587 CURVE SMOOTH"
);
}
);
};
layerId = "9F2BC935-6AE7-4E60-84C9-D3B586669EA4";
paths = (
{
closed = 1;
nodes = (
"639 595 OFFCURVE",
"639 606 OFFCURVE",
"626 606 CURVE SMOOTH",
"612 606 OFFCURVE",
"597 606 OFFCURVE",
"548 606 CURVE SMOOTH",
"535 606 OFFCURVE",
"531 600 OFFCURVE",
"530 589 CURVE SMOOTH",
"511 380 OFFCURVE",
"479 77 OFFCURVE",
"475 49 CURVE SMOOTH",
"470 12 OFFCURVE",
"462 -31 OFFCURVE",
"489 -31 CURVE SMOOTH",
"533 -31 OFFCURVE",
"592 81 OFFCURVE",
"600 160 CURVE SMOOTH",
"615 311 OFFCURVE",
"632 542 OFFCURVE",
"638 587 CURVE SMOOTH"
);
},
{
closed = 1;
nodes = (
"483 142 OFFCURVE",
"329 92 OFFCURVE",
"249 92 CURVE SMOOTH",
"197 92 OFFCURVE",
"169 114 OFFCURVE",
"169 140 CURVE SMOOTH",
"169 211 OFFCURVE",
"457 283 OFFCURVE",
"457 478 CURVE SMOOTH",
"457 578 OFFCURVE",
"371 614 OFFCURVE",
"303 614 CURVE SMOOTH",
"209 614 OFFCURVE",
"136 558 OFFCURVE",
"136 482 CURVE SMOOTH",
"136 415 OFFCURVE",
"208 367 OFFCURVE",
"240 367 CURVE SMOOTH",
"270 367 OFFCURVE",
"305 426 OFFCURVE",
"305 463 CURVE SMOOTH",
"305 466 OFFCURVE",
"304 469 OFFCURVE",
"301 469 CURVE SMOOTH",
"295 469 OFFCURVE",
"287 454 OFFCURVE",
"277 454 CURVE SMOOTH",
"262 454 OFFCURVE",
"240 465 OFFCURVE",
"240 486 CURVE SMOOTH",
"240 509 OFFCURVE",
"259 523 OFFCURVE",
"295 523 CURVE SMOOTH",
"329 523 OFFCURVE",
"361 509 OFFCURVE",
"361 466 CURVE SMOOTH",
"361 352 OFFCURVE",
"50 269 OFFCURVE",
"50 133 CURVE SMOOTH",
"50 56 OFFCURVE",
"121 -7 OFFCURVE",
"244 -7 CURVE SMOOTH",
"367 -7 OFFCURVE",
"444 36 OFFCURVE",
"501 73 CURVE",
"495 233 LINE"
);
}
);
width = 678;
}
);
unicode = 0B25;
},
{
glyphname = "da-oriya";
lastChange = "2021-08-24 04:53:16 +0000";
layers = (
{
layerId = "555B79C6-6D98-46E7-9307-77C37975E414";
paths = (
{
closed = 1;
nodes = (
"418 156 OFFCURVE",
"364 126 OFFCURVE",
"311 125 CURVE SMOOTH",
"234 124 OFFCURVE",
"217 189 OFFCURVE",
"217 221 CURVE SMOOTH",
"217 269 OFFCURVE",
"250 306 OFFCURVE",
"250 312 CURVE SMOOTH",
"250 317 OFFCURVE",
"246 319 OFFCURVE",
"231 320 CURVE SMOOTH",
"214 321 OFFCURVE",
"99 277 OFFCURVE",
"100 181 CURVE SMOOTH",
"102 77 OFFCURVE",
"197 10 OFFCURVE",
"301 10 CURVE SMOOTH",
"341 10 OFFCURVE",
"389 22 OFFCURVE",
"407 44 CURVE",
"404 12 OFFCURVE",
"393 -62 OFFCURVE",
"424 -62 CURVE SMOOTH",
"480 -62 OFFCURVE",
"530 39 OFFCURVE",
"537 109 CURVE SMOOTH",
"549 231 OFFCURVE",
"565 364 OFFCURVE",
"565 387 CURVE SMOOTH",
"565 394 OFFCURVE",
"565 404 OFFCURVE",
"553 404 CURVE SMOOTH",
"541 404 OFFCURVE",
"506 406 OFFCURVE",
"461 406 CURVE SMOOTH",
"449 406 OFFCURVE",
"445 401 OFFCURVE",
"444 391 CURVE SMOOTH",
"424 207 LINE SMOOTH"
);
},
{
closed = 1;
nodes = (
"622 582 OFFCURVE",
"737 456 OFFCURVE",
"737 325 CURVE SMOOTH",
"737 235 OFFCURVE",
"689 178 OFFCURVE",
"658 142 CURVE SMOOTH",
"651 134 OFFCURVE",
"657 125 OFFCURVE",
"668 125 CURVE SMOOTH",
"789 125 OFFCURVE",
"872 231 OFFCURVE",
"877 360 CURVE SMOOTH",
"885 569 OFFCURVE",
"727 711 OFFCURVE",
"458 710 CURVE SMOOTH",
"195 710 OFFCURVE",
"33 530 OFFCURVE",
"33 379 CURVE SMOOTH",
"33 285 OFFCURVE",
"90 219 OFFCURVE",
"171 179 CURVE",
"248 317 LINE",
"248 317 OFFCURVE",
"177 330 OFFCURVE",
"177 401 CURVE SMOOTH",
"177 475 OFFCURVE",
"291 582 OFFCURVE",
"446 582 CURVE SMOOTH"
);
}
);
width = 906;
},
{
background = {
paths = (
{
closed = 1;
nodes = (
"639 122 OFFCURVE",
"776 206 OFFCURVE",
"776 356 CURVE SMOOTH",
"776 506 OFFCURVE",
"623 617 OFFCURVE",
"432 617 CURVE SMOOTH",
"243 617 OFFCURVE",
"72 522 OFFCURVE",
"72 385 CURVE SMOOTH",
"72 312 OFFCURVE",
"154 248 OFFCURVE",
"190 248 CURVE",
"250 338 LINE",
"212 338 OFFCURVE",
"191 359 OFFCURVE",
"191 394 CURVE SMOOTH",
"191 466 OFFCURVE",
"290 526 OFFCURVE",
"414 526 CURVE SMOOTH",
"560 526 OFFCURVE",
"660 428 OFFCURVE",
"657 320 CURVE SMOOTH",
"654 210 OFFCURVE",
"589 158 OFFCURVE",
"589 133 CURVE SMOOTH",
"589 125 OFFCURVE",
"596 122 OFFCURVE",
"603 122 CURVE SMOOTH"
);
},
{
closed = 1;
nodes = (
"524 393 OFFCURVE",
"524 404 OFFCURVE",
"511 404 CURVE SMOOTH",
"497 404 OFFCURVE",
"482 404 OFFCURVE",
"433 404 CURVE SMOOTH",
"420 404 OFFCURVE",
"416 398 OFFCURVE",
"415 387 CURVE SMOOTH",
"396 204 OFFCURVE",
"384 88 OFFCURVE",
"380 60 CURVE SMOOTH",
"375 23 OFFCURVE",
"372 -32 OFFCURVE",
"399 -32 CURVE SMOOTH",
"436 -32 OFFCURVE",
"480 38 OFFCURVE",
"491 103 CURVE SMOOTH",
"508 208 OFFCURVE",
"517 340 OFFCURVE",
"523 385 CURVE SMOOTH"
);
},
{
closed = 1;
nodes = (
"402 262 LINE",
"402 197 OFFCURVE",
"334 101 OFFCURVE",
"238 101 CURVE SMOOTH",
"198 101 OFFCURVE",
"169 120 OFFCURVE",
"169 153 CURVE SMOOTH",
"169 224 OFFCURVE",
"273 266 OFFCURVE",
"273 282 CURVE SMOOTH",
"273 297 OFFCURVE",
"263 338 OFFCURVE",
"250 338 CURVE SMOOTH",
"232 338 OFFCURVE",
"49 262 OFFCURVE",
"50 143 CURVE SMOOTH",
"51 75 OFFCURVE",
"103 9 OFFCURVE",
"216 10 CURVE SMOOTH",
"295 10 OFFCURVE",
"383 47 OFFCURVE",
"421 83 CURVE"
);
}
);
};
layerId = "9F2BC935-6AE7-4E60-84C9-D3B586669EA4";
paths = (
{
closed = 1;
nodes = (
"402 262 LINE",
"397 197 OFFCURVE",
"334 101 OFFCURVE",
"238 101 CURVE SMOOTH",
"198 101 OFFCURVE",
"169 120 OFFCURVE",
"169 153 CURVE SMOOTH",
"169 224 OFFCURVE",
"273 266 OFFCURVE",
"273 282 CURVE SMOOTH",
"273 297 OFFCURVE",
"263 338 OFFCURVE",
"250 338 CURVE SMOOTH",
"232 338 OFFCURVE",
"49 262 OFFCURVE",
"50 143 CURVE SMOOTH",
"51 75 OFFCURVE",
"103 10 OFFCURVE",
"216 10 CURVE SMOOTH",
"305 10 OFFCURVE",
"383 47 OFFCURVE",
"421 83 CURVE"
);
},
{
closed = 1;
nodes = (
"639 122 OFFCURVE",
"776 209 OFFCURVE",
"776 352 CURVE SMOOTH",
"776 506 OFFCURVE",
"628 617 OFFCURVE",
"432 617 CURVE SMOOTH",
"243 617 OFFCURVE",
"72 522 OFFCURVE",
"72 385 CURVE SMOOTH",
"72 305 OFFCURVE",
"139 245 OFFCURVE",
"190 245 CURVE",
"250 338 LINE",
"217 338 OFFCURVE",
"191 359 OFFCURVE",
"191 394 CURVE SMOOTH",
"191 467 OFFCURVE",
"290 526 OFFCURVE",
"414 526 CURVE SMOOTH",
"560 526 OFFCURVE",
"657 428 OFFCURVE",
"657 320 CURVE SMOOTH",
"657 225 OFFCURVE",
"589 158 OFFCURVE",
"589 133 CURVE SMOOTH",
"589 125 OFFCURVE",
"596 122 OFFCURVE",
"603 122 CURVE SMOOTH"
);
},
{
closed = 1;
nodes = (
"524 393 OFFCURVE",
"524 404 OFFCURVE",
"511 404 CURVE SMOOTH",
"497 404 OFFCURVE",
"448 404 OFFCURVE",
"433 404 CURVE SMOOTH",
"420 404 OFFCURVE",
"416 398 OFFCURVE",
"415 387 CURVE SMOOTH",
"393 178 OFFCURVE",
"383 77 OFFCURVE",
"379 49 CURVE SMOOTH",
"374 12 OFFCURVE",
"366 -31 OFFCURVE",
"393 -31 CURVE SMOOTH",
"437 -31 OFFCURVE",
"499 81 OFFCURVE",
"504 160 CURVE SMOOTH",
"509 238 OFFCURVE",
"518 340 OFFCURVE",
"523 385 CURVE SMOOTH"
);
}
);
width = 816;
}
);
unicode = 0B26;
},
